<svg width="20" height="20" viewBox="0 0 20 20" fill="none" xmlns="http://www.w3.org/2000/svg">
<path fill-rule="evenodd" clip-rule="evenodd" d="M14.8925 5.10501C14.8925 2.01484 12.7531 0 10.5006 0C8.24424 0 6.15269 1.99471 6.15269 5.10501H6.15143C6.16023 7.19028 8.11596 11.1407 10.5232 11.1407C12.9292 11.1407 14.8799 7.19028 14.8925 5.10501Z" fill="#5F9B8C"/>
<path d="M18.2558 15.5084V15.0399C18.338 15.1027 18.4163 15.1711 18.4902 15.2449C18.5729 15.3275 18.6487 15.4156 18.7174 15.5084H18.2558ZM18.2558 18.3076H18.7112C18.6442 18.3972 18.5706 18.4824 18.4905 18.5624C18.4165 18.6364 18.3381 18.7049 18.2558 18.7678V18.3076ZM15.4315 18.7876V18.7877C15.3396 18.7195 15.2523 18.6443 15.1704 18.5624C15.0903 18.4824 15.0167 18.3972 14.9497 18.3076H15.4315V18.7876ZM14.9441 15.5084C15.0129 15.4155 15.0889 15.3273 15.1717 15.2446C15.2532 15.1633 15.3401 15.0885 15.4315 15.0207V15.5084H14.9441Z" stroke="#5F9B8C" stroke-width="1.5"/>
<path fill-rule="evenodd" clip-rule="evenodd" d="M11.674 16.2747C11.674 14.7138 12.3594 13.314 13.4423 12.3645C14.0221 11.8538 13.9882 11.8991 13.4826 12.1444C12.0261 12.8512 10.0541 13.0575 10.0541 13.0575C10.0541 13.0575 6.39667 12.6965 5.31882 11.2476C0.155954 11.2476 0 18.7485 0 18.7485H12.294C11.8864 17.9877 11.6734 17.1378 11.674 16.2747Z" fill="#5F9B8C"/>
</svg>
