<svg width="20" height="20" viewBox="0 0 20 20" fill="none" xmlns="http://www.w3.org/2000/svg">
<path d="M8.07137 8.50342C7.35333 7.37019 6.92881 6.04135 6.90262 5.17437V5.10501C6.90262 2.33836 8.7256 0.75 10.5005 0.75C12.2787 0.75 14.1413 2.36591 14.1424 5.1027C14.1365 5.96808 13.7083 7.33954 12.9715 8.50376C12.2118 9.70426 11.318 10.3907 10.5231 10.3907C9.72728 10.3907 8.83191 9.70371 8.07137 8.50342Z" stroke="#666666" stroke-width="1.5"/>
<path d="M18.2558 15.5084V15.0399C18.3379 15.1027 18.4162 15.1711 18.4902 15.2449C18.5728 15.3275 18.6486 15.4156 18.7173 15.5084H18.2558ZM18.2558 18.3076H18.7111C18.6441 18.3972 18.5705 18.4824 18.4905 18.5624C18.4165 18.6364 18.338 18.7049 18.2558 18.7678V18.3076ZM15.4314 18.7876V18.7877C15.3395 18.7195 15.2522 18.6443 15.1703 18.5624C15.0903 18.4824 15.0166 18.3972 14.9497 18.3076H15.4314V18.7876ZM14.9441 15.5084C15.0129 15.4155 15.0889 15.3273 15.1716 15.2446C15.2531 15.1633 15.34 15.0885 15.4314 15.0207V15.5084H14.9441Z" stroke="#666666" stroke-width="1.5"/>
<path d="M10.0541 13.0575L9.9804 13.8038L10.0563 13.8113L10.1321 13.8034L10.0541 13.0575ZM10.0541 13.0575C9.9804 13.8038 9.98025 13.8038 9.98009 13.8038L9.9797 13.8038L9.97867 13.8037L9.9756 13.8033L9.96552 13.8023L9.93012 13.7985C9.89994 13.7951 9.8568 13.7902 9.80224 13.7834C9.69319 13.7698 9.53813 13.749 9.34942 13.7193C8.97324 13.6603 8.45736 13.5654 7.90282 13.422C7.35132 13.2793 6.74248 13.0838 6.18859 12.8177C5.76623 12.6147 5.33712 12.3525 4.99153 12.0101C3.09447 12.1567 2.03871 13.5814 1.42788 15.2552C1.1101 16.126 0.939066 17.007 0.848245 17.6772C0.832781 17.7914 0.819711 17.8988 0.808671 17.9985M10.0541 13.0575C10.1321 13.8034 10.1322 13.8034 10.1323 13.8034L10.1326 13.8033L10.1333 13.8033L10.1352 13.8031L10.1411 13.8024L10.1613 13.8002C10.1785 13.7982 10.2028 13.7954 10.2337 13.7915C10.2955 13.7839 10.3838 13.7723 10.4935 13.7563C10.7128 13.7242 11.0197 13.6739 11.3744 13.6004C11.4403 13.5867 11.5083 13.5721 11.578 13.5567C11.1602 14.3709 10.9241 15.2951 10.924 16.2742C10.924 16.2743 10.924 16.2745 10.924 16.2747H11.674C11.6736 16.8635 11.7726 17.4461 11.965 17.9985H0.808671M0.808671 17.9985H11.1768H0.808671Z" stroke="#666666" stroke-width="1.5"/>
</svg>
