<svg width="26" height="24" viewBox="0 0 26 24" fill="none" xmlns="http://www.w3.org/2000/svg">
<path d="M0 4.27929C0 3.57214 0.56865 3 1.26862 3H11.4814C11.8178 3 12.1405 3.13478 12.3784 3.37469C12.6163 3.61461 12.75 3.94 12.75 4.27929C12.75 4.61857 12.6163 4.94396 12.3784 5.18388C12.1405 5.42379 11.8178 5.55857 11.4814 5.55857H1.26862C0.932165 5.55857 0.609485 5.42379 0.371572 5.18388C0.133658 4.94396 0 4.61857 0 4.27929Z" fill="#5F9B8C"/>
<path d="M0 12C0 11.2928 0.56865 10.7207 1.26862 10.7207H24.2314C24.5678 10.7207 24.8905 10.8555 25.1284 11.0954C25.3663 11.3353 25.5 11.6607 25.5 12C25.5 12.3393 25.3663 12.6647 25.1284 12.9046C24.8905 13.1445 24.5678 13.2793 24.2314 13.2793H1.26862C0.932165 13.2793 0.609485 13.1445 0.371572 12.9046C0.133658 12.6647 0 12.3393 0 12Z" fill="#5F9B8C"/>
<path d="M1.26862 18.4414C0.932164 18.4414 0.609485 18.5762 0.371572 18.8161C0.133658 19.056 0 19.3814 0 19.7207C0 20.06 0.133658 20.3854 0.371572 20.6253C0.609485 20.8652 0.932164 21 1.26862 21H16.5814C16.9178 21 17.2405 20.8652 17.4784 20.6253C17.7163 20.3854 17.85 20.06 17.85 19.7207C17.85 19.3814 17.7163 19.056 17.4784 18.8161C17.2405 18.5762 16.9178 18.4414 16.5814 18.4414H1.26862Z" fill="#5F9B8C"/>
</svg>
