<svg width="28" height="28" viewBox="0 0 28 28" fill="none" xmlns="http://www.w3.org/2000/svg">
<g clip-path="url(#clip0_2208_9928)">
<path d="M0 14C0 6.26801 6.26801 0 14 0C21.732 0 28 6.26801 28 14C28 21.732 21.732 28 14 28C6.26801 28 0 21.732 0 14Z" fill="#E0565B"/>
<path d="M4.97688 16.385C4.99021 16.2283 5.04021 16.075 5.12688 15.925C5.21688 15.7717 5.31521 15.6517 5.42188 15.565C5.71188 15.755 6.03354 15.915 6.38688 16.045C6.74021 16.175 7.08854 16.24 7.43188 16.24C7.83521 16.24 8.14854 16.1533 8.37188 15.98C8.59521 15.8033 8.70688 15.5767 8.70688 15.3C8.70688 15.0667 8.62854 14.86 8.47188 14.68C8.31521 14.4967 8.09021 14.3433 7.79688 14.22L6.59188 13.715C6.16854 13.5383 5.83188 13.3117 5.58188 13.035C5.33521 12.755 5.21188 12.4017 5.21188 11.975C5.21188 11.6117 5.30688 11.285 5.49688 10.995C5.69021 10.7017 5.95688 10.47 6.29688 10.3C6.63688 10.1267 7.03021 10.04 7.47688 10.04C7.89354 10.04 8.28521 10.0933 8.65188 10.2C9.01854 10.3067 9.33188 10.425 9.59188 10.555C9.58854 10.7083 9.55021 10.8617 9.47688 11.015C9.40688 11.165 9.31688 11.29 9.20688 11.39C8.94354 11.26 8.65688 11.15 8.34688 11.06C8.03688 10.9667 7.75354 10.92 7.49687 10.92C7.12354 10.92 6.83021 11.01 6.61688 11.19C6.40688 11.37 6.30188 11.5917 6.30188 11.855C6.30188 12.075 6.37854 12.255 6.53188 12.395C6.68521 12.535 6.88521 12.6567 7.13188 12.76L8.32688 13.255C8.75354 13.4317 9.10854 13.675 9.39188 13.985C9.67854 14.295 9.82188 14.675 9.82188 15.125C9.82188 15.5083 9.73188 15.8517 9.55188 16.155C9.37521 16.455 9.10521 16.6933 8.74188 16.87C8.37854 17.0433 7.92188 17.13 7.37188 17.13C6.95521 17.13 6.53521 17.0633 6.11188 16.93C5.68854 16.7967 5.31021 16.615 4.97688 16.385ZM10.6845 13.58C10.6845 12.9067 10.7845 12.3033 10.9845 11.77C11.1878 11.2367 11.4961 10.815 11.9095 10.505C12.3228 10.195 12.8461 10.04 13.4795 10.04C14.1161 10.04 14.6395 10.1967 15.0495 10.51C15.4628 10.82 15.7695 11.2417 15.9695 11.775C16.1728 12.3083 16.2745 12.91 16.2745 13.58C16.2745 14.2567 16.1728 14.8633 15.9695 15.4C15.7695 15.9333 15.4628 16.355 15.0495 16.665C14.6361 16.975 14.1128 17.13 13.4795 17.13C12.8428 17.13 12.3178 16.975 11.9045 16.665C11.4911 16.3517 11.1845 15.9267 10.9845 15.39C10.7845 14.8533 10.6845 14.25 10.6845 13.58ZM11.7995 13.58C11.7995 13.8833 11.8211 14.1933 11.8645 14.51C11.9111 14.8233 11.9945 15.115 12.1145 15.385C12.2345 15.6517 12.4045 15.8683 12.6245 16.035C12.8445 16.1983 13.1295 16.28 13.4795 16.28C13.8261 16.28 14.1095 16.1983 14.3295 16.035C14.5495 15.8683 14.7178 15.6517 14.8345 15.385C14.9545 15.115 15.0361 14.8233 15.0795 14.51C15.1261 14.1933 15.1495 13.8833 15.1495 13.58C15.1495 13.2767 15.1261 12.9683 15.0795 12.655C15.0361 12.3383 14.9545 12.0467 14.8345 11.78C14.7178 11.5133 14.5495 11.2983 14.3295 11.135C14.1095 10.9717 13.8261 10.89 13.4795 10.89C13.1295 10.89 12.8445 10.9717 12.6245 11.135C12.4045 11.2983 12.2345 11.5133 12.1145 11.78C11.9945 12.0467 11.9111 12.3383 11.8645 12.655C11.8211 12.9683 11.7995 13.2767 11.7995 13.58ZM17.0765 16.385C17.0898 16.2283 17.1398 16.075 17.2265 15.925C17.3165 15.7717 17.4148 15.6517 17.5215 15.565C17.8115 15.755 18.1332 15.915 18.4865 16.045C18.8398 16.175 19.1882 16.24 19.5315 16.24C19.9348 16.24 20.2482 16.1533 20.4715 15.98C20.6948 15.8033 20.8065 15.5767 20.8065 15.3C20.8065 15.0667 20.7282 14.86 20.5715 14.68C20.4148 14.4967 20.1898 14.3433 19.8965 14.22L18.6915 13.715C18.2682 13.5383 17.9315 13.3117 17.6815 13.035C17.4348 12.755 17.3115 12.4017 17.3115 11.975C17.3115 11.6117 17.4065 11.285 17.5965 10.995C17.7898 10.7017 18.0565 10.47 18.3965 10.3C18.7365 10.1267 19.1298 10.04 19.5765 10.04C19.9932 10.04 20.3848 10.0933 20.7515 10.2C21.1182 10.3067 21.4315 10.425 21.6915 10.555C21.6882 10.7083 21.6498 10.8617 21.5765 11.015C21.5065 11.165 21.4165 11.29 21.3065 11.39C21.0432 11.26 20.7565 11.15 20.4465 11.06C20.1365 10.9667 19.8532 10.92 19.5965 10.92C19.2232 10.92 18.9298 11.01 18.7165 11.19C18.5065 11.37 18.4015 11.5917 18.4015 11.855C18.4015 12.075 18.4782 12.255 18.6315 12.395C18.7848 12.535 18.9848 12.6567 19.2315 12.76L20.4265 13.255C20.8532 13.4317 21.2082 13.675 21.4915 13.985C21.7782 14.295 21.9215 14.675 21.9215 15.125C21.9215 15.5083 21.8315 15.8517 21.6515 16.155C21.4748 16.455 21.2048 16.6933 20.8415 16.87C20.4782 17.0433 20.0215 17.13 19.4715 17.13C19.0548 17.13 18.6348 17.0633 18.2115 16.93C17.7882 16.7967 17.4098 16.615 17.0765 16.385Z" fill="white"/>
</g>
<defs>
<clipPath id="clip0_2208_9928">
<path d="M0 14C0 6.26801 6.26801 0 14 0C21.732 0 28 6.26801 28 14C28 21.732 21.732 28 14 28C6.26801 28 0 21.732 0 14Z" fill="white"/>
</clipPath>
</defs>
</svg>
