<svg width="30" height="22" viewBox="0 0 30 22" fill="none" xmlns="http://www.w3.org/2000/svg">
<path d="M14.626 3.6434C14.8685 3.6434 15.101 3.73971 15.2724 3.91114C15.4438 4.08258 15.5402 4.31509 15.5402 4.55753V7.29991C15.5402 7.54235 15.4438 7.77487 15.2724 7.9463C15.101 8.11773 14.8685 8.21404 14.626 8.21404C14.3836 8.21404 14.1511 8.11773 13.9796 7.9463C13.8082 7.77487 13.7119 7.54235 13.7119 7.29991V4.55753C13.7119 4.31509 13.8082 4.08258 13.9796 3.91114C14.1511 3.73971 14.3836 3.6434 14.626 3.6434ZM6.82303 6.80994C6.99446 6.63857 7.22693 6.5423 7.46932 6.5423C7.71171 6.5423 7.94418 6.63857 8.11561 6.80994L9.78846 8.48096C9.87345 8.56596 9.94087 8.66686 9.98687 8.7779C10.0329 8.88895 10.0565 9.00797 10.0565 9.12817C10.0565 9.24836 10.0329 9.36738 9.98687 9.47843C9.94087 9.58948 9.87345 9.69038 9.78846 9.77537C9.70347 9.86036 9.60257 9.92778 9.49152 9.97378C9.38048 10.0198 9.26146 10.0434 9.14126 10.0434C9.02106 10.0434 8.90204 10.0198 8.791 9.97378C8.67995 9.92778 8.57905 9.86036 8.49406 9.77537L6.82303 8.10252C6.65166 7.93109 6.55539 7.69862 6.55539 7.45623C6.55539 7.21383 6.65166 6.98136 6.82303 6.80994ZM3.65649 14.6129C3.65649 14.3705 3.7528 14.138 3.92424 13.9665C4.09567 13.7951 4.32818 13.6988 4.57062 13.6988H7.47023C7.71268 13.6988 7.94519 13.7951 8.11662 13.9665C8.28805 14.138 8.38436 14.3705 8.38436 14.6129C8.38436 14.8554 8.28805 15.0879 8.11662 15.2593C7.94519 15.4307 7.71268 15.5271 7.47023 15.5271H4.57062C4.32818 15.5271 4.09567 15.4307 3.92424 15.2593C3.7528 15.0879 3.65649 14.8554 3.65649 14.6129ZM21.0249 14.6129C21.0249 14.3705 21.1212 14.138 21.2927 13.9665C21.4641 13.7951 21.6966 13.6988 21.939 13.6988H24.6814C24.9239 13.6988 25.1564 13.7951 25.3278 13.9665C25.4992 14.138 25.5956 14.3705 25.5956 14.6129C25.5956 14.8554 25.4992 15.0879 25.3278 15.2593C25.1564 15.4307 24.9239 15.5271 24.6814 15.5271H21.939C21.6966 15.5271 21.4641 15.4307 21.2927 15.2593C21.1212 15.0879 21.0249 14.8554 21.0249 14.6129ZM22.4034 6.85016C22.2768 6.72417 22.1073 6.65046 21.9288 6.64368C21.7503 6.63691 21.5758 6.69757 21.4399 6.8136L13.7978 13.3514C13.6198 13.5015 13.4752 13.6872 13.3734 13.8966C13.2717 14.106 13.215 14.3344 13.2071 14.5671C13.1991 14.7998 13.2402 15.0316 13.3274 15.2475C13.4147 15.4633 13.5463 15.6584 13.7138 15.8202C13.8812 15.982 14.0808 16.1068 14.2995 16.1866C14.5182 16.2665 14.7512 16.2995 14.9835 16.2836C15.2158 16.2677 15.4422 16.2032 15.648 16.0943C15.8538 15.9854 16.0344 15.8345 16.1782 15.6514L22.4564 7.79537C22.5657 7.65864 22.6206 7.48645 22.6109 7.31172C22.6011 7.137 22.5272 6.97201 22.4034 6.84833V6.85016Z" fill="#5F9B8C"/>
<path fill-rule="evenodd" clip-rule="evenodd" d="M9.70407e-06 14.6129C0.00192091 12.4845 0.468359 10.3821 1.36676 8.45251C2.26516 6.52295 3.57388 4.81273 5.20155 3.44123C6.82922 2.06973 8.73662 1.07001 10.7906 0.511854C12.8445 -0.0463019 14.9956 -0.149439 17.0935 0.209642C19.1915 0.568723 21.1858 1.38137 22.9372 2.59085C24.6886 3.80033 26.155 5.37749 27.2338 7.21224C28.3127 9.04699 28.9782 11.0951 29.1837 13.2136C29.3893 15.3321 29.13 17.47 28.4239 19.4779C27.6158 21.7687 25.0508 22.4068 23.0634 21.7632C20.6757 20.9899 17.3227 20.0977 14.626 20.0977C11.9312 20.0977 8.57452 20.9899 6.18865 21.7632C4.20134 22.4068 1.6363 21.7687 0.828209 19.4779C0.278164 17.915 -0.00190033 16.2698 9.70407e-06 14.6129ZM14.626 1.81512C12.5791 1.81459 10.5619 2.30508 8.74366 3.24543C6.92547 4.18577 5.35936 5.54852 4.17678 7.21932C2.9942 8.89013 2.22965 10.8202 1.9473 12.8476C1.66494 14.875 1.87303 16.9406 2.55408 18.8709C2.92522 19.9222 4.24156 20.4725 5.62555 20.0227C8.03885 19.2439 11.6241 18.2694 14.626 18.2694C17.628 18.2694 21.2151 19.242 23.6265 20.0245C25.0105 20.4725 26.3269 19.9222 26.698 18.8709C27.3791 16.9406 27.5872 14.875 27.3048 12.8476C27.0225 10.8202 26.2579 8.89013 25.0753 7.21932C23.8927 5.54852 22.3266 4.18577 20.5084 3.24543C18.6902 2.30508 16.673 1.81459 14.626 1.81512Z" fill="#5F9B8C"/>
</svg>
