<svg width="17" height="16" viewBox="0 0 17 16" fill="none" xmlns="http://www.w3.org/2000/svg">
<path d="M0.796875 6.39062C0.796875 9.82812 3.59375 12.625 7.03125 12.625C8.39062 12.625 9.63281 12.1875 10.6562 11.4531L14.5 15.3047C14.6797 15.4844 14.9141 15.5703 15.1641 15.5703C15.6953 15.5703 16.0625 15.1719 16.0625 14.6484C16.0625 14.3984 15.9688 14.1719 15.8047 14.0078L11.9844 10.1641C12.7891 9.11719 13.2656 7.8125 13.2656 6.39062C13.2656 2.95312 10.4688 0.15625 7.03125 0.15625C3.59375 0.15625 0.796875 2.95312 0.796875 6.39062ZM2.13281 6.39062C2.13281 3.6875 4.32812 1.49219 7.03125 1.49219C9.73438 1.49219 11.9297 3.6875 11.9297 6.39062C11.9297 9.09375 9.73438 11.2891 7.03125 11.2891C4.32812 11.2891 2.13281 9.09375 2.13281 6.39062Z" fill="#5F9B8C"/>
</svg>
