<svg width="14" height="13" viewBox="0 0 14 13" fill="none" xmlns="http://www.w3.org/2000/svg">
<path d="M0.821289 8.72412C0.821289 10.6929 2.09863 12.3394 3.65137 12.3394H5.59082C6.3584 12.7437 7.2959 12.9897 8.34473 12.9897H9.15332C9.88574 12.9897 10.5186 12.9429 10.9346 12.8433C11.749 12.644 12.2529 12.0815 12.2529 11.3608C12.2529 11.2144 12.2295 11.0737 12.1826 10.939C12.5869 10.6401 12.8154 10.1948 12.8154 9.7085C12.8154 9.46826 12.7744 9.23389 12.6807 9.04053C12.9561 8.76514 13.1143 8.36084 13.1143 7.93311C13.1143 7.65771 13.0439 7.36475 12.9209 7.15381C13.0908 6.91357 13.1904 6.59131 13.1904 6.23389C13.1904 5.36084 12.5049 4.66943 11.6377 4.66943H9.41699C9.27637 4.66943 9.18262 4.60498 9.18262 4.48779C9.18262 3.84912 10.1846 2.3667 10.1846 1.17725C10.1846 0.368652 9.61621 -0.217285 8.83691 -0.217285C8.2627 -0.217285 7.88184 0.081543 7.50098 0.808105C6.78613 2.17334 5.93652 3.39209 4.54785 5.09131H3.42871C1.9873 5.09131 0.821289 6.72607 0.821289 8.72412ZM4.22559 8.69482C4.22559 7.4292 4.5127 6.62061 5.30957 5.5542C6.18848 4.37646 7.40723 2.96436 8.29199 1.2124C8.50879 0.76709 8.66113 0.66748 8.87207 0.66748C9.12402 0.66748 9.2998 0.849121 9.2998 1.17725C9.2998 2.12646 8.29785 3.56787 8.29785 4.48779C8.29785 5.1499 8.84863 5.5542 9.5459 5.5542H11.6377C12.0186 5.5542 12.3057 5.84717 12.3057 6.23389C12.3057 6.51514 12.2178 6.69678 11.9834 6.91943C11.8779 7.01904 11.8662 7.13623 11.9541 7.24756C12.1475 7.52881 12.2295 7.70459 12.2295 7.93311C12.2295 8.21436 12.1006 8.44873 11.8311 8.65381C11.6846 8.75928 11.626 8.91162 11.7139 9.09326C11.8604 9.36865 11.9307 9.49756 11.9307 9.7085C11.9307 10.0249 11.7314 10.2651 11.3096 10.4819C11.1748 10.5581 11.1455 10.6694 11.1982 10.7983C11.3447 11.1558 11.3682 11.2144 11.3682 11.3608C11.3682 11.6479 11.1572 11.8765 10.7236 11.9819C10.3779 12.0698 9.82715 12.1108 9.15918 12.105L8.35059 12.0933C5.89551 12.0698 4.22559 10.687 4.22559 8.69482ZM1.70605 8.72412C1.70605 7.2124 2.52637 5.97607 3.42871 5.97607H3.97363C3.53418 6.79639 3.34082 7.65186 3.34082 8.67725C3.34082 9.77881 3.73926 10.728 4.44824 11.4546H3.65137C2.61426 11.4546 1.70605 10.2065 1.70605 8.72412Z" fill="white"/>
</svg>
