<svg width="29" height="37" viewBox="0 0 29 37" fill="none" xmlns="http://www.w3.org/2000/svg">
<path d="M15.208 7.02945C16.8599 7.3262 18.1557 8.48846 18.6156 10.0761C18.7788 10.6399 18.7788 11.7725 18.6156 12.3363C18.1606 13.9239 16.8747 15.0812 15.2673 15.3631C14.7233 15.4571 14.3771 15.4571 13.833 15.3631C12.1267 15.0664 10.7716 13.7557 10.4106 12.0544C10.3017 11.545 10.3463 10.4866 10.4946 10.0217C11.0634 8.22633 12.5719 7.06407 14.4018 7.00472C14.7134 6.99483 15.0794 7.00472 15.208 7.02945Z" fill="#B46868"/>
<path d="M16.0932 16.0853C16.5829 16.1545 16.9835 16.2782 17.4484 16.5007C18.8926 17.1783 19.6245 18.0438 21.8205 21.6691C23.7197 24.7998 24.7533 26.2044 25.6782 26.882C25.9997 27.1194 26.2915 27.2331 26.7069 27.2826C27.1817 27.337 27.5032 27.4903 27.8346 27.8217C28.2302 28.2173 28.3638 28.5487 28.3687 29.1373C28.3737 29.5082 28.3539 29.5972 28.2203 29.8791C28.0275 30.2847 27.7208 30.5913 27.3103 30.7892C27.0086 30.9326 26.9542 30.9425 26.4448 30.9375C25.1688 30.9326 23.9323 30.3292 22.6464 29.0878C21.5336 28.0195 20.5395 26.699 19.2239 24.5377C18.9816 24.142 18.7689 23.8007 18.7442 23.7711C18.7244 23.7463 18.7046 25.1856 18.7046 26.971V30.2204L20.9649 30.2402C22.958 30.255 23.2696 30.2698 23.5515 30.349C24.5753 30.6309 25.2924 31.1848 25.6634 31.9811C25.792 32.2531 25.8018 32.3273 25.8018 32.8466C25.8018 33.3956 25.7969 33.4253 25.6238 33.7863C24.8671 35.369 22.5228 36.2147 17.9133 36.5658C16.8203 36.6499 12.28 36.6499 11.187 36.5658C8.43715 36.3581 6.6171 35.9921 5.23722 35.3739C3.99583 34.815 3.2688 33.8902 3.2688 32.8664C3.2688 32.4312 3.33309 32.174 3.53587 31.7833C3.77821 31.3282 4.21839 30.9227 4.76737 30.6556C5.58343 30.255 5.57354 30.26 8.13051 30.2402L10.3957 30.2204V26.971C10.3957 25.1856 10.3759 23.7463 10.3561 23.7711C10.3314 23.8007 10.1187 24.142 9.87638 24.5377C9.25321 25.5565 8.34813 26.8968 7.81893 27.5843C7.20565 28.3756 5.99887 29.5725 5.41032 29.9731C4.44095 30.6309 3.57543 30.9326 2.65552 30.9375C2.1461 30.9425 2.09169 30.9326 1.78011 30.7842C1.37455 30.5913 1.07781 30.2946 0.879974 29.8791C0.746437 29.5972 0.726654 29.5032 0.7316 29.1373C0.7316 28.613 0.860191 28.2569 1.18167 27.9008C1.54271 27.4953 1.85924 27.3419 2.49725 27.2628C2.91764 27.2035 3.26385 27.0402 3.64962 26.699C4.57448 25.8879 5.48946 24.6217 7.27983 21.6691C8.27889 20.0172 9.11967 18.7362 9.56974 18.1823C10.5243 17.0003 11.6668 16.293 12.9131 16.1051C13.4374 16.026 15.5937 16.0111 16.0932 16.0853Z" fill="#B46868"/>
<circle opacity="0.2" cx="15" cy="11" r="11" fill="#B46868"/>
</svg>
