<svg width="19" height="19" viewBox="0 0 19 19" fill="none" xmlns="http://www.w3.org/2000/svg">
<path d="M1.30553 0.0827484C0.8737 0.263514 0.401701 0.675257 0.200851 1.07696C0.0100425 1.45857 0 1.67951 0 7.2732V13.0778L0.230978 13.4494C0.502126 13.9013 1.0143 14.303 1.50638 14.4335C1.69719 14.4837 2.24953 14.5339 2.74161 14.5339H3.61531V16.1709C3.61531 17.9584 3.64544 18.0488 4.17769 18.0488C4.4388 18.0488 4.93088 17.7174 6.80883 16.2914L9.11861 14.544L12.8645 14.5139C16.9719 14.4837 16.8815 14.4938 17.5142 13.8611C18.0866 13.2987 18.0765 13.4192 18.0765 7.18281V1.42845L17.8456 1.02674C17.7251 0.815853 17.4238 0.494492 17.1928 0.323769L16.7509 0.0224934L9.15878 0.00240707C4.2982 -0.00763512 1.46621 0.0224934 1.30553 0.0827484ZM16.54 1.27781C16.7509 1.40836 16.8915 1.58913 16.9618 1.85023C17.1024 2.3624 17.1125 12.0334 16.9719 12.5455C16.9116 12.7464 16.7308 13.0276 16.5601 13.1682L16.2488 13.4293H12.4527H8.64662L6.70841 14.8955L4.7702 16.3617L4.71999 15.0059C4.68986 14.2528 4.6296 13.61 4.58943 13.5598C4.53922 13.5196 3.86637 13.4594 3.0931 13.4293L1.68714 13.3791L1.39591 13.0476L1.10468 12.7263V7.24307V1.75985L1.44612 1.4184L1.78757 1.07696H9.00815C15.9676 1.07696 16.2287 1.087 16.54 1.27781Z" fill="#666666"/>
<path d="M8.89931 4.04849C8.09784 4.26708 7.55443 4.88942 7.55139 5.58767C7.55139 5.90643 7.66675 6.21002 7.8823 6.45592C7.95212 6.53182 8.00677 6.60164 8.00677 6.61075C8.00677 6.61985 7.93998 6.66843 7.85801 6.72307C7.49978 6.95076 7.15977 7.42435 7.05048 7.84634C6.98369 8.10135 6.98369 8.50511 7.04744 8.75405C7.17191 9.23675 7.58175 9.74981 8.02195 9.9775C8.4075 10.1779 8.63519 10.2295 9.09967 10.2264C9.56416 10.2264 9.79792 10.1779 10.1561 10.0139C10.5751 9.82267 10.9212 9.52516 11.2399 9.07889C11.4555 8.77834 11.4646 8.78138 10.824 8.8937C9.63702 9.10318 8.91145 9.04853 8.57144 8.7328C8.35893 8.53547 8.28303 8.14992 8.38928 7.83723C8.45304 7.64901 8.65948 7.43953 8.88109 7.33631C9.02985 7.26649 9.09664 7.25738 9.34254 7.25435C9.59148 7.25435 9.67345 7.26953 9.9406 7.35756C10.1136 7.41525 10.2594 7.45471 10.2685 7.44864C10.317 7.40007 10.7299 6.21912 10.7056 6.19484C10.6905 6.17662 10.4688 6.18573 10.1258 6.21609C9.44272 6.27984 9.30611 6.27984 9.10271 6.21912C8.92056 6.16751 8.71716 5.99751 8.6534 5.85179C8.53197 5.55731 8.70501 5.20212 9.03896 5.05943C9.19378 4.99568 9.60969 5.00782 9.90417 5.08675C10.0377 5.12015 10.1774 5.15658 10.2169 5.16569L10.2837 5.18086V4.70727C10.2837 4.2519 10.2806 4.23368 10.2169 4.19118C9.9406 4.0151 9.28486 3.94224 8.89931 4.04849Z" fill="#666666"/>
</svg>
