<svg width="28" height="28" viewBox="0 0 28 28" fill="none" xmlns="http://www.w3.org/2000/svg">
<circle cx="14" cy="14" r="14" fill="#5F9B8C"/>
<path d="M22.625 13.9492C22.625 13.7051 22.5273 13.4805 22.332 13.2949L15.8574 6.83984C15.6426 6.625 15.4375 6.54688 15.2031 6.54688C14.7246 6.54688 14.3535 6.89844 14.3535 7.38672C14.3535 7.62109 14.4316 7.8457 14.5879 8.00195L16.7754 10.2285L20.0566 13.2266L17.7031 13.0801H5.34961C4.8418 13.0801 4.49023 13.4414 4.49023 13.9492C4.49023 14.457 4.8418 14.8184 5.34961 14.8184H17.7031L20.0664 14.6719L16.7754 17.6699L14.5879 19.8965C14.4316 20.043 14.3535 20.2773 14.3535 20.5117C14.3535 21 14.7246 21.3516 15.2031 21.3516C15.4375 21.3516 15.6426 21.2637 15.8379 21.0781L22.332 14.6035C22.5273 14.418 22.625 14.1934 22.625 13.9492Z" fill="white"/>
</svg>
