<svg width="28" height="28" viewBox="0 0 28 28" fill="none" xmlns="http://www.w3.org/2000/svg">
<circle cx="14" cy="14" r="14" fill="#EFEFEF"/>
<path d="M7.74414 20.209C8.07617 20.5508 8.65234 20.541 8.98438 20.209L13.9844 15.1992L18.9941 20.209C19.3262 20.541 19.8926 20.5508 20.2246 20.209C20.5762 19.8672 20.5664 19.3008 20.2246 18.9688L15.2246 13.959L20.2246 8.95898C20.5664 8.62695 20.5762 8.05078 20.2246 7.71875C19.8926 7.37695 19.3262 7.38672 18.9941 7.71875L13.9844 12.7285L8.98438 7.71875C8.65234 7.38672 8.07617 7.37695 7.74414 7.71875C7.40234 8.05078 7.41211 8.62695 7.74414 8.95898L12.7539 13.959L7.74414 18.9688C7.41211 19.3008 7.40234 19.8672 7.74414 20.209Z" fill="#A6A6A6"/>
</svg>
