<svg width="19" height="19" viewBox="0 0 19 19" fill="none" xmlns="http://www.w3.org/2000/svg">
<g clip-path="url(#clip0_15925_26359)">
<path d="M3.16667 4.75016H1.58333V15.8335C1.58333 16.7043 2.29583 17.4168 3.16667 17.4168H14.25V15.8335H3.16667V4.75016ZM15.8333 1.5835H6.33333C5.4625 1.5835 4.75 2.296 4.75 3.16683V12.6668C4.75 13.5377 5.4625 14.2502 6.33333 14.2502H15.8333C16.7042 14.2502 17.4167 13.5377 17.4167 12.6668V3.16683C17.4167 2.296 16.7042 1.5835 15.8333 1.5835ZM15.0417 8.7085H7.125V7.12516H15.0417V8.7085ZM11.875 11.8752H7.125V10.2918H11.875V11.8752ZM15.0417 5.54183H7.125V3.9585H15.0417V5.54183Z" fill="#5F9B8C"/>
</g>
<defs>
<clipPath id="clip0_15925_26359">
<rect width="19" height="19" fill="white"/>
</clipPath>
</defs>
</svg>
