<svg width="35" height="35" viewBox="0 0 35 35" fill="none" xmlns="http://www.w3.org/2000/svg">
<path d="M13.2619 0.00853729C12.1813 0.155891 11.8375 0.475159 10.9165 2.20657C9.87273 4.17129 9.89729 4.15901 7.41683 4.15901H5.4521L4.98548 4.51512C4.27327 5.05542 4.17503 5.4238 4.17503 7.51132C4.17503 9.84443 4.15048 9.89355 2.32083 10.8513C1.6209 11.2197 0.908684 11.6127 0.76133 11.7232C0.368385 12.0056 0 12.7792 0 13.3318C0 13.9089 0.135075 14.1914 1.06832 15.6895C2.12436 17.3595 2.12436 17.6051 1.06832 19.2751C0.122795 20.7855 0 21.0556 0 21.6696C0 22.6642 0.454342 23.1554 2.29627 24.1132C4.15048 25.071 4.17503 25.1079 4.17503 27.5146C4.17503 29.639 4.24871 29.8846 4.99776 30.4617C5.43982 30.8056 5.4521 30.8056 7.41683 30.8056C9.88501 30.8056 9.87273 30.7933 10.9042 32.7457C11.862 34.5385 12.255 34.9069 13.2864 34.9315C13.9741 34.956 14.2197 34.8455 15.6687 33.9123C16.7493 33.2246 16.9457 33.1387 17.4983 33.1387C18.0386 33.1387 18.2474 33.2246 19.2911 33.9C21.0348 35.0174 21.2067 35.0665 22.3119 34.8455C22.8276 34.7473 23.3556 34.1456 23.945 32.9545C24.645 31.5546 25.0379 31.0511 25.5782 30.8792C25.7993 30.8056 26.7448 30.7564 27.764 30.781C29.5322 30.8056 29.5568 30.8056 29.9866 30.474C30.7233 29.9091 30.8461 29.5039 30.8093 27.5146C30.7602 25.1324 30.8216 25.0342 32.7372 24.0764C34.0634 23.4133 34.5791 23.0081 34.8124 22.4309C35.1931 21.5222 35.0457 21.0188 33.8915 19.2505C32.86 17.6665 32.86 17.2981 33.916 15.6772C35.0089 14.0072 35.1808 13.3809 34.8247 12.5214C34.5791 11.9319 34.2353 11.6618 32.86 10.9619C30.797 9.90582 30.7602 9.8567 30.8093 7.44992C30.8461 5.46064 30.7233 5.05542 29.9866 4.49056C29.5568 4.15901 29.5322 4.15901 27.764 4.18357C26.7448 4.20813 25.7993 4.15901 25.5782 4.08533C25.0379 3.91342 24.645 3.40996 23.945 2.0101C23.3556 0.818985 22.8276 0.217289 22.3119 0.119053C21.2067 -0.101978 21.0348 -0.0528603 19.2911 1.06458C18.2474 1.73995 18.0386 1.8259 17.4983 1.8259C16.9457 1.8259 16.7493 1.73995 15.6687 1.04002C14.367 0.217289 13.7531 -0.0528603 13.2619 0.00853729Z" fill="#5F9B8C"/>
</svg>
