<svg width="512" height="512" viewBox="0 0 512 512" fill="none" xmlns="http://www.w3.org/2000/svg">
<g clip-path="url(#clip0_16222_7072)">
<path d="M174.2 13.1C171.8 14.3 169.1 16.4 168.2 17.8C167.3 19.2 160.6 37.5 153.4 58.4L140.2 96.5L101.9 97.3C80.7999 97.7 61.4999 98.3 58.9999 98.6C55.4999 99.1 53.5999 100.1 50.3999 103.4C42.9999 110.8 42.9999 110.9 56.3999 155.1C62.7999 176.1 67.9999 193.9 67.7999 194.6C67.5999 195.3 53.2999 206.6 35.9999 219.7C18.2999 233.1 3.5999 245 2.2999 246.9C-0.900098 251.6 -0.900098 260.4 2.2999 265.1C3.5999 267 18.2999 278.9 35.9999 292.3C53.2999 305.4 67.5999 316.7 67.7999 317.4C67.9999 318.1 62.7999 335.9 56.3999 356.9C42.9999 401.1 42.9999 401.2 50.3999 408.6C53.5999 411.9 55.4999 412.9 58.9999 413.4C61.4999 413.7 80.7999 414.3 101.9 414.7L140.3 415.5L153.4 453.6C160.6 474.5 167.3 492.8 168.2 494.2C170.3 497.4 177.6 501 181.8 501C183.6 501 186.5 500.4 188.3 499.6C190.1 498.9 206 488.1 223.8 475.7L256 453.1L289.6 476.5C310.5 491.1 324.4 500.2 326.5 500.6C333.9 502 341.5 498.3 344.9 491.8C346.1 489.4 352.6 471.3 359.4 451.5L371.8 415.5L410.1 414.7C431.2 414.3 450.5 413.7 453 413.4C456.5 412.9 458.4 411.9 461.6 408.6C469 401.2 469 401.1 455.6 356.9C449.2 335.9 444 318.1 444.2 317.4C444.4 316.7 458.7 305.4 476 292.3C493.7 278.9 508.4 267 509.7 265.1C512.9 260.4 512.9 251.6 509.7 246.9C508.4 245 493.7 233.1 476 219.7C458.7 206.6 444.4 195.3 444.2 194.6C444 193.9 449.2 176.1 455.6 155.1C469 110.9 469 110.8 461.6 103.4C458.4 100.1 456.5 99.1 453 98.6C450.5 98.3 431.2 97.7 410.1 97.3L371.8 96.5L358.9 59.1C351.8 38.5 345 20.2 343.9 18.4C341.6 14.6 334.8 11 330.2 11C328.4 11 325.5 11.6 323.7 12.4C321.9 13.1 306 23.9 288.3 36.3L256 58.9L223.8 36.3C206 23.9 190.1 13.1 188.3 12.4C183.7 10.4 179.2 10.7 174.2 13.1ZM339.7 137C346.1 140.9 348.5 148.2 345.4 154.2C344.3 156.1 308.6 206.2 266 265.5C216.7 334.1 187.4 374 185.5 375.2C174.7 381.8 160.7 368.9 166.6 357.8C167.7 355.9 203.4 305.8 246 246.5C295.3 177.9 324.6 138 326.5 136.8C330.4 134.5 335.7 134.5 339.7 137ZM208.3 144.8C219.9 150.6 229.7 163.4 233.4 177.7C235.4 185.5 235.5 200.8 233.5 208.5C229.6 223.2 220 235.9 208.4 241.6C203.1 244.2 201.5 244.5 193 244.5C184.1 244.5 183.1 244.3 177.2 241.1C170 237.2 161.8 228.8 157.7 221.3C153.8 214.1 151 202.1 151 193.1C151.1 156.9 181.2 131.5 208.3 144.8ZM334.6 270.8C341.5 274.3 350.1 282.9 354.3 290.7C362.5 306 363 328.5 355.5 344.4C342.1 372.8 311.9 379.3 291.8 358.2C281.8 347.7 277 335 277 318.8C277 294.9 288.9 275.4 307.5 268.7C315.3 265.9 326.8 266.8 334.6 270.8Z" fill="black"/>
<path d="M187.4 164.4C182.6 166.5 177.2 173.6 175 180.8C168.8 200.8 178.6 223 193.7 223C199.6 223 205.6 218.2 209.4 210.5C217.1 195 212 171 199.6 165.1C194.7 162.7 191.8 162.5 187.4 164.4Z" fill="black"/>
<path d="M309.8 292.3C307.1 294.3 304.4 297.8 302.5 301.5C299.7 307 299.5 308.1 299.5 318.4C299.5 328.2 299.8 330.1 302.1 335C309.1 350 321.4 353.2 331 342.3C343.4 328.2 340.6 299.4 326.1 291.2C320.3 287.9 315.1 288.3 309.8 292.3Z" fill="black"/>
</g>
<defs>
<clipPath id="clip0_16222_7072">
<rect width="512" height="512" fill="white"/>
</clipPath>
</defs>
</svg>
