<svg width="19" height="19" viewBox="0 0 19 19" fill="none" xmlns="http://www.w3.org/2000/svg">
<path d="M1.3173 0.131702C0.881577 0.314097 0.405323 0.729553 0.202661 1.13488C0.0101331 1.51993 0 1.74286 0 7.38698V13.2439L0.233061 13.6188C0.506654 14.0748 1.02344 14.4801 1.51996 14.6119C1.71249 14.6625 2.26981 14.7132 2.76633 14.7132H3.64791V16.3649C3.64791 18.1686 3.6783 18.2598 4.21536 18.2598C4.47882 18.2598 4.97534 17.9254 6.87022 16.4865L9.20083 14.7233L12.9805 14.6929C17.1249 14.6625 17.0337 14.6727 17.6721 14.0343C18.2497 13.4668 18.2395 13.5884 18.2395 7.29578V1.48953L18.0065 1.08421C17.8849 0.871416 17.5809 0.547158 17.3478 0.374896L16.902 0.0709034L9.24136 0.0506373C4.33695 0.0405042 1.47943 0.0709034 1.3173 0.131702ZM16.6892 1.33754C16.902 1.46927 17.0438 1.65166 17.1148 1.91512C17.2566 2.43191 17.2668 12.1901 17.1249 12.7068C17.0641 12.9095 16.8817 13.1932 16.7094 13.3351L16.3953 13.5986H12.565H8.72457L6.76889 15.078L4.81321 16.5574L4.76254 15.1894C4.73214 14.4295 4.67135 13.7809 4.63081 13.7303C4.58015 13.6898 3.90123 13.629 3.12099 13.5986L1.70236 13.5479L1.4085 13.2135L1.11464 12.8892V7.35658V1.82392L1.45916 1.4794L1.80369 1.13488H9.08936C16.1116 1.13488 16.375 1.14501 16.6892 1.33754Z" fill="#5F9B8C"/>
<path d="M9.29972 5.7169L7.11098 10.9699C7.07206 11.0736 7.0137 11.1547 6.93588 11.2131C6.85805 11.2714 6.7705 11.3006 6.67323 11.3006C6.53055 11.3006 6.42355 11.2617 6.35221 11.1839C6.28087 11.0996 6.24196 10.9958 6.23548 10.8726C6.23548 10.8272 6.24521 10.7753 6.26466 10.717L8.73551 4.74413C8.78091 4.63388 8.84576 4.54957 8.93006 4.49121C9.02086 4.43284 9.11813 4.4069 9.2219 4.41338C9.31917 4.41338 9.40997 4.44257 9.49427 4.50093C9.57858 4.5593 9.64019 4.64036 9.6791 4.74413L12.1208 10.6294C12.1467 10.6943 12.1597 10.7591 12.1597 10.824C12.1597 10.9666 12.111 11.0834 12.0138 11.1742C11.923 11.2585 11.8192 11.3006 11.7025 11.3006C11.6052 11.3006 11.5144 11.2714 11.4301 11.2131C11.3523 11.1482 11.2939 11.0672 11.255 10.9699L9.0468 5.74609L9.29972 5.7169ZM7.50009 9.58855L7.93783 8.65468H10.6908L10.8562 9.58855H7.50009Z" fill="#5F9B8C"/>
</svg>
