<svg width="12" height="12" viewBox="0 0 12 12" fill="none" xmlns="http://www.w3.org/2000/svg">
<path d="M11.1191 1.46484L11.541 1.03125C11.7402 0.820312 11.7402 0.539062 11.541 0.345703L11.4062 0.205078C11.2246 0.0234375 10.9375 0.046875 10.7441 0.234375L10.3164 0.65625L11.1191 1.46484ZM4.07031 7.85742L5.21289 7.35938L10.6855 1.89258L9.88281 1.10156L4.41602 6.56836L3.88867 7.66992C3.8418 7.76953 3.95898 7.9043 4.07031 7.85742ZM1.9375 11.6543H8.81641C9.87109 11.6543 10.4805 11.0449 10.4805 9.83789V3.57422L9.53711 4.51758V9.79102C9.53711 10.4004 9.20898 10.7109 8.80469 10.7109H1.95508C1.36914 10.7109 1.04102 10.4004 1.04102 9.79102V3.14062C1.04102 2.53125 1.36914 2.21484 1.95508 2.21484H7.29297L8.23633 1.27148H1.9375C0.71875 1.27148 0.0976562 1.88086 0.0976562 3.08789V9.83789C0.0976562 11.0508 0.71875 11.6543 1.9375 11.6543Z" fill="#5F9B8C"/>
</svg>
