<svg width="23" height="22" viewBox="0 0 23 22" fill="none" xmlns="http://www.w3.org/2000/svg">
<path d="M8.07137 8.50342C7.35333 7.37019 6.92881 6.04135 6.90262 5.17437V5.10501C6.90262 2.33836 8.7256 0.75 10.5005 0.75C12.2787 0.75 14.1413 2.36591 14.1424 5.1027C14.1365 5.96808 13.7083 7.33954 12.9715 8.50376C12.2118 9.70426 11.318 10.3907 10.5231 10.3907C9.72728 10.3907 8.83191 9.70371 8.07137 8.50342Z" stroke="#666666" stroke-width="1.5"/>
<path d="M18.0017 12.75L18.002 12L18.002 12.75C18.6075 12.75 19.1997 12.8794 19.7417 13.1228H19.0901H16.9525H16.2599C16.8025 12.8791 17.3955 12.7498 18.0017 12.75ZM19.8401 13.8728V13.1686C20.268 13.374 20.6623 13.6517 21.0044 13.9937C21.8009 14.79 22.2489 15.8702 22.25 16.997C22.25 17.6272 22.1102 18.243 21.8478 18.8028V18.0553V15.9569V15.2069H21.0978H19.8401V13.8728ZM21.0978 18.8053H21.8467C21.6396 19.2466 21.3562 19.6531 21.005 20.0045C20.208 20.802 19.127 21.25 18 21.25C16.873 21.25 15.792 20.802 14.995 20.0045C14.6438 19.6531 14.3604 19.2466 14.1533 18.8053H14.8656H16.2025V20.0418V20.7918H16.9525H19.0901H19.8401V20.0418V18.8053H21.0978ZM14.1156 18.0553V18.7227C13.8769 18.1846 13.7501 17.5976 13.75 16.9974C13.7508 16.399 13.8776 15.8138 14.1156 15.2773V15.9569V18.0553ZM14.8656 15.2069H14.1476C14.3557 14.7598 14.6419 14.3482 14.9974 13.9931C15.3504 13.6404 15.759 13.3563 16.2025 13.1491V13.8728V15.2069H14.8656Z" stroke="#666666" stroke-width="1.5"/>
<path d="M10.0541 13.0574L9.9804 13.8038L10.0563 13.8113L10.1321 13.8033L10.0541 13.0574ZM10.0541 13.0574C10.1321 13.8033 10.1322 13.8033 10.1323 13.8033L10.1326 13.8033L10.1333 13.8032L10.1352 13.803L10.1411 13.8024L10.1613 13.8001C10.1785 13.7981 10.2028 13.7953 10.2337 13.7915C10.2955 13.7838 10.3838 13.7723 10.4935 13.7562C10.7128 13.7241 11.0197 13.6738 11.3744 13.6003C11.4403 13.5866 11.5083 13.5721 11.578 13.5566M10.0541 13.0574C9.9804 13.8038 9.98025 13.8037 9.98009 13.8037L9.9797 13.8037L9.97867 13.8036L9.9756 13.8033L9.96552 13.8022L9.93012 13.7984C9.89994 13.7951 9.8568 13.7901 9.80224 13.7833C9.69319 13.7698 9.53813 13.7489 9.34942 13.7193C8.97324 13.6602 8.45736 13.5653 7.90282 13.4219C7.35132 13.2793 6.74248 13.0837 6.18859 12.8176C5.76623 12.6146 5.33712 12.3525 4.99153 12.01C3.09447 12.1566 2.03871 13.5814 1.42788 15.2551C1.1101 16.1259 0.939066 17.0069 0.848245 17.6772C0.832781 17.7913 0.819711 17.8988 0.808671 17.9985H11.1768C11.0094 17.4412 10.9236 16.8603 10.924 16.2741M11.578 13.5566L10.924 16.2741M11.578 13.5566C11.1602 14.3709 10.9241 15.2951 10.924 16.2741M11.578 13.5566L10.924 16.2741" stroke="#666666" stroke-width="1.5"/>
</svg>
