<svg width="35" height="35" viewBox="0 0 35 35" fill="none" xmlns="http://www.w3.org/2000/svg">
<path d="M15.7674 35.0045C7.09532 35.0045 0 27.9092 0 19.2371C0 10.5651 7.09532 3.46973 15.7674 3.46973C24.4395 3.46973 31.5348 10.5651 31.5348 19.2371C31.5348 27.9092 24.4395 35.0045 15.7674 35.0045ZM15.7674 6.09763C8.51439 6.09763 2.6279 11.9841 2.6279 19.2371C2.6279 26.4901 8.51439 32.3766 15.7674 32.3766C23.0204 32.3766 28.9069 26.4901 28.9069 19.2371C28.9069 11.9841 23.0204 6.09763 15.7674 6.09763Z" fill="#B46868"/>
<path d="M15.768 28.4343C10.7224 28.4343 6.57031 24.2823 6.57031 19.2367C6.57031 14.1911 10.7224 10.0391 15.768 10.0391C20.8135 10.0391 24.9656 14.1911 24.9656 19.2367C24.9656 24.2823 20.8135 28.4343 15.768 28.4343ZM15.768 12.667C12.1415 12.667 9.19821 15.6102 9.19821 19.2367C9.19821 22.8632 12.1415 25.8065 15.768 25.8065C19.3945 25.8065 22.3377 22.8632 22.3377 19.2367C22.3377 15.6102 19.3945 12.667 15.768 12.667Z" fill="#B46868"/>
<path d="M13.7139 17.9223L20.9669 10.6693V8.46183L29.4287 0V5.57115H34.9998L26.538 14.033H24.3306L17.0776 21.286L13.7139 17.9223Z" fill="white"/>
<path d="M31.1658 7.14789H27.8547V3.78418L22.5463 9.09253V11.3525L15.9766 17.9223L17.0803 19.026L23.65 12.4562H25.91L31.1658 7.14789Z" fill="#B46868"/>
<path d="M15.7685 21.8652C17.2199 21.8652 18.3964 20.6886 18.3964 19.2373C18.3964 17.7859 17.2199 16.6094 15.7685 16.6094C14.3172 16.6094 13.1406 17.7859 13.1406 19.2373C13.1406 20.6886 14.3172 21.8652 15.7685 21.8652Z" fill="#B46868"/>
</svg>
