<svg width="20" height="19" viewBox="0 0 20 19" fill="none" xmlns="http://www.w3.org/2000/svg">
<path d="M2.2672 0.0827478C1.83537 0.263513 1.36337 0.675257 1.16252 1.07696C0.971712 1.45857 0.96167 1.67951 0.96167 7.2732V13.0778L1.19265 13.4494C1.4638 13.9013 1.97597 14.303 2.46805 14.4335C2.65886 14.4837 3.2112 14.5339 3.70328 14.5339H4.57698V16.1709C4.57698 17.9584 4.60711 18.0488 5.13936 18.0488C5.40047 18.0488 5.89255 17.7174 7.7705 16.2914L10.0803 14.544L13.8261 14.5139C17.9335 14.4837 17.8432 14.4938 18.4758 13.8611C19.0483 13.2987 19.0382 13.4192 19.0382 7.18281V1.42845L18.8072 1.02675C18.6867 0.815852 18.3855 0.494491 18.1545 0.323768L17.7126 0.0224926L10.1205 0.00240754C5.25987 -0.00763499 2.42788 0.0224926 2.2672 0.0827478ZM17.5017 1.27781C17.7126 1.40836 17.8532 1.58913 17.9235 1.85023C18.0641 2.3624 18.0741 12.0334 17.9335 12.5455C17.8733 12.7464 17.6925 13.0276 17.5218 13.1682L17.2105 13.4293H13.4144H9.60828L7.67008 14.8955L5.73187 16.3617L5.68166 15.0059C5.65153 14.2528 5.59127 13.61 5.5511 13.5598C5.50089 13.5196 4.82804 13.4594 4.05477 13.4293L2.64881 13.3791L2.35758 13.0476L2.06635 12.7263V7.24307V1.75985L2.40779 1.4184L2.74924 1.07696H9.96982C16.9293 1.07696 17.1904 1.087 17.5017 1.27781Z" fill="#5F9B8C"/>
<path d="M8.15279 3.72736C8.15279 3.73238 8.10851 3.74368 8.05537 3.75121C8.00097 3.76 7.90608 3.78008 7.84408 3.79891C7.7125 3.83657 7.46452 3.95582 7.37596 4.02236C7.3418 4.04872 7.29752 4.07885 7.27854 4.08889C7.2583 4.09893 7.24185 4.11274 7.24185 4.11902C7.24185 4.12655 7.21781 4.14914 7.18871 4.16923C7.1419 4.20312 7.04827 4.30229 6.94073 4.43284C6.89645 4.48682 6.81168 4.62616 6.81168 4.64499C6.81168 4.65252 6.80662 4.6588 6.79903 4.6588C6.79144 4.6588 6.78638 4.71278 6.78638 4.79689C6.78638 4.87346 6.79144 4.93497 6.79776 4.93497C6.80409 4.93497 6.81674 4.95506 6.82433 4.97891C6.83192 5.0015 6.85976 5.03916 6.88506 5.0605C6.91037 5.08184 6.94073 5.10695 6.95085 5.11574C7.00273 5.16218 7.17859 5.17976 7.27474 5.14837C7.338 5.12703 7.43922 5.04167 7.46959 4.98267C7.49868 4.92995 7.61888 4.78559 7.68973 4.72157C7.78715 4.63244 7.91367 4.55963 8.03386 4.52072C8.09965 4.50063 8.16291 4.48306 8.17557 4.48306C8.18822 4.48306 8.20467 4.47678 8.21352 4.46799C8.2325 4.44916 8.5488 4.44791 8.57284 4.46674C8.5817 4.47427 8.61965 4.48682 8.65634 4.49436C8.74111 4.51193 8.92457 4.58223 8.92457 4.59729C8.92457 4.60357 8.94734 4.61989 8.97517 4.6337C9.08778 4.69144 9.27756 4.90108 9.33322 5.03037C9.34841 5.06427 9.36359 5.0944 9.36865 5.09816C9.37877 5.10569 9.4104 5.20737 9.43191 5.29901C9.45595 5.40069 9.45215 5.62539 9.42558 5.74339C9.36992 5.98441 9.16875 6.27188 8.9777 6.38109C8.94481 6.39992 8.91065 6.42126 8.90179 6.4288C8.84612 6.47775 8.62977 6.53801 8.47036 6.54931C8.40963 6.55433 8.32992 6.56688 8.2907 6.57943C8.21858 6.60203 8.11484 6.65977 8.11484 6.67735C8.11484 6.68237 8.10092 6.70246 8.08321 6.72254C8.00097 6.81794 8.00097 7.0439 8.08321 7.13931C8.10092 7.15939 8.11484 7.17948 8.11484 7.1845C8.11484 7.20207 8.21858 7.25982 8.2907 7.28241C8.32992 7.29496 8.40963 7.30752 8.47036 7.31254C8.62724 7.32384 8.87269 7.39162 8.89926 7.43179C8.90306 7.43807 8.9271 7.45313 8.95493 7.46694C9.01819 7.49958 9.14344 7.60879 9.21809 7.69792C9.29653 7.79207 9.39775 7.99669 9.42558 8.11845C9.45215 8.23645 9.45595 8.46115 9.43191 8.56283C9.41167 8.65196 9.37877 8.75615 9.36865 8.76368C9.36485 8.76745 9.33955 8.8139 9.31172 8.86788C9.27503 8.94194 9.2358 8.99341 9.14724 9.08253C9.08398 9.14781 9.01186 9.20932 8.98783 9.22187C8.96379 9.23443 8.93216 9.25451 8.91824 9.26707C8.88787 9.29343 8.75882 9.34364 8.65887 9.36624C8.62092 9.37502 8.5817 9.38758 8.57284 9.39511C8.5488 9.41394 8.2325 9.41268 8.21352 9.39385C8.20467 9.38507 8.18822 9.37879 8.17557 9.37879C8.16291 9.37879 8.09965 9.36121 8.03386 9.34113C7.91367 9.30221 7.79095 9.23066 7.68973 9.14028C7.61888 9.07626 7.49868 8.9319 7.46959 8.87792C7.44428 8.82771 7.33927 8.74234 7.26968 8.71473C7.21275 8.69088 7.02676 8.70092 6.98628 8.72979C6.9711 8.74234 6.93694 8.76494 6.91163 8.78251C6.8838 8.80009 6.84837 8.84277 6.8256 8.88419C6.78891 8.95073 6.78638 8.96579 6.78638 9.08002C6.78638 9.15409 6.79144 9.20304 6.79903 9.20304C6.80662 9.20304 6.81168 9.20932 6.81168 9.21685C6.81168 9.23945 6.90024 9.38004 6.94706 9.43277C6.96983 9.45787 6.98881 9.48298 6.98881 9.48926C6.99007 9.50055 7.14316 9.65621 7.21908 9.72149C7.44049 9.91355 7.77576 10.0692 8.05537 10.1106C8.10851 10.1182 8.15279 10.1295 8.15279 10.1345C8.15279 10.1483 8.62471 10.147 8.64116 10.1345C8.64749 10.1282 8.69556 10.1157 8.74744 10.1069C9.04729 10.0567 9.3231 9.92234 9.60145 9.69136C9.6432 9.65747 9.68242 9.61855 9.69001 9.606C9.69634 9.59219 9.72417 9.56332 9.75074 9.54072C9.77604 9.51938 9.79755 9.49553 9.79755 9.48926C9.79755 9.48172 9.81906 9.45034 9.8469 9.4177C9.87347 9.38632 9.91395 9.32607 9.93799 9.28464C9.96076 9.24321 9.9848 9.20807 9.98986 9.20556C9.99492 9.20304 10.0215 9.14153 10.0506 9.06747C10.0797 8.99341 10.1075 8.92185 10.1139 8.90805C10.1746 8.76996 10.21 8.4373 10.1885 8.19503C10.1746 8.02681 10.1467 7.87492 10.1202 7.81592C10.1101 7.79458 10.0848 7.73307 10.0645 7.67784C10.043 7.62135 10.0088 7.54979 9.98733 7.51716C9.96709 7.48452 9.94938 7.45439 9.94938 7.45062C9.94938 7.44686 9.93293 7.4205 9.91395 7.39162C9.89371 7.36275 9.87347 7.33137 9.8684 7.32258C9.86081 7.31128 10.0354 7.30752 10.7199 7.30752H11.5802L11.584 8.59045L11.5878 9.87464L11.622 9.94494C11.6599 10.0203 11.7257 10.0805 11.8004 10.1069C11.8257 10.1169 11.8472 10.1295 11.8472 10.1345C11.8472 10.1395 11.8927 10.1445 11.9484 10.1445C12.0332 10.1445 12.0585 10.1395 12.1091 10.1119C12.2128 10.0554 12.2445 10.0253 12.2875 9.94117L12.328 9.85957V7.15186V4.4454H12.6291C12.9783 4.4454 13.0213 4.43661 13.1048 4.3525C13.1908 4.26589 13.2136 4.2094 13.2136 4.0801C13.2136 3.98219 13.2098 3.9621 13.182 3.91817C13.1643 3.89055 13.1503 3.86419 13.1503 3.85791C13.1503 3.84034 13.1111 3.81021 13.0263 3.76251L12.9454 3.71731H11.9471C11.398 3.71731 10.9489 3.72234 10.9489 3.72736C10.9489 3.73238 10.9299 3.74368 10.9071 3.75246C10.773 3.80017 10.6933 3.91817 10.692 4.07131C10.6908 4.19936 10.711 4.25585 10.7819 4.33116C10.8818 4.43661 10.9185 4.4454 11.2778 4.4454H11.5815V5.49986V6.55433H10.7211H9.85955L9.9051 6.48529C9.92913 6.44637 9.94938 6.41248 9.94938 6.40746C9.94938 6.40369 9.96329 6.38235 9.97974 6.35975C10.0076 6.32335 10.0759 6.17522 10.0759 6.15012C10.0759 6.1451 10.0873 6.11622 10.0999 6.0861C10.1379 6.00073 10.1518 5.95303 10.1721 5.81997C10.2151 5.54631 10.186 5.10569 10.1139 4.9538C10.1075 4.93999 10.0797 4.86844 10.0506 4.79438C10.0215 4.72031 9.99492 4.6588 9.9886 4.65629C9.98354 4.65378 9.95823 4.61487 9.93293 4.56967C9.90763 4.52448 9.86714 4.46423 9.8431 4.43787C9.8178 4.4115 9.79755 4.38389 9.79755 4.37636C9.79755 4.37008 9.77098 4.3387 9.73809 4.30731C9.70393 4.27593 9.66471 4.23702 9.64952 4.21944C9.63434 4.20187 9.59259 4.16421 9.55463 4.13408C9.2978 3.92695 9.0359 3.80393 8.74744 3.75497C8.69556 3.74619 8.64749 3.73363 8.6399 3.72736C8.62471 3.7148 8.15279 3.71355 8.15279 3.72736Z" fill="#5F9B8C"/>
</svg>
