<svg width="28" height="23" viewBox="0 0 28 23" fill="none" xmlns="http://www.w3.org/2000/svg">
<path d="M22.7694 13.8078L14.2132 4.30089C13.8529 3.8997 13.1608 3.8997 12.8005 4.30089L4.24431 13.8078C4.12116 13.9443 4.04032 14.1137 4.01163 14.2953C3.98293 14.4769 4.00762 14.6629 4.08269 14.8307C4.2348 15.1739 4.57515 15.3945 4.95067 15.3945H6.85205V22.0493C6.85205 22.3014 6.95221 22.5433 7.1305 22.7215C7.30879 22.8998 7.5506 23 7.80274 23H10.6548C10.9069 23 11.1488 22.8998 11.327 22.7215C11.5053 22.5433 11.6055 22.3014 11.6055 22.0493V18.2466H15.4083V22.0493C15.4083 22.3014 15.5084 22.5433 15.6867 22.7215C15.865 22.8998 16.1068 23 16.3589 23H19.211C19.4632 23 19.705 22.8998 19.8833 22.7215C20.0615 22.5433 20.1617 22.3014 20.1617 22.0493V15.3945H22.0631C22.2472 15.3953 22.4276 15.3425 22.5822 15.2425C22.7368 15.1426 22.859 14.9998 22.9339 14.8316C23.0088 14.6634 23.0331 14.477 23.0039 14.2952C22.9747 14.1134 22.8932 13.9441 22.7694 13.8078Z" fill="#5F9B8C"/>
<path d="M0 0H28V0C28 1.10457 27.1046 2 26 2H2C0.895431 2 0 1.10457 0 0V0Z" fill="#5F9B8C"/>
</svg>
