<svg width="21" height="21" viewBox="0 0 21 21" fill="none" xmlns="http://www.w3.org/2000/svg">
<path d="M19.7694 10.8078L11.2132 1.30089C10.8529 0.899702 10.1608 0.899702 9.80051 1.30089L1.24431 10.8078C1.12116 10.9443 1.04032 11.1137 1.01163 11.2953C0.982933 11.4769 1.00762 11.6629 1.08269 11.8307C1.2348 12.1739 1.57515 12.3945 1.95067 12.3945H3.85205V19.0493C3.85205 19.3014 3.95221 19.5433 4.1305 19.7216C4.30879 19.8998 4.5506 20 4.80274 20H7.65481C7.90695 20 8.14876 19.8998 8.32705 19.7216C8.50534 19.5433 8.6055 19.3014 8.6055 19.0493V15.2466H12.4083V19.0493C12.4083 19.3014 12.5084 19.5433 12.6867 19.7216C12.865 19.8998 13.1068 20 13.3589 20H16.211C16.4632 20 16.705 19.8998 16.8833 19.7216C17.0615 19.5433 17.1617 19.3014 17.1617 19.0493V12.3945H19.0631C19.2472 12.3953 19.4276 12.3425 19.5822 12.2425C19.7368 12.1426 19.859 11.9998 19.9339 11.8316C20.0088 11.6634 20.0331 11.477 20.0039 11.2952C19.9747 11.1134 19.8932 10.9441 19.7694 10.8078V10.8078Z" stroke="#666666" stroke-width="1.5"/>
</svg>
