<svg width="31" height="15" viewBox="0 0 31 15" fill="none" xmlns="http://www.w3.org/2000/svg">
<path d="M15.5078 7.28125C17.1875 7.28125 18.6328 5.78125 18.6328 3.82812C18.6328 1.89844 17.1797 0.46875 15.5078 0.46875C13.8438 0.46875 12.3828 1.92969 12.3906 3.84375C12.3906 5.78125 13.8359 7.28125 15.5078 7.28125ZM6.5 7.46094C7.96094 7.46094 9.21875 6.14844 9.21875 4.45312C9.21875 2.77344 7.95312 1.53125 6.5 1.53125C5.05469 1.53125 3.77344 2.80469 3.78125 4.46875C3.78125 6.14844 5.04688 7.46094 6.5 7.46094ZM24.4922 7.46094C25.9531 7.46094 27.2188 6.14844 27.2188 4.46875C27.2188 2.80469 25.9453 1.53125 24.4922 1.53125C23.0469 1.53125 21.7734 2.77344 21.7734 4.45312C21.7734 6.14844 23.0391 7.46094 24.4922 7.46094ZM2.14844 14.5156H8.07812C7.26562 13.3359 8.25781 10.9609 9.94531 9.66406C9.07031 9.08594 7.95312 8.65625 6.5 8.65625C2.97656 8.65625 0.773438 11.2578 0.773438 13.4219C0.773438 14.125 1.15625 14.5156 2.14844 14.5156ZM28.8516 14.5156C29.8438 14.5156 30.2266 14.125 30.2266 13.4219C30.2266 11.2578 28.0234 8.65625 24.5 8.65625C23.0391 8.65625 21.9219 9.08594 21.0547 9.66406C22.7344 10.9609 23.7266 13.3359 22.9141 14.5156H28.8516ZM10.6016 14.5156H20.4141C21.6406 14.5156 22.0781 14.1641 22.0781 13.4766C22.0781 11.4609 19.5547 8.67969 15.5078 8.67969C11.4531 8.67969 8.92969 11.4609 8.92969 13.4766C8.92969 14.1641 9.36719 14.5156 10.6016 14.5156Z" fill="#5F9B8C"/>
</svg>
