<svg width="33" height="33" viewBox="0 0 33 33" fill="none" xmlns="http://www.w3.org/2000/svg">
<g clip-path="url(#clip0_16224_23565)">
<path d="M15.4691 0.122461C14.2767 0.50918 13.413 1.38574 13.0585 2.57168C12.9232 3.03574 12.9232 4.0541 13.0585 4.51816C13.4066 5.67832 14.238 6.54844 15.3982 6.9416C15.7269 7.05117 15.9718 7.08984 16.4746 7.08984C17.538 7.08984 18.305 6.78047 19.0205 6.06504C19.7294 5.35605 20.0453 4.58262 20.0453 3.54492C20.0453 2.50723 19.7294 1.73379 19.0205 1.0248C18.5757 0.580078 18.0794 0.283594 17.4736 0.103125C16.9902 -0.038672 15.9396 -0.0322266 15.4691 0.122461Z" fill="#B46868"/>
<path d="M11.7631 7.87656C11.2732 8.3793 11.1314 8.57266 10.8801 9.08828C10.4611 9.94551 10.3773 10.3902 10.3773 11.776C10.3773 13.0393 10.4096 13.1488 10.8027 13.4131C10.9767 13.5291 11.1443 13.5355 13.2648 13.5355H15.5336V15.5916V17.6477L15.1662 17.8281C14.3928 18.202 13.7031 19.1494 13.6193 19.9422L13.5807 20.2902L11.9629 20.7865C11.0734 21.0637 10.1389 21.3537 9.88104 21.4375L9.41698 21.5793L9.17206 21.1604C8.74022 20.4127 7.97323 19.8326 7.09667 19.5684C6.58749 19.4201 5.60135 19.433 5.08573 19.5941C3.96425 19.9357 3.11346 20.7801 2.72675 21.908C2.53339 22.4816 2.5205 23.4613 2.70741 24.0479C3.04901 25.1693 3.89335 26.0201 5.02128 26.4068C5.62069 26.6131 6.62616 26.6131 7.22557 26.4068C8.36639 26.0201 9.20428 25.1629 9.54589 24.0285C9.66835 23.6418 9.70057 23.5838 9.88104 23.5322C9.99706 23.5064 10.9961 23.1971 12.1047 22.849L14.1156 22.2238L14.4701 22.5525C14.6699 22.7266 15.0244 22.9715 15.2629 23.0875C15.6818 23.2938 15.7141 23.3002 16.5004 23.3002C17.2803 23.3002 17.3189 23.2938 17.7379 23.0875C17.9764 22.9715 18.3308 22.733 18.5307 22.5525L18.8851 22.2238L20.9025 22.849C22.0047 23.1971 23.0037 23.5064 23.1197 23.5387C23.3002 23.5838 23.3324 23.6418 23.4549 24.0285C23.7965 25.1629 24.6344 26.0201 25.7752 26.4068C26.3746 26.6131 27.3801 26.6131 27.9795 26.4068C29.1074 26.0201 29.9517 25.1693 30.2933 24.0479C30.4803 23.4613 30.4674 22.4816 30.274 21.908C29.8808 20.7479 29.0107 19.9164 27.8506 19.5684C27.3414 19.4201 26.3553 19.433 25.8396 19.5941C24.9953 19.852 24.2476 20.4385 23.8158 21.1732L23.5838 21.5729L22.5719 21.2635C22.0176 21.0895 21.0765 20.7994 20.49 20.6189L19.4201 20.2902L19.3814 19.9422C19.2976 19.1494 18.608 18.202 17.841 17.8281L17.4672 17.6477V15.5916V13.5355H19.7424C21.8564 13.5355 22.024 13.5291 22.198 13.4131C22.5912 13.1488 22.6234 13.0393 22.6234 11.776C22.6234 10.3967 22.5396 9.94551 22.1271 9.10117C21.9016 8.63711 21.7146 8.37285 21.3344 7.97324C20.5803 7.18047 20.6254 7.18691 19.968 7.71543C17.8603 9.4041 15.1404 9.4041 13.0392 7.72188C12.7428 7.47695 12.4656 7.28359 12.4269 7.28359C12.3883 7.28359 12.0918 7.5543 11.7631 7.87656Z" fill="#B46868"/>
<path d="M1.38574 27.341C0.895898 27.8438 0.754102 28.0371 0.502734 28.5527C0.0837891 29.41 0 29.8547 0 31.2404C0 32.5037 0.0322266 32.6133 0.425391 32.8775C0.605859 32.9936 0.831445 33 6.12305 33C11.4146 33 11.6402 32.9936 11.8207 32.8775C12.2139 32.6133 12.2461 32.5037 12.2461 31.2404C12.2461 29.8611 12.1623 29.41 11.7498 28.5656C11.5242 28.1016 11.3373 27.8373 10.957 27.4377C10.2029 26.6449 10.248 26.6514 9.59062 27.1799C7.48301 28.8686 4.76309 28.8686 2.66191 27.1863C2.36543 26.9414 2.08828 26.748 2.04961 26.748C2.01094 26.748 1.71445 27.0188 1.38574 27.341Z" fill="#B46868"/>
<path d="M22.1396 27.341C21.6498 27.8438 21.508 28.0371 21.2566 28.5527C20.8377 29.41 20.7539 29.8547 20.7539 31.2404C20.7539 32.5037 20.7861 32.6133 21.1793 32.8775C21.3598 32.9936 21.5854 33 26.877 33C32.1686 33 32.3941 32.9936 32.5746 32.8775C32.9678 32.6133 33 32.5037 33 31.2404C33 29.8611 32.9162 29.41 32.5037 28.5656C32.2781 28.1016 32.0912 27.8373 31.7109 27.4377C30.9568 26.6449 31.002 26.6514 30.3445 27.1799C28.2369 28.8686 25.517 28.8686 23.4158 27.1863C23.1193 26.9414 22.8422 26.748 22.8035 26.748C22.7648 26.748 22.4684 27.0188 22.1396 27.341Z" fill="#B46868"/>
</g>
<defs>
<clipPath id="clip0_16224_23565">
<rect width="33" height="33" fill="white"/>
</clipPath>
</defs>
</svg>
