<svg width="44" height="36" viewBox="0 0 44 36" fill="none" xmlns="http://www.w3.org/2000/svg">
<rect opacity="0.3" y="16" width="11" height="17" rx="1" fill="#B46868"/>
<rect opacity="0.3" x="33" y="16" width="11" height="17" rx="1" fill="#B46868"/>
<rect x="13" y="12" width="18" height="24" rx="2" fill="#B46868"/>
<path d="M19.7695 8.56641H20.6172C20.6953 8.56641 20.7539 8.58984 20.8125 8.64844L21.4141 9.24609C21.9062 9.74219 22.3633 9.73828 22.8555 9.24609L23.457 8.64844C23.5195 8.58984 23.5742 8.56641 23.6562 8.56641H24.5C25.1992 8.56641 25.5234 8.24609 25.5234 7.54297V6.69922C25.5234 6.61719 25.5469 6.5625 25.6055 6.5L26.2031 5.89844C26.6992 5.40625 26.6953 4.94922 26.2031 4.45703L25.6055 3.85547C25.5469 3.79688 25.5234 3.73828 25.5234 3.66016V2.8125C25.5234 2.11719 25.2031 1.78906 24.5 1.78906H23.6562C23.5742 1.78906 23.5195 1.76953 23.457 1.71094L22.8555 1.11328C22.3633 0.617188 21.9062 0.621094 21.4141 1.11328L20.8125 1.71094C20.7539 1.76953 20.6953 1.78906 20.6172 1.78906H19.7695C19.0703 1.78906 18.7461 2.10938 18.7461 2.8125V3.66016C18.7461 3.73828 18.7266 3.79688 18.668 3.85547L18.0703 4.45703C17.5742 4.94922 17.5781 5.40625 18.0703 5.89844L18.668 6.5C18.7266 6.5625 18.7461 6.61719 18.7461 6.69922V7.54297C18.7461 8.24219 19.0703 8.56641 19.7695 8.56641ZM21.6992 7.08594C21.5664 7.08594 21.457 7.03516 21.3555 6.89844L20.375 5.69531C20.3164 5.61719 20.2812 5.52734 20.2812 5.44141C20.2812 5.26172 20.418 5.11719 20.5977 5.11719C20.707 5.11719 20.793 5.15625 20.8906 5.28516L21.6836 6.30859L23.3516 3.62891C23.4258 3.50781 23.5273 3.44922 23.6328 3.44922C23.8008 3.44922 23.9609 3.56641 23.9609 3.74609C23.9609 3.83594 23.9102 3.92578 23.8633 4.00391L22.0273 6.89844C21.9453 7.02344 21.832 7.08594 21.6992 7.08594Z" fill="#B46868"/>
</svg>
