<svg width="14" height="14" viewBox="0 0 14 14" fill="none" xmlns="http://www.w3.org/2000/svg">
<path d="M8.42773 5.71094C9.6875 5.71094 10.7715 4.58594 10.7715 3.12109C10.7715 1.67383 9.68164 0.601562 8.42773 0.601562C7.17383 0.601562 6.08398 1.69727 6.08398 3.13281C6.08398 4.58594 7.17383 5.71094 8.42773 5.71094ZM8.42773 6.75977C7.42578 6.75977 6.55273 6.99414 5.83789 7.35742C6.68164 8.04883 7.22656 9.09766 7.22656 10.2695C7.22656 10.5625 7.19141 10.8613 7.12109 11.1367H12.1074C13.0273 11.1367 13.3555 10.873 13.3555 10.3574C13.3555 8.8457 11.4629 6.75977 8.42773 6.75977ZM3.44141 13.2461C5.05859 13.2461 6.42383 11.8926 6.42383 10.2695C6.42383 8.63477 5.07617 7.29297 3.44141 7.29297C1.8125 7.29297 0.464844 8.63477 0.464844 10.2695C0.464844 11.9043 1.8125 13.2461 3.44141 13.2461ZM3.44141 12.1328C3.22461 12.1328 3.08398 11.9863 3.08398 11.7754V10.627H1.94141C1.72461 10.627 1.57812 10.4863 1.57812 10.2695C1.57812 10.0527 1.72461 9.91211 1.94141 9.91211H3.08398V8.76367C3.08398 8.55273 3.22461 8.40625 3.44141 8.40625C3.66406 8.40625 3.80469 8.55273 3.80469 8.76367V9.91211H4.94727C5.16406 9.91211 5.30469 10.0527 5.30469 10.2695C5.30469 10.4863 5.16406 10.627 4.94727 10.627H3.80469V11.7754C3.80469 11.9863 3.66406 12.1328 3.44141 12.1328Z" fill="#5F9B8C"/>
</svg>
