<svg width="40" height="40" viewBox="0 0 40 40" fill="none" xmlns="http://www.w3.org/2000/svg">
<g clip-path="url(#clip0_15666_21501)">
<path d="M36.4995 14.8167L34.7495 7.53333C34.3829 6.03333 33.0829 5 31.5662 5H8.41619C6.91619 5 5.59952 6.05 5.24952 7.53333L3.49952 14.8167C3.09952 16.5167 3.46619 18.25 4.53286 19.6167C4.66619 19.8 4.84952 19.9333 4.99952 20.1V31.6667C4.99952 33.5 6.49952 35 8.33286 35H31.6662C33.4995 35 34.9995 33.5 34.9995 31.6667V20.1C35.1495 19.95 35.3329 19.8 35.4662 19.6333C36.5329 18.2667 36.9162 16.5167 36.4995 14.8167ZM31.5162 8.31667L33.2662 15.6C33.4329 16.3 33.2829 17 32.8495 17.55C32.6162 17.85 32.1162 18.3333 31.2829 18.3333C30.2662 18.3333 29.3829 17.5167 29.2662 16.4333L28.2995 8.33333L31.5162 8.31667ZM21.6662 8.33333H24.9329L25.8329 15.8667C25.9162 16.5167 25.7162 17.1667 25.2829 17.65C24.9162 18.0833 24.3829 18.3333 23.6995 18.3333C22.5829 18.3333 21.6662 17.35 21.6662 16.15V8.33333ZM14.1495 15.8667L15.0662 8.33333H18.3329V16.15C18.3329 17.35 17.4162 18.3333 16.1829 18.3333C15.6162 18.3333 15.0995 18.0833 14.6995 17.65C14.2829 17.1667 14.0829 16.5167 14.1495 15.8667ZM6.73286 15.6L8.41619 8.33333H11.6995L10.7329 16.4333C10.5995 17.5167 9.73286 18.3333 8.71619 18.3333C7.89952 18.3333 7.38286 17.85 7.16619 17.55C6.71619 17.0167 6.56619 16.3 6.73286 15.6ZM8.33286 31.6667V21.6167C8.46619 21.6333 8.58286 21.6667 8.71619 21.6667C10.1662 21.6667 11.4829 21.0667 12.4495 20.0833C13.4495 21.0833 14.7829 21.6667 16.2995 21.6667C17.7495 21.6667 19.0495 21.0667 20.0162 20.1167C20.9995 21.0667 22.3329 21.6667 23.8329 21.6667C25.2329 21.6667 26.5662 21.0833 27.5662 20.0833C28.5329 21.0667 29.8495 21.6667 31.2995 21.6667C31.4329 21.6667 31.5495 21.6333 31.6829 21.6167V31.6667H8.33286Z" fill="#B46868"/>
</g>
<defs>
<clipPath id="clip0_15666_21501">
<rect width="40" height="40" fill="white"/>
</clipPath>
</defs>
</svg>
