<svg width="16" height="15" viewBox="0 0 16 15" fill="none" xmlns="http://www.w3.org/2000/svg">
<path d="M2.44141 6.95117C1.21484 6.95117 0.621094 6.35742 0.621094 5.09961V2.00586C0.621094 0.755859 1.21484 0.162109 2.44141 0.162109H5.58203C6.81641 0.162109 7.40234 0.755859 7.40234 2.00586V5.09961C7.40234 6.35742 6.81641 6.95117 5.58203 6.95117H2.44141ZM10.3945 6.95117C9.16797 6.95117 8.57422 6.35742 8.57422 5.09961V2.00586C8.57422 0.755859 9.16797 0.162109 10.3945 0.162109H13.5352C14.7617 0.162109 15.3555 0.755859 15.3555 2.00586V5.09961C15.3555 6.35742 14.7617 6.95117 13.5352 6.95117H10.3945ZM2.44141 14.8965C1.21484 14.8965 0.621094 14.3105 0.621094 13.0527V9.95898C0.621094 8.70898 1.21484 8.11523 2.44141 8.11523H5.58203C6.81641 8.11523 7.40234 8.70898 7.40234 9.95898V13.0527C7.40234 14.3105 6.81641 14.8965 5.58203 14.8965H2.44141ZM10.3945 14.8965C9.16797 14.8965 8.57422 14.3105 8.57422 13.0527V9.95898C8.57422 8.70898 9.16797 8.11523 10.3945 8.11523H13.5352C14.7617 8.11523 15.3555 8.70898 15.3555 9.95898V13.0527C15.3555 14.3105 14.7617 14.8965 13.5352 14.8965H10.3945Z" fill="#5F9B8C"/>
</svg>
