<svg width="22" height="24" viewBox="0 0 22 24" fill="none" xmlns="http://www.w3.org/2000/svg">
<path d="M1.62668 11.3954C2.10602 11.8298 2.7052 12.1294 2.89993 12.5938C3.06471 12.9982 2.76512 13.5824 2.64528 14.2415C2.97483 14.5112 3.45417 14.9755 2.7052 15.38C2.85499 16.0241 3.04973 16.5634 3.10965 17.1326C3.15458 17.582 3.34932 17.7917 3.75376 17.7617C4.39788 17.7168 5.042 17.6119 5.68612 17.552C6.2104 17.5071 6.73468 17.4322 7.25896 17.4472C8.53222 17.4621 9.23626 18.0913 9.26621 19.3645C9.28119 20.2483 9.08646 21.1321 8.9816 22.0608C11.1686 22.0608 13.4305 22.0608 15.6025 22.0608C15.5426 20.9374 15.4527 19.8289 15.4228 18.7204C15.4228 18.5107 15.6774 18.286 15.8122 18.0613C15.8871 18.286 15.992 18.5107 16.022 18.7504C16.1867 19.8289 16.2467 20.9224 16.4863 21.971C16.6361 22.6151 16.5163 22.7798 15.9021 22.7798C13.4754 22.7649 11.0638 22.7798 8.63708 22.7649C7.87312 22.7649 7.85814 22.66 8.09781 21.911C8.33749 21.1621 8.57716 20.3831 8.6221 19.6042C8.68201 18.4957 8.09781 17.9864 7.00431 18.0463C6.09056 18.0913 5.17681 18.256 4.24809 18.3609C2.91491 18.5107 2.5554 18.1961 2.46553 16.863C2.45055 16.6383 2.36067 16.3536 2.21088 16.2039C1.74651 15.7395 1.76149 15.2901 2.16594 14.8108C1.70157 14.3015 1.62668 13.8221 2.15096 13.2978C2.25581 13.193 2.16594 12.7736 2.0461 12.5938C1.92627 12.3991 1.64166 12.3242 1.43194 12.1744C0.892681 11.7549 0.847743 11.2606 1.35705 10.7363C1.80643 10.272 2.31573 9.86753 2.75014 9.37321C3.19952 8.8639 3.34932 8.26472 3.16956 7.56069C2.67524 5.71821 3.31936 4.20528 4.77237 3.06684C6.7197 1.53894 9.01156 1.11951 11.4083 1.23935C14.2394 1.38914 16.6511 2.46766 18.3588 4.81944C19.7968 6.78176 20.0514 8.9388 19.0928 11.2007C18.8231 11.8448 18.5235 12.474 18.194 13.0881C18.1041 13.2679 17.8495 13.3578 17.6697 13.4926C17.6547 13.2529 17.5798 12.9833 17.6547 12.7736C17.8944 12.1744 18.209 11.6052 18.4786 11.006C19.5421 8.63921 19.0478 6.48217 17.3851 4.62471C15.3629 2.39277 12.7415 1.59885 9.83543 1.9284C8.5472 2.0782 7.24398 2.48264 6.0606 3.00693C4.27805 3.78586 3.2145 5.68825 3.81368 7.62061C4.12825 8.60925 3.61895 9.47806 2.92989 10.1821C2.52545 10.6015 2.09104 10.976 1.62668 11.3954Z" fill="#5F9B8C" stroke="#5F9B8C" stroke-width="0.7"/>
<path d="M15.2284 13.6575C15.4981 14.1068 15.7677 14.1967 16.292 14.1068C16.7563 14.017 17.4154 14.1817 17.7899 14.4813C18.7486 15.2303 19.6025 16.1141 20.4862 16.9679C21.1453 17.612 21.1603 18.5707 20.5911 19.1849C19.9919 19.844 19.0332 19.8889 18.3142 19.2598C17.4005 18.4359 16.4717 17.642 15.6628 16.7282C15.3483 16.3687 15.1386 15.7246 15.2135 15.2603C15.2884 14.706 15.1086 14.4813 14.7491 14.2417C11.139 16.2489 8.248 15.9044 6.31565 13.238C4.62296 10.9012 4.96749 7.65068 7.12454 5.70335C9.20669 3.81593 12.4572 3.78597 14.5993 5.61347C16.5466 7.27619 17.5802 10.6166 15.2284 13.6575ZM10.9293 14.9457C13.7005 14.9457 15.9175 12.7137 15.9325 9.94254C15.9475 7.15636 13.6556 4.8645 10.8994 4.89445C8.09821 4.92441 5.89622 7.17134 5.9112 9.98748C5.9112 12.7287 8.15812 14.9457 10.9293 14.9457ZM16.6066 14.5712C16.3519 14.7959 15.9475 14.9756 15.8875 15.2303C15.8126 15.5598 15.9175 16.0542 16.1272 16.2938C16.9361 17.1477 17.8049 17.9266 18.6737 18.7205C19.1231 19.1399 19.6025 19.2298 20.0668 18.7655C20.5162 18.3011 20.4263 17.8068 19.9769 17.3873C19.1081 16.5635 18.2393 15.7396 17.3555 14.9307C17.1758 14.7809 16.9211 14.721 16.6066 14.5712Z" fill="#5F9B8C" stroke="#5F9B8C" stroke-width="0.7"/>
<path d="M12.9215 8.81922C12.592 9.28359 12.3373 9.82285 11.9179 10.1973C11.5584 10.5269 11.154 10.7216 11.1989 11.3058C11.2139 11.4257 11.0192 11.5455 10.9293 11.6803C10.8244 11.5455 10.6447 11.4107 10.6297 11.2609C10.5398 10.6617 10.7345 10.1973 11.2588 9.85281C11.5584 9.65807 11.858 9.38844 12.0228 9.07388C12.3074 8.53461 11.9778 7.83058 11.4086 7.57593C10.8394 7.32128 10.1653 7.54597 9.86573 8.11519C9.79083 8.26498 9.79083 8.45972 9.70095 8.60951C9.61108 8.75931 9.46128 8.84918 9.32647 8.984C9.25157 8.81922 9.10178 8.65445 9.10178 8.48968C9.0868 7.68078 9.86573 6.93181 10.7645 6.84193C11.6633 6.76703 12.5171 7.38119 12.7118 8.25C12.7418 8.3998 12.7418 8.54959 12.7717 8.69939C12.8167 8.74433 12.8766 8.77429 12.9215 8.81922Z" fill="#5F9B8C" stroke="#5F9B8C" stroke-width="0.7"/>
<path d="M10.8845 13.1182C10.7197 12.8785 10.51 12.6838 10.54 12.5939C10.5999 12.4291 10.8246 12.3392 10.9744 12.2044C11.0793 12.3392 11.274 12.474 11.289 12.6238C11.289 12.7586 11.0793 12.8935 10.8845 13.1182Z" fill="#5F9B8C" stroke="#5F9B8C" stroke-width="0.7"/>
</svg>
