<svg width="18" height="17" viewBox="0 0 18 17" fill="none" xmlns="http://www.w3.org/2000/svg">
<path d="M3.54834 16.7344C3.86865 16.9844 4.2749 16.8984 4.75928 16.5469L8.89209 13.5078L13.0327 16.5469C13.5171 16.8984 13.9155 16.9844 14.2437 16.7344C14.564 16.4922 14.6343 16.0938 14.439 15.5234L12.8062 10.6641L16.978 7.66406C17.4624 7.32031 17.6577 6.96094 17.5327 6.57031C17.4077 6.19531 17.0405 6.00781 16.439 6.01562L11.3218 6.04688L9.76709 1.16406C9.57959 0.585938 9.29834 0.296875 8.89209 0.296875C8.49365 0.296875 8.2124 0.585938 8.0249 1.16406L6.47021 6.04688L1.35303 6.01562C0.751465 6.00781 0.384277 6.19531 0.259277 6.57031C0.126465 6.96094 0.32959 7.32031 0.813965 7.66406L4.98584 10.6641L3.35303 15.5234C3.15771 16.0938 3.22803 16.4922 3.54834 16.7344ZM4.67334 15.1875C4.65771 15.1719 4.66553 15.1641 4.67334 15.1172L6.22803 10.6484C6.3374 10.3438 6.2749 10.1016 6.00146 9.91406L2.11084 7.22656C2.07178 7.20312 2.06396 7.1875 2.07178 7.16406C2.07959 7.14062 2.09521 7.14062 2.14209 7.14062L6.86865 7.22656C7.18896 7.23438 7.39209 7.10156 7.49365 6.78125L8.85303 2.25781C8.86084 2.21094 8.87646 2.19531 8.89209 2.19531C8.91553 2.19531 8.93115 2.21094 8.93896 2.25781L10.2983 6.78125C10.3999 7.10156 10.603 7.23438 10.9233 7.22656L15.6499 7.14062C15.6968 7.14062 15.7124 7.14062 15.7202 7.16406C15.728 7.1875 15.7124 7.20312 15.6812 7.22656L11.7905 9.91406C11.5171 10.1016 11.4546 10.3438 11.564 10.6484L13.1187 15.1172C13.1265 15.1641 13.1343 15.1719 13.1187 15.1875C13.103 15.2109 13.0796 15.1953 13.0483 15.1719L9.29053 12.3047C9.04053 12.1094 8.75146 12.1094 8.50146 12.3047L4.74365 15.1719C4.7124 15.1953 4.68896 15.2109 4.67334 15.1875Z" fill="white"/>
</svg>
