<svg width="11" height="11" viewBox="0 0 11 11" fill="none" xmlns="http://www.w3.org/2000/svg">
<path d="M3.18945 8.94678H4.00977C4.07617 8.94678 4.12305 8.9624 4.16992 9.01318L4.75195 9.59131C5.28711 10.1265 5.79883 10.1226 6.33398 9.59131L6.91211 9.01318C6.96289 8.9624 7.00977 8.94678 7.07617 8.94678H7.89648C8.65039 8.94678 9.01367 8.57959 9.01367 7.82568V7.00537C9.01367 6.93896 9.0332 6.89209 9.08008 6.84521L9.6582 6.26318C10.1934 5.73193 10.1934 5.21631 9.6582 4.68115L9.08008 4.10303C9.0293 4.05225 9.01367 4.00537 9.01367 3.94287V3.12256C9.01367 2.36865 8.65039 2.00146 7.89648 2.00146H7.07617C7.00977 2.00146 6.96289 1.98193 6.91211 1.93506L6.33398 1.35693C5.79883 0.817871 5.28711 0.821777 4.75195 1.36084L4.16992 1.93506C4.12305 1.98193 4.07617 2.00146 4.00977 2.00146H3.18945C2.43555 2.00146 2.07227 2.36084 2.07227 3.12256V3.94287C2.07227 4.00537 2.05273 4.05615 2.00586 4.10303L1.42773 4.68115C0.888672 5.21631 0.892578 5.73193 1.42773 6.26318L2.00586 6.84521C2.05273 6.89209 2.07227 6.93896 2.07227 7.00537V7.82568C2.07227 8.57959 2.43555 8.94678 3.18945 8.94678ZM5.11133 7.43506C4.93945 7.43506 4.79883 7.35303 4.67383 7.20459L3.75977 6.10693C3.66992 6.00146 3.63086 5.8999 3.63086 5.78662C3.63086 5.54443 3.82617 5.35303 4.06836 5.35303C4.20898 5.35303 4.31445 5.40771 4.41992 5.53662L5.10352 6.37256L6.62305 3.95459C6.72852 3.79053 6.85352 3.70459 7.00977 3.70459C7.24414 3.70459 7.45508 3.87646 7.45508 4.11865C7.45508 4.21631 7.41602 4.32568 7.34961 4.42334L5.5332 7.19678C5.43164 7.34521 5.2832 7.43506 5.11133 7.43506Z" fill="#5F9B8C"/>
</svg>
