<svg width="21" height="22" viewBox="0 0 21 22" fill="none" xmlns="http://www.w3.org/2000/svg">
<path d="M8.5 3.25C8.69891 3.25 8.88968 3.32902 9.03033 3.46967C9.17098 3.61032 9.25 3.80109 9.25 4V12H17.25C17.4312 12 17.6063 12.0656 17.7429 12.1848C17.8795 12.3039 17.9684 12.4684 17.993 12.648L18 12.75C18 17.72 13.97 21.25 9 21.25C6.61305 21.25 4.32387 20.3018 2.63604 18.614C0.948211 16.9261 0 14.6369 0 12.25C0 7.28 3.53 3.25 8.5 3.25ZM7.75 4.787L7.541 4.811C3.851 5.281 1.5 8.433 1.5 12.25C1.5 14.2391 2.29018 16.1468 3.6967 17.5533C5.10322 18.9598 7.01088 19.75 9 19.75C12.817 19.75 15.968 17.398 16.44 13.709L16.462 13.5H8.5C8.31876 13.5 8.14366 13.4344 8.00707 13.3152C7.87048 13.1961 7.78165 13.0316 7.757 12.852L7.75 12.75V4.787ZM11.5 0.75C13.8869 0.75 16.1761 1.69821 17.864 3.38604C19.5518 5.07387 20.5 7.36305 20.5 9.75C20.5 9.94891 20.421 10.1397 20.2803 10.2803C20.1397 10.421 19.9489 10.5 19.75 10.5H11.5C11.3011 10.5 11.1103 10.421 10.9697 10.2803C10.829 10.1397 10.75 9.94891 10.75 9.75V1.5C10.75 1.30109 10.829 1.11032 10.9697 0.96967C11.1103 0.829018 11.3011 0.75 11.5 0.75ZM12.25 2.287V9H18.962L18.939 8.791C18.7264 7.14679 17.9754 5.61925 16.8031 4.44694C15.6307 3.27463 14.1032 2.52356 12.459 2.311L12.25 2.287Z" fill="#5F9B8C"/>
</svg>
