<svg width="16" height="14" viewBox="0 0 16 14" fill="none" xmlns="http://www.w3.org/2000/svg">
<path d="M0.922038 11.7008C0.977378 11.6288 0.971844 11.5403 0.99398 11.4573C1.22087 10.688 1.7383 10.1983 2.46878 9.90774C2.50475 9.89391 2.54349 9.88007 2.59606 9.86071C2.32767 9.65595 2.13121 9.40969 2.015 9.10809C1.78534 8.49935 1.81577 7.88784 2.04543 7.28741C2.17272 6.95537 2.44111 6.75338 2.78699 6.66207C3.1633 6.56246 3.54237 6.55969 3.91868 6.66484C4.3282 6.77828 4.59383 7.04115 4.71834 7.44789C4.84009 7.84634 4.86499 8.25585 4.80689 8.6626C4.73771 9.15236 4.50805 9.55634 4.10131 9.86347C4.57446 10.0157 4.97014 10.2675 5.28004 10.641C5.60101 11.0256 5.76703 11.4711 5.7781 11.9719C5.79193 12.5142 5.47373 12.9293 4.92587 13.1064C4.38907 13.2807 3.83291 13.3028 3.27398 13.3001C2.78422 13.2973 2.29723 13.2724 1.82684 13.123C1.37859 12.9819 1.04102 12.7245 0.93864 12.2375C0.93864 12.232 0.924805 12.2265 0.916504 12.2237C0.922038 12.0522 0.922038 11.8751 0.922038 11.7008Z" fill="#5F9B8C"/>
<path d="M15.0831 12.2264C15.0748 12.2319 15.0637 12.2347 15.061 12.2402C14.9337 12.8406 14.4799 13.0786 13.9486 13.1865C13.0881 13.3608 12.2165 13.3553 11.3532 13.1865C10.9382 13.1063 10.5563 12.9402 10.3488 12.5335C10.1634 12.171 10.1994 11.7892 10.3128 11.4156C10.5397 10.6658 11.0571 10.1899 11.7738 9.90763C11.8125 9.8938 11.8513 9.87996 11.9011 9.86336C11.558 9.60603 11.3338 9.27399 11.2398 8.86725C11.1208 8.35812 11.1457 7.85176 11.32 7.35924C11.4501 6.99123 11.7212 6.76434 12.0975 6.66196C12.4794 6.55958 12.864 6.55958 13.2431 6.67026C13.6553 6.78924 13.9237 7.06594 14.0289 7.48375C14.1755 8.05652 14.206 8.62929 13.9542 9.18545C13.8324 9.45385 13.6498 9.67521 13.4036 9.86336C13.7218 9.96851 13.9985 10.1124 14.2475 10.3171C14.6874 10.6741 14.9614 11.1251 15.0527 11.6868C15.0554 11.7062 15.0582 11.7228 15.0803 11.7283C15.0831 11.8943 15.0831 12.0603 15.0831 12.2264Z" fill="#5F9B8C"/>
<path d="M7.25264 3.27249C7.00085 3.0788 6.82376 2.85467 6.69924 2.58904C6.50002 2.16293 6.50002 1.71467 6.54983 1.26366C6.5692 1.09764 6.6024 0.937152 6.66327 0.782201C6.8625 0.262007 7.27754 0.0517164 7.8005 0.0102116C8.05783 -0.0119243 8.31516 -0.000856377 8.56696 0.0710853C8.94604 0.178998 9.22274 0.411424 9.34725 0.784968C9.51327 1.28303 9.54647 1.79492 9.41089 2.30958C9.31405 2.68035 9.11759 2.99302 8.81045 3.22822C8.79662 3.23928 8.78555 3.25312 8.76342 3.27802C9.10099 3.38593 9.39429 3.54642 9.65439 3.77055C10.1524 4.19943 10.4208 4.74176 10.4319 5.4003C10.4402 5.93433 10.1331 6.33001 9.60458 6.50986C9.05948 6.69802 8.49225 6.71185 7.92779 6.71185C7.47123 6.70908 7.01745 6.68418 6.57196 6.5652C5.68929 6.32447 5.4292 5.70744 5.64502 4.89394C5.85255 4.11365 6.37551 3.61836 7.11152 3.32506C7.1475 3.30569 7.189 3.29462 7.25264 3.27249Z" fill="#5F9B8C"/>
<path d="M5.5402 3.56568C5.53743 3.67636 5.48763 3.72893 5.41292 3.7649C4.77374 4.06927 4.28399 4.54796 3.84404 5.09029C3.68909 5.28121 3.56457 5.48874 3.45666 5.70733C3.37642 5.87058 3.31554 5.88995 3.14676 5.81801C3.08865 5.7931 3.02778 5.7682 2.96967 5.7433C2.77045 5.65752 2.74554 5.58558 2.83685 5.39189C3.06651 4.90767 3.39855 4.49815 3.77486 4.11908C4.16224 3.72893 4.58559 3.38306 5.08918 3.14787C5.26903 3.06486 5.34098 3.08699 5.42122 3.27238C5.46549 3.38029 5.50423 3.48267 5.5402 3.56568Z" fill="#5F9B8C"/>
<path d="M12.7536 5.86251C12.654 5.85698 12.6014 5.81548 12.5655 5.74353C12.2583 5.10159 11.7769 4.6063 11.2345 4.16359C11.0492 4.0114 10.8444 3.88965 10.6286 3.78451C10.457 3.7015 10.4376 3.63786 10.5096 3.4663C10.54 3.39436 10.5705 3.32242 10.6037 3.25048C10.6728 3.0983 10.7476 3.07339 10.8997 3.14533C11.2511 3.30582 11.5666 3.51888 11.8543 3.77067C12.3828 4.23553 12.8588 4.74465 13.1687 5.38936C13.2655 5.59412 13.2461 5.66052 13.0358 5.74907C12.9335 5.79057 12.8366 5.82931 12.7536 5.86251Z" fill="#5F9B8C"/>
<path d="M7.99422 14.0001C7.44913 13.9973 6.91233 13.942 6.39491 13.7511C6.23165 13.6902 6.19292 13.621 6.25379 13.4578C6.28146 13.3803 6.3119 13.3028 6.3451 13.2281C6.40597 13.0842 6.47515 13.051 6.62733 13.1008C7.43529 13.3664 8.25432 13.3609 9.07888 13.1921C9.1868 13.17 9.28917 13.1257 9.39432 13.0953C9.5299 13.0565 9.60184 13.0897 9.65718 13.2198C9.69039 13.3 9.72082 13.3803 9.75126 13.4633C9.80937 13.6182 9.7734 13.693 9.61844 13.7511C9.09548 13.942 8.55039 14.0001 7.99422 14.0001Z" fill="#5F9B8C"/>
</svg>
