<svg width="21" height="21" viewBox="0 0 21 21" fill="none" xmlns="http://www.w3.org/2000/svg">
<path d="M10.709 20.9102C16.1582 20.9102 20.6699 16.3887 20.6699 10.9492C20.6699 5.5 16.1484 0.988281 10.6992 0.988281C5.25977 0.988281 0.748047 5.5 0.748047 10.9492C0.748047 16.3887 5.26953 20.9102 10.709 20.9102ZM10.709 19.25C6.09961 19.25 2.41797 15.5586 2.41797 10.9492C2.41797 6.33984 6.08984 2.64844 10.6992 2.64844C15.3086 2.64844 19 6.33984 19.0098 10.9492C19.0195 15.5586 15.3184 19.25 10.709 19.25ZM10.6211 7.47266C11.334 7.47266 11.8906 6.90625 11.8906 6.19336C11.8906 5.48047 11.334 4.91406 10.6211 4.91406C9.91797 4.91406 9.35156 5.48047 9.35156 6.19336C9.35156 6.90625 9.91797 7.47266 10.6211 7.47266ZM9 16.3203H12.9746C13.375 16.3203 13.6875 16.0273 13.6875 15.627C13.6875 15.2461 13.375 14.9434 12.9746 14.9434H11.7637V9.97266C11.7637 9.44531 11.5 9.09375 11.002 9.09375H9.16602C8.76562 9.09375 8.45312 9.39648 8.45312 9.77734C8.45312 10.1777 8.76562 10.4707 9.16602 10.4707H10.2109V14.9434H9C8.59961 14.9434 8.28711 15.2461 8.28711 15.627C8.28711 16.0273 8.59961 16.3203 9 16.3203Z" fill="#5F9B8C"/>
</svg>
