<svg width="19" height="19" viewBox="0 0 19 19" fill="none" xmlns="http://www.w3.org/2000/svg">
<path d="M3.55664 18.9531H15.4023C17.4531 18.9531 18.4688 17.9375 18.4688 15.9258V4.00195C18.4688 1.99023 17.4531 0.974609 15.4023 0.974609H3.55664C1.51562 0.974609 0.490234 1.98047 0.490234 4.00195V15.9258C0.490234 17.9473 1.51562 18.9531 3.55664 18.9531ZM3.57617 17.3809C2.59961 17.3809 2.0625 16.8633 2.0625 15.8477V4.08008C2.0625 3.06445 2.59961 2.54688 3.57617 2.54688H15.3828C16.3496 2.54688 16.8965 3.06445 16.8965 4.08008V15.8477C16.8965 16.8633 16.3496 17.3809 15.3828 17.3809H3.57617ZM6.27148 14.5488C6.62305 14.5488 6.87695 14.3828 7.02344 13.9238L7.73633 11.8438H11.2324L11.9453 13.9238C12.0918 14.373 12.3457 14.5488 12.6973 14.5488C13.127 14.5488 13.4199 14.2656 13.4199 13.875C13.4199 13.7188 13.3809 13.582 13.3125 13.3672L10.5781 5.99414C10.3828 5.48633 10.0117 5.22266 9.47461 5.22266C8.94727 5.22266 8.58594 5.48633 8.39062 5.99414L5.65625 13.3672C5.58789 13.582 5.54883 13.7188 5.54883 13.8652C5.54883 14.2754 5.8418 14.5488 6.27148 14.5488ZM8.12695 10.6719L9.43555 6.89258H9.5332L10.8418 10.6719H8.12695Z" fill="#5F9B8C"/>
</svg>
