<svg width="20" height="16" viewBox="0 0 20 16" fill="none" xmlns="http://www.w3.org/2000/svg">
<path d="M6.95508 8.03711C6.95508 8.41504 7.27148 8.74023 7.64062 8.74023L16.667 8.74023L17.9854 8.6875L17.3613 9.27637L15.9375 10.6123C15.7969 10.7354 15.7266 10.9111 15.7266 11.0869C15.7266 11.4473 15.9902 11.7285 16.3506 11.7285C16.5352 11.7285 16.6758 11.6494 16.8076 11.5176L19.6729 8.54687C19.8486 8.37109 19.9102 8.22168 19.9102 8.03711C19.9102 7.86133 19.8486 7.71191 19.6729 7.52734L16.8076 4.55664C16.6758 4.4248 16.5352 4.35449 16.3506 4.35449C15.9902 4.35449 15.7266 4.61816 15.7266 4.9873C15.7266 5.1543 15.7969 5.34766 15.9375 5.4707L17.3613 6.79785L17.9854 7.39551L16.667 7.34277L7.64062 7.34277C7.27148 7.34277 6.95508 7.65918 6.95508 8.03711ZM0.073242 3.00098L0.0732415 13.082C0.0732414 14.9189 0.987304 15.8418 2.79785 15.8418L11.5693 15.8418C13.3799 15.8418 14.2939 14.9189 14.2939 13.082L14.2939 10.6299L12.8789 10.6299L12.8789 13.0557C12.8789 13.9258 12.4043 14.4268 11.4902 14.4268L2.87695 14.4268C1.96289 14.4268 1.48828 13.9258 1.48828 13.0557L1.48828 3.01855C1.48828 2.13965 1.96289 1.65625 2.87695 1.65625L11.4902 1.65625C12.4043 1.65625 12.8789 2.13965 12.8789 3.01855L12.8789 5.45312L14.2939 5.45312L14.2939 3.00098C14.2939 1.16406 13.3799 0.241211 11.5693 0.241211L2.79785 0.24121C0.987305 0.24121 0.073242 1.16406 0.073242 3.00098Z" fill="#5F9B8C"/>
</svg>
