<svg width="19" height="23" viewBox="0 0 19 23" fill="none" xmlns="http://www.w3.org/2000/svg">
<path d="M0.241211 19.4424C0.241211 21.2793 1.14648 22.2021 2.96582 22.2021H11.2275C13.0469 22.2021 13.9521 21.2705 13.9521 19.4424V17.8164H15.4902C17.3008 17.8164 18.2148 16.8848 18.2148 15.0566V2.84863C18.2148 1.02051 17.3008 0.0888672 15.4902 0.0888672H7.22852C5.41797 0.0888672 4.50391 1.01172 4.50391 2.84863V4.47461H2.96582C1.15527 4.47461 0.241211 5.39746 0.241211 7.23438V19.4424ZM9.21484 3.10352C8.82812 3.10352 8.65234 2.84863 8.65234 2.58496V2.40039C8.65234 2.12793 8.82812 1.88184 9.21484 1.88184H13.5039C13.8818 1.88184 14.0664 2.12793 14.0664 2.40039V2.58496C14.0664 2.84863 13.8818 3.10352 13.5039 3.10352H9.21484ZM1.65625 19.416V7.25195C1.65625 6.39062 2.12207 5.88965 3.03613 5.88965H5.91895V10.9873C5.91895 12.0947 6.48145 12.6484 7.57129 12.6484H12.5371V19.416C12.5371 20.2949 12.0625 20.7871 11.1572 20.7871H3.02734C2.12207 20.7871 1.65625 20.2949 1.65625 19.416ZM7.73828 11.3213C7.38672 11.3213 7.24609 11.1807 7.24609 10.8291V6.21484L12.2646 11.3213H7.73828Z" fill="#5F9B8C"/>
</svg>
