<svg width="16" height="17" viewBox="0 0 16 17" fill="none" xmlns="http://www.w3.org/2000/svg">
<path d="M7.92285 8.3125C10.0146 8.3125 11.7197 6.44922 11.7197 4.18164C11.7197 1.93164 10.0234 0.165039 7.92285 0.165039C5.83984 0.165039 4.12598 1.9668 4.12598 4.19922C4.13477 6.45801 5.83105 8.3125 7.92285 8.3125ZM7.92285 6.98535C6.63965 6.98535 5.54102 5.75488 5.54102 4.19922C5.54102 2.66992 6.62207 1.49219 7.92285 1.49219C9.23242 1.49219 10.3047 2.65234 10.3047 4.18164C10.3047 5.7373 9.21484 6.98535 7.92285 6.98535ZM2.39453 16.4424H13.4424C14.9014 16.4424 15.5957 16.0029 15.5957 15.0361C15.5957 12.7334 12.6865 9.40234 7.92285 9.40234C3.15039 9.40234 0.241211 12.7334 0.241211 15.0361C0.241211 16.0029 0.935547 16.4424 2.39453 16.4424ZM1.98145 15.1152C1.75293 15.1152 1.65625 15.0537 1.65625 14.8691C1.65625 13.4277 3.88867 10.7295 7.92285 10.7295C11.9482 10.7295 14.1807 13.4277 14.1807 14.8691C14.1807 15.0537 14.0928 15.1152 13.8643 15.1152H1.98145Z" fill="white" fill-opacity="0.85"/>
</svg>
