<svg width="20" height="20" viewBox="0 0 20 20" fill="none" xmlns="http://www.w3.org/2000/svg">
<path d="M18.8652 2.94141L19.5684 2.21875C19.9004 1.86719 19.9004 1.39844 19.5684 1.07617L19.3438 0.841797C19.041 0.539062 18.5625 0.578125 18.2402 0.890625L17.5273 1.59375L18.8652 2.94141ZM7.11719 13.5957L9.02148 12.7656L18.1426 3.6543L16.8047 2.33594L7.69336 11.4473L6.81445 13.2832C6.73633 13.4492 6.93164 13.6738 7.11719 13.5957ZM3.5625 19.9238H15.0273C16.7852 19.9238 17.8008 18.9082 17.8008 16.8965V6.45703L16.2285 8.0293V16.8184C16.2285 17.834 15.6816 18.3516 15.0078 18.3516H3.5918C2.61523 18.3516 2.06836 17.834 2.06836 16.8184V5.73438C2.06836 4.71875 2.61523 4.19141 3.5918 4.19141H12.4883L14.0605 2.61914H3.5625C1.53125 2.61914 0.496094 3.63477 0.496094 5.64648V16.8965C0.496094 18.918 1.53125 19.9238 3.5625 19.9238Z" fill="#5F9B8C"/>
</svg>
