<svg width="17" height="21" viewBox="0 0 17 21" fill="none" xmlns="http://www.w3.org/2000/svg">
<path d="M8.67969 20.0762C8.83594 20.0762 9.08984 20.0176 9.33398 19.8809C14.8906 16.7656 16.7949 15.4473 16.7949 11.8828V4.41211C16.7949 3.38672 16.3555 3.06445 15.5254 2.71289C14.373 2.23438 10.6523 0.896484 9.5 0.496094C9.23633 0.408203 8.95312 0.349609 8.67969 0.349609C8.40625 0.349609 8.12305 0.427734 7.86914 0.496094C6.7168 0.828125 2.98633 2.24414 1.83398 2.71289C1.01367 3.05469 0.564453 3.38672 0.564453 4.41211V11.8828C0.564453 15.4473 2.47852 16.7559 8.02539 19.8809C8.2793 20.0176 8.52344 20.0762 8.67969 20.0762ZM8.67969 18.3086C8.52344 18.3086 8.36719 18.25 8.07422 18.0742C3.5625 15.3398 2.11719 14.5391 2.11719 11.5215V4.71484C2.11719 4.38281 2.17578 4.25586 2.44922 4.14844C3.93359 3.5625 6.81445 2.5957 8.28906 2.00977C8.44531 1.94141 8.57227 1.92188 8.67969 1.92188C8.78711 1.92188 8.91406 1.95117 9.07031 2.00977C10.5449 2.5957 13.4062 3.63086 14.9199 4.14844C15.1836 4.24609 15.2422 4.38281 15.2422 4.71484V11.5215C15.2422 14.5391 13.7969 15.3301 9.28516 18.0742C9.00195 18.25 8.83594 18.3086 8.67969 18.3086ZM5.1543 13.5918C5.1543 14.3242 5.47656 14.666 6.15039 14.666H11.209C11.8828 14.666 12.2051 14.3242 12.2051 13.5918V9.70508C12.2051 9.02148 11.9219 8.67969 11.3457 8.64062V7.48828C11.3457 5.69141 10.2715 4.49023 8.67969 4.49023C7.08789 4.49023 6.01367 5.69141 6.01367 7.48828V8.64062C5.4375 8.67969 5.1543 9.02148 5.1543 9.70508V13.5918ZM7.0293 8.63086V7.38086C7.0293 6.22852 7.69336 5.47656 8.67969 5.47656C9.66602 5.47656 10.3301 6.22852 10.3301 7.38086V8.63086H7.0293Z" fill="#5F9B8C"/>
</svg>
