<svg width="21" height="20" viewBox="0 0 21 20" fill="none" xmlns="http://www.w3.org/2000/svg">
<path d="M10.4697 18.7588C10.6982 18.7588 10.918 18.7324 11.1553 18.7148L11.6562 19.6816C11.7529 19.875 11.9463 19.9805 12.1924 19.9453C12.4121 19.9014 12.5615 19.7432 12.5967 19.5059L12.7461 18.4424C13.1855 18.3281 13.6162 18.1611 14.0293 17.9766L14.8203 18.6885C14.9873 18.8467 15.1982 18.8818 15.418 18.7588C15.6113 18.6533 15.6904 18.4424 15.6465 18.2139L15.4268 17.1592C15.7959 16.9043 16.1562 16.6143 16.4814 16.2891L17.457 16.7021C17.6768 16.79 17.8877 16.7461 18.0547 16.5439C18.2041 16.3857 18.2217 16.1572 18.0898 15.9639L17.5186 15.0498C17.7822 14.6807 17.9932 14.2852 18.1953 13.8633L19.2764 13.916C19.5049 13.9248 19.6895 13.8018 19.7686 13.582C19.8389 13.3623 19.7773 13.1514 19.5928 13.0107L18.749 12.3428C18.8633 11.9209 18.9512 11.4639 18.9951 10.9893L20.0059 10.6729C20.2344 10.5938 20.3662 10.4268 20.3662 10.1895C20.3662 9.96094 20.2344 9.79395 20.0059 9.71484L18.9951 9.38965C18.9512 8.91504 18.8633 8.47559 18.749 8.04492L19.5928 7.36816C19.7686 7.23633 19.8389 7.03418 19.7686 6.81445C19.6895 6.59473 19.5049 6.47168 19.2764 6.48047L18.1953 6.52441C17.9932 6.10254 17.7822 5.70703 17.5186 5.33789L18.0898 4.42383C18.2129 4.23926 18.1953 4.01074 18.0547 3.85254C17.8877 3.65039 17.6768 3.59766 17.457 3.69434L16.4814 4.08984C16.1562 3.78223 15.7959 3.4834 15.4268 3.22852L15.6465 2.18262C15.6904 1.94531 15.6113 1.73438 15.418 1.62891C15.1982 1.51465 14.9873 1.53223 14.8203 1.70801L14.0293 2.40234C13.6162 2.21777 13.1855 2.06836 12.7461 1.94531L12.5967 0.881836C12.5615 0.65332 12.4033 0.486328 12.1836 0.451172C11.9463 0.416016 11.7529 0.512695 11.6562 0.706055L11.1553 1.67285C10.918 1.65527 10.6982 1.6377 10.4697 1.6377C10.2324 1.6377 10.0215 1.65527 9.78418 1.67285L9.27441 0.706055C9.17773 0.512695 8.98438 0.416016 8.74707 0.451172C8.52734 0.486328 8.36914 0.65332 8.34277 0.881836L8.18457 1.93652C7.74512 2.06836 7.32324 2.21777 6.90137 2.40234L6.11035 1.70801C5.94336 1.53223 5.73242 1.51465 5.5127 1.62891C5.31934 1.73438 5.24023 1.94531 5.28418 2.18262L5.50391 3.22852C5.14355 3.4834 4.77441 3.78223 4.44922 4.08984L3.47363 3.69434C3.25391 3.59766 3.05176 3.65039 2.88477 3.85254C2.73535 4.01074 2.71777 4.23926 2.84082 4.41504L3.41211 5.33789C3.15723 5.70703 2.9375 6.10254 2.73535 6.52441L1.66309 6.48047C1.43457 6.47168 1.24121 6.59473 1.16211 6.81445C1.0918 7.03418 1.15332 7.23633 1.33789 7.36816L2.18164 8.04492C2.06738 8.47559 1.97949 8.91504 1.95312 9.38965L0.924805 9.71484C0.696289 9.78516 0.573242 9.95215 0.573242 10.1895C0.573242 10.4268 0.696289 10.5938 0.924805 10.6729L1.95312 10.998C1.97949 11.4639 2.06738 11.9209 2.18164 12.3428L1.33789 13.0107C1.16211 13.1514 1.10059 13.3623 1.16211 13.582C1.24121 13.8018 1.43457 13.9248 1.66309 13.916L2.73535 13.8633C2.9375 14.2852 3.15723 14.6807 3.41211 15.0498L2.84082 15.9639C2.71777 16.1572 2.73535 16.3857 2.88477 16.5439C3.05176 16.7461 3.25391 16.79 3.47363 16.7021L4.44922 16.2891C4.77441 16.6143 5.14355 16.9043 5.50391 17.1592L5.28418 18.2139C5.24023 18.4424 5.31934 18.6533 5.5127 18.7588C5.73242 18.8818 5.94336 18.8467 6.11035 18.6885L6.90137 17.9766C7.32324 18.1611 7.74512 18.3281 8.18457 18.4424L8.34277 19.5059C8.36914 19.7432 8.52734 19.9014 8.74707 19.9453C8.98438 19.9805 9.17773 19.875 9.27441 19.6816L9.78418 18.7148C10.0127 18.7324 10.2324 18.7588 10.4697 18.7588ZM12.6758 9.63574C12.2715 8.52832 11.4541 7.92188 10.4521 7.92188C10.2939 7.92188 10.127 7.93945 9.83691 8.00098L7.31445 3.69434C8.26367 3.22852 9.32715 2.97363 10.4697 2.97363C14.3018 2.97363 17.3076 5.88281 17.5889 9.63574H12.6758ZM3.33301 10.1982C3.33301 7.75488 4.49316 5.60156 6.30371 4.30078L8.85254 8.63379C8.36914 9.12598 8.14941 9.66211 8.14941 10.2334C8.14941 10.7871 8.36035 11.2969 8.84375 11.8066L6.25098 16.0605C4.4668 14.751 3.33301 12.624 3.33301 10.1982ZM9.39746 10.2246C9.39746 9.62695 9.89844 9.16113 10.4697 9.16113C11.0586 9.16113 11.5508 9.62695 11.5508 10.2246C11.5508 10.8135 11.0586 11.2969 10.4697 11.2969C9.89844 11.2969 9.39746 10.8135 9.39746 10.2246ZM10.4697 17.4229C9.30078 17.4229 8.21094 17.1504 7.25293 16.6758L9.83691 12.4482C10.1094 12.5186 10.2939 12.5361 10.4521 12.5361C11.4629 12.5361 12.2803 11.9121 12.6758 10.7783H17.5801C17.2988 14.5137 14.3018 17.4229 10.4697 17.4229Z" fill="#5F9B8C"/>
</svg>
