<svg width="34" height="34" viewBox="0 0 34 34" fill="none" xmlns="http://www.w3.org/2000/svg">
<circle cx="17" cy="17" r="17" fill="#EFEFEF"/>
<path d="M16.864 22.712C16.864 23.6096 17.1088 24.4419 17.525 25.16H11.152C10.2463 25.16 9.52002 24.4338 9.52002 23.528V10.472C9.52002 10.0392 9.69196 9.62406 9.99802 9.318C10.3041 9.01194 10.7192 8.84 11.152 8.84H11.968V14.552L14.008 13.328L16.048 14.552V8.84H20.944C21.3769 8.84 21.792 9.01194 22.098 9.318C22.4041 9.62406 22.576 10.0392 22.576 10.472V17.8894C22.3067 17.8486 22.0375 17.816 21.76 17.816C19.0591 17.816 16.864 20.011 16.864 22.712ZM25.024 22.712L22.576 20.264V21.896H19.312V23.528H22.576V25.16L25.024 22.712Z" fill="#5F9B8C"/>
</svg>
