<svg width="22" height="18" viewBox="0 0 22 18" fill="none" xmlns="http://www.w3.org/2000/svg">
<path d="M3.00098 17.7578H19.0674C20.8955 17.7578 21.8271 16.8438 21.8271 15.0332V5.83105C21.8271 4.02051 20.8955 3.11523 19.0674 3.11523H16.5537C15.8594 3.11523 15.6484 2.97461 15.2529 2.53516L14.5498 1.74414C14.1104 1.26074 13.6621 0.99707 12.7568 0.99707H9.25C8.34473 0.99707 7.89648 1.26074 7.45703 1.74414L6.75391 2.53516C6.3584 2.96582 6.13867 3.11523 5.45312 3.11523H3.00098C1.16406 3.11523 0.241211 4.02051 0.241211 5.83105V15.0332C0.241211 16.8438 1.16406 17.7578 3.00098 17.7578ZM3.01855 16.3428C2.15723 16.3428 1.65625 15.877 1.65625 14.9629V5.91016C1.65625 4.99609 2.15723 4.53027 3.01855 4.53027H5.80469C6.5957 4.53027 7.02637 4.38086 7.46582 3.88867L8.15137 3.11523C8.65234 2.55273 8.91602 2.41211 9.68945 2.41211H12.3174C13.0908 2.41211 13.3545 2.55273 13.8555 3.11523L14.541 3.88867C14.9805 4.38086 15.4111 4.53027 16.2021 4.53027H19.041C19.9111 4.53027 20.4121 4.99609 20.4121 5.91016V14.9629C20.4121 15.877 19.9111 16.3428 19.041 16.3428H3.01855ZM11.0342 15.0771C13.6885 15.0771 15.8242 12.9502 15.8242 10.2695C15.8242 7.59766 13.6973 5.4707 11.0342 5.4707C8.37109 5.4707 6.23535 7.59766 6.23535 10.2695C6.23535 12.9502 8.37109 15.0771 11.0342 15.0771ZM16.1846 7.03516C16.1846 7.65039 16.6943 8.13379 17.292 8.13379C17.8809 8.125 18.3818 7.6416 18.3818 7.03516C18.3818 6.45508 17.8809 5.94531 17.292 5.94531C16.6943 5.94531 16.1846 6.45508 16.1846 7.03516ZM11.0342 13.7412C9.12695 13.7412 7.5625 12.2031 7.5625 10.2695C7.5625 8.34473 9.11816 6.79785 11.0342 6.79785C12.9502 6.79785 14.4971 8.34473 14.4971 10.2695C14.4971 12.2031 12.9502 13.7412 11.0342 13.7412Z" fill="#5F9B8C"/>
</svg>
