<svg width="16" height="16" viewBox="0 0 16 16" fill="none" xmlns="http://www.w3.org/2000/svg">
<path d="M9.08616 9.97713C9.07275 9.41392 9.26049 8.79708 9.66277 8.27411C9.87733 7.9925 9.89074 7.83159 9.66277 7.54998C8.93865 6.70518 8.24135 5.84696 7.57087 4.96193C7.31609 4.62669 7.12836 4.55964 6.71266 4.73396C5.41192 5.31058 3.93686 4.66691 3.45412 3.33936C2.97137 2.03863 3.62844 0.617206 4.94259 0.147869C6.24332 -0.321468 7.66474 0.362423 8.10726 1.68998C8.3084 2.28 8.3084 2.88343 8.04021 3.44664C7.8927 3.74165 7.95975 3.91597 8.14749 4.14394C8.89843 5.05579 9.63596 5.96765 10.3467 6.90632C10.588 7.22815 10.7758 7.26838 11.1647 7.12088C12.8945 6.45039 14.7853 7.34884 15.3619 9.07868C15.9385 10.7951 15.0132 12.6188 13.2834 13.182C11.996 13.5977 10.6014 13.1954 9.77005 12.0824C9.50186 11.7204 9.30071 11.6936 8.91184 11.8545C7.87929 12.2568 6.84675 12.6322 5.8008 12.9943C5.50579 13.1016 5.39851 13.2223 5.39851 13.5575C5.37169 14.8314 4.52689 15.7835 3.34684 15.9712C2.15338 16.1456 1.04038 15.5153 0.624685 14.4157C0.208986 13.3161 0.638094 12.069 1.63041 11.4388C2.67636 10.7817 3.93686 10.956 4.8219 11.9349C5.03645 12.1763 5.18396 12.2165 5.49238 12.0958C6.48469 11.707 7.49042 11.3583 8.48273 10.9963C9.07275 10.7683 9.07275 10.7683 9.08616 9.97713ZM2.89091 15.0191C3.74913 15.0326 4.43302 14.3755 4.44643 13.5307C4.45984 12.6993 3.77595 12.002 2.93114 12.002C2.11315 12.002 1.44267 12.6456 1.40244 13.4636C1.37562 14.295 2.04611 15.0057 2.89091 15.0191Z" fill="#5F9B8C"/>
</svg>
