<svg width="14" height="13" viewBox="0 0 14 13" fill="none" xmlns="http://www.w3.org/2000/svg">
<path d="M2.5918 12.9102C3.38281 12.9102 5 12.1133 6.18945 11.2637C10.2734 11.375 13.3379 9.03125 13.3379 5.96094C13.3379 3.01367 10.3848 0.634766 6.69336 0.634766C3.00195 0.634766 0.0488281 3.01367 0.0488281 5.96094C0.0488281 7.88281 1.2793 9.58789 3.13086 10.4434C2.86719 10.9531 2.375 11.6445 2.11133 11.9902C1.80078 12.4004 1.98828 12.9102 2.5918 12.9102ZM3.20703 11.9375C3.16016 11.9551 3.14258 11.9199 3.17188 11.8789C3.5 11.4746 3.96875 10.8652 4.16797 10.4902C4.33203 10.1855 4.29102 9.91602 3.91602 9.74023C2.07617 8.88477 1.02148 7.51953 1.02148 5.96094C1.02148 3.55859 3.53516 1.60156 6.69336 1.60156C9.85742 1.60156 12.3711 3.55859 12.3711 5.96094C12.3711 8.35742 9.85742 10.3145 6.69336 10.3145C6.57617 10.3145 6.39453 10.3086 6.16016 10.3027C5.91406 10.3027 5.72656 10.3789 5.50391 10.5547C4.7832 11.0762 3.74023 11.7207 3.20703 11.9375Z" fill="#5F9B8C"/>
</svg>
