<svg width="4" height="20" viewBox="0 0 4 20" fill="none" xmlns="http://www.w3.org/2000/svg">
<path d="M2.04102 4.68359C3.125 4.68359 3.99414 3.80469 3.99414 2.70117C3.99414 1.62695 3.125 0.748046 2.04102 0.748046C0.957031 0.748046 0.0878905 1.62695 0.0878905 2.70117C0.0878904 3.80469 0.957031 4.68359 2.04102 4.68359ZM2.04102 11.9102C3.125 11.9102 3.99414 11.041 3.99414 9.95703C3.99414 8.88281 3.125 8.01367 2.04102 8.01367C0.957031 8.01367 0.0878902 8.88281 0.0878901 9.95703C0.0878901 11.041 0.957031 11.9102 2.04102 11.9102ZM2.04101 19.166C3.125 19.166 3.99414 18.2969 3.99414 17.2129C3.99414 16.1094 3.125 15.2402 2.04101 15.2402C0.957031 15.2402 0.0878899 16.1094 0.0878898 17.2129C0.0878898 18.2969 0.95703 19.166 2.04101 19.166Z" fill="#666666"/>
</svg>
