<svg width="13" height="15" viewBox="0 0 13 15" fill="none" xmlns="http://www.w3.org/2000/svg">
<path d="M0.548828 9.93164C0.548828 11.9004 1.82617 13.5469 3.37891 13.5469H5.31836C6.08594 13.9512 7.02344 14.1973 8.07227 14.1973H8.88086C9.61328 14.1973 10.2461 14.1504 10.6621 14.0508C11.4766 13.8516 11.9805 13.2891 11.9805 12.5684C11.9805 12.4219 11.957 12.2812 11.9102 12.1465C12.3145 11.8477 12.543 11.4023 12.543 10.916C12.543 10.6758 12.502 10.4414 12.4082 10.248C12.6836 9.97266 12.8418 9.56836 12.8418 9.14062C12.8418 8.86523 12.7715 8.57227 12.6484 8.36133C12.8184 8.12109 12.918 7.79883 12.918 7.44141C12.918 6.56836 12.2324 5.87695 11.3652 5.87695H9.14453C9.00391 5.87695 8.91016 5.8125 8.91016 5.69531C8.91016 5.05664 9.91211 3.57422 9.91211 2.38477C9.91211 1.57617 9.34375 0.990234 8.56445 0.990234C7.99023 0.990234 7.60938 1.28906 7.22852 2.01562C6.51367 3.38086 5.66406 4.59961 4.27539 6.29883H3.15625C1.71484 6.29883 0.548828 7.93359 0.548828 9.93164ZM3.95312 9.90234C3.95312 8.63672 4.24023 7.82812 5.03711 6.76172C5.91602 5.58398 7.13477 4.17188 8.01953 2.41992C8.23633 1.97461 8.38867 1.875 8.59961 1.875C8.85156 1.875 9.02734 2.05664 9.02734 2.38477C9.02734 3.33398 8.02539 4.77539 8.02539 5.69531C8.02539 6.35742 8.57617 6.76172 9.27344 6.76172H11.3652C11.7461 6.76172 12.0332 7.05469 12.0332 7.44141C12.0332 7.72266 11.9453 7.9043 11.7109 8.12695C11.6055 8.22656 11.5938 8.34375 11.6816 8.45508C11.875 8.73633 11.957 8.91211 11.957 9.14062C11.957 9.42188 11.8281 9.65625 11.5586 9.86133C11.4121 9.9668 11.3535 10.1191 11.4414 10.3008C11.5879 10.5762 11.6582 10.7051 11.6582 10.916C11.6582 11.2324 11.459 11.4727 11.0371 11.6895C10.9023 11.7656 10.873 11.877 10.9258 12.0059C11.0723 12.3633 11.0957 12.4219 11.0957 12.5684C11.0957 12.8555 10.8848 13.084 10.4512 13.1895C10.1055 13.2773 9.55469 13.3184 8.88672 13.3125L8.07812 13.3008C5.62305 13.2773 3.95312 11.8945 3.95312 9.90234ZM1.43359 9.93164C1.43359 8.41992 2.25391 7.18359 3.15625 7.18359H3.70117C3.26172 8.00391 3.06836 8.85938 3.06836 9.88477C3.06836 10.9863 3.4668 11.9355 4.17578 12.6621H3.37891C2.3418 12.6621 1.43359 11.4141 1.43359 9.93164Z" fill="#5F9B8C"/>
</svg>
