<svg width="25" height="17" viewBox="0 0 25 17" fill="none" xmlns="http://www.w3.org/2000/svg">
<path d="M17.0459 8.68945C19.1377 8.68945 20.8428 6.82617 20.8428 4.55859C20.8428 2.31738 19.1465 0.541992 17.0459 0.541992C14.9541 0.541992 13.2402 2.34375 13.249 4.57617C13.2578 6.83496 14.9541 8.68945 17.0459 8.68945ZM6.9209 8.88281C8.73145 8.88281 10.2168 7.25684 10.2168 5.26172C10.2168 3.31055 8.74902 1.7373 6.9209 1.7373C5.11035 1.7373 3.61621 3.33691 3.625 5.2793C3.625 7.26562 5.11035 8.88281 6.9209 8.88281ZM17.0459 7.3623C15.7627 7.3623 14.6641 6.13184 14.6641 4.57617C14.6553 3.04688 15.7363 1.86914 17.0459 1.86914C18.3555 1.86914 19.4277 3.0293 19.4277 4.55859C19.4277 6.11426 18.3379 7.3623 17.0459 7.3623ZM6.9209 7.57324C5.83984 7.57324 4.93457 6.54492 4.93457 5.2793C4.93457 4.04004 5.83105 3.04688 6.9209 3.04688C8.02832 3.04688 8.91602 4.02246 8.91602 5.26172C8.91602 6.54492 8.00195 7.57324 6.9209 7.57324ZM2.02539 16.9424H8.9248C8.50293 16.7051 8.18652 16.1777 8.24805 15.6416H1.81445C1.62988 15.6416 1.55078 15.5713 1.55078 15.4043C1.55078 13.2246 4.03809 11.1855 6.91211 11.1855C8.01074 11.1855 9.0127 11.4492 9.86523 11.9502C10.1377 11.5986 10.4629 11.291 10.8584 11.0186C9.72461 10.2715 8.3623 9.88477 6.91211 9.88477C3.22949 9.88477 0.241211 12.5566 0.241211 15.4834C0.241211 16.459 0.838867 16.9424 2.02539 16.9424ZM11.5176 16.9424H22.5566C24.0244 16.9424 24.7188 16.5029 24.7188 15.5361C24.7188 13.2334 21.8096 9.90234 17.0371 9.90234C12.2734 9.90234 9.36426 13.2334 9.36426 15.5361C9.36426 16.5029 10.0586 16.9424 11.5176 16.9424ZM11.0957 15.6152C10.8672 15.6152 10.7793 15.5537 10.7793 15.3691C10.7793 13.9277 13.0117 11.2295 17.0371 11.2295C21.0713 11.2295 23.3037 13.9277 23.3037 15.3691C23.3037 15.5537 23.207 15.6152 22.9785 15.6152H11.0957Z" fill="#5F9B8C"/>
</svg>
