<svg width="12" height="11" viewBox="0 0 12 11" fill="none" xmlns="http://www.w3.org/2000/svg">
<path d="M3.07617 10.7207C3.27637 10.877 3.53027 10.8232 3.83301 10.6035L6.41602 8.7041L9.00391 10.6035C9.30664 10.8232 9.55566 10.877 9.76074 10.7207C9.96094 10.5693 10.0049 10.3203 9.88281 9.96387L8.8623 6.92676L11.4697 5.05176C11.7725 4.83691 11.8945 4.6123 11.8164 4.36816C11.7383 4.13379 11.5088 4.0166 11.1328 4.02148L7.93457 4.04102L6.96289 0.989258C6.8457 0.62793 6.66992 0.447266 6.41602 0.447266C6.16699 0.447266 5.99121 0.62793 5.87402 0.989258L4.90234 4.04102L1.7041 4.02148C1.32812 4.0166 1.09863 4.13379 1.02051 4.36816C0.9375 4.6123 1.06445 4.83691 1.36719 5.05176L3.97461 6.92676L2.9541 9.96387C2.83203 10.3203 2.87598 10.5693 3.07617 10.7207ZM6.41602 7.86426V1.63379C6.43066 1.63379 6.44043 1.64355 6.44531 1.67285L7.29492 4.5C7.3584 4.7002 7.48535 4.7832 7.68555 4.77832L10.6396 4.72461C10.6689 4.72461 10.6787 4.72461 10.6836 4.73926C10.6885 4.75391 10.6787 4.76367 10.6592 4.77832L8.22754 6.45801C8.05664 6.5752 8.01758 6.72656 8.08594 6.91699L9.05762 9.70996C9.0625 9.73926 9.06738 9.74414 9.05762 9.75391C9.04785 9.76855 9.0332 9.75879 9.01367 9.74414L6.66504 7.95215C6.58691 7.89355 6.50391 7.85938 6.41602 7.86426Z" fill="#5F9B8C"/>
</svg>
