<svg width="34" height="34" viewBox="0 0 34 34" fill="none" xmlns="http://www.w3.org/2000/svg">
<circle cx="17" cy="17" r="16.66" fill="white" stroke="#5F9B8C" stroke-width="0.68"/>
<path d="M11.8933 16.3655C11.8933 16.6909 12.1656 16.9565 12.4843 16.9565H16.7808V21.253C16.7808 21.5718 17.0464 21.844 17.3718 21.844C17.6972 21.844 17.9695 21.5718 17.9695 21.253V16.9565H22.2593C22.5781 16.9565 22.8503 16.6909 22.8503 16.3655C22.8503 16.0401 22.5781 15.7678 22.2593 15.7678H17.9695V11.478C17.9695 11.1593 17.6972 10.887 17.3718 10.887C17.0464 10.887 16.7808 11.1593 16.7808 11.478V15.7678H12.4843C12.1656 15.7678 11.8933 16.0401 11.8933 16.3655Z" fill="#5F9B8C"/>
</svg>
