<svg width="12" height="12" viewBox="0 0 12 12" fill="none" xmlns="http://www.w3.org/2000/svg">
<path d="M11.2559 1.75732L11.6777 1.32373C11.877 1.11279 11.877 0.831543 11.6777 0.638184L11.543 0.497559C11.3613 0.315918 11.0742 0.339355 10.8809 0.526855L10.4531 0.94873L11.2559 1.75732ZM4.20703 8.1499L5.34961 7.65186L10.8223 2.18506L10.0195 1.39404L4.55273 6.86084L4.02539 7.9624C3.97852 8.06201 4.0957 8.19678 4.20703 8.1499ZM2.07422 11.9468H8.95312C10.0078 11.9468 10.6172 11.3374 10.6172 10.1304V3.8667L9.67383 4.81006V10.0835C9.67383 10.6929 9.3457 11.0034 8.94141 11.0034H2.0918C1.50586 11.0034 1.17773 10.6929 1.17773 10.0835V3.43311C1.17773 2.82373 1.50586 2.50732 2.0918 2.50732H7.42969L8.37305 1.56396H2.07422C0.855469 1.56396 0.234375 2.17334 0.234375 3.38037V10.1304C0.234375 11.3433 0.855469 11.9468 2.07422 11.9468Z" fill="white"/>
</svg>
