<svg width="14" height="11" viewBox="0 0 14 11" fill="none" xmlns="http://www.w3.org/2000/svg">
<path d="M2.01562 10.9585H12.1523C13.3828 10.9585 13.9922 10.355 13.9922 9.14795V1.98779C13.9922 0.780762 13.3828 0.171387 12.1523 0.171387H2.01562C0.791016 0.171387 0.175781 0.780762 0.175781 1.98779V9.14795C0.175781 10.355 0.791016 10.9585 2.01562 10.9585ZM2.02734 10.0151C1.44141 10.0151 1.11914 9.70459 1.11914 9.09521V2.04053C1.11914 1.43115 1.44141 1.11475 2.02734 1.11475H12.1406C12.7207 1.11475 13.0488 1.43115 13.0488 2.04053V9.09521C13.0488 9.70459 12.7207 10.0151 12.1406 10.0151H11.0273C10.5352 8.55615 8.97656 7.5249 7.08984 7.5249C5.19727 7.5249 3.63867 8.55615 3.15234 10.0151H2.02734ZM7.08984 6.54639C8.20898 6.55811 9.09375 5.60303 9.09375 4.34912C9.09375 3.17139 8.20898 2.19873 7.08984 2.19873C5.9707 2.19873 5.08008 3.17139 5.08594 4.34912C5.0918 5.60303 5.9707 6.53467 7.08984 6.54639Z" fill="white"/>
</svg>
