<svg width="14" height="13" viewBox="0 0 14 13" fill="none" xmlns="http://www.w3.org/2000/svg">
<path d="M3.19141 12.2573C3.43164 12.4448 3.73633 12.3804 4.09961 12.1167L7.19922 9.8374L10.3047 12.1167C10.668 12.3804 10.9668 12.4448 11.2129 12.2573C11.4531 12.0757 11.5059 11.7769 11.3594 11.3491L10.1348 7.70459L13.2637 5.45459C13.627 5.19678 13.7734 4.92725 13.6797 4.63428C13.5859 4.35303 13.3105 4.2124 12.8594 4.21826L9.02148 4.2417L7.85547 0.57959C7.71484 0.145996 7.50391 -0.0708008 7.19922 -0.0708008C6.90039 -0.0708008 6.68945 0.145996 6.54883 0.57959L5.38281 4.2417L1.54492 4.21826C1.09375 4.2124 0.818359 4.35303 0.724609 4.63428C0.625 4.92725 0.777344 5.19678 1.14062 5.45459L4.26953 7.70459L3.04492 11.3491C2.89844 11.7769 2.95117 12.0757 3.19141 12.2573ZM7.19922 8.82959V1.35303C7.2168 1.35303 7.22852 1.36475 7.23438 1.3999L8.25391 4.79248C8.33008 5.03271 8.48242 5.13232 8.72266 5.12646L12.2676 5.06201C12.3027 5.06201 12.3145 5.06201 12.3203 5.07959C12.3262 5.09717 12.3145 5.10889 12.291 5.12646L9.37305 7.14209C9.16797 7.28271 9.12109 7.46436 9.20312 7.69287L10.3691 11.0444C10.375 11.0796 10.3809 11.0854 10.3691 11.0972C10.3574 11.1147 10.3398 11.103 10.3164 11.0854L7.49805 8.93506C7.4043 8.86475 7.30469 8.82373 7.19922 8.82959Z" fill="white"/>
</svg>
