<svg width="21" height="16" viewBox="0 0 21 16" fill="none" xmlns="http://www.w3.org/2000/svg">
<path d="M1.7207 3.28125C2.4043 3.28125 2.95117 2.73438 2.95117 2.06055C2.95117 1.37695 2.4043 0.830078 1.7207 0.830078C1.03711 0.830078 0.490234 1.37695 0.490234 2.06055C0.490234 2.73438 1.03711 3.28125 1.7207 3.28125ZM6.03711 2.8418H19.377C19.8164 2.8418 20.168 2.5 20.168 2.06055C20.168 1.61133 19.8164 1.26953 19.377 1.26953H6.03711C5.58789 1.26953 5.24609 1.61133 5.24609 2.06055C5.24609 2.5 5.58789 2.8418 6.03711 2.8418ZM1.7207 9.18945C2.4043 9.18945 2.95117 8.64258 2.95117 7.95898C2.95117 7.27539 2.4043 6.72852 1.7207 6.72852C1.03711 6.72852 0.490234 7.27539 0.490234 7.95898C0.490234 8.64258 1.03711 9.18945 1.7207 9.18945ZM6.03711 8.75H19.377C19.8164 8.75 20.168 8.39844 20.168 7.95898C20.168 7.51953 19.8164 7.17773 19.377 7.17773H6.03711C5.58789 7.17773 5.24609 7.51953 5.24609 7.95898C5.24609 8.39844 5.58789 8.75 6.03711 8.75ZM1.7207 15.0977C2.4043 15.0977 2.95117 14.541 2.95117 13.8672C2.95117 13.1836 2.4043 12.6367 1.7207 12.6367C1.03711 12.6367 0.490234 13.1836 0.490234 13.8672C0.490234 14.541 1.03711 15.0977 1.7207 15.0977ZM6.03711 14.6484H19.377C19.8164 14.6484 20.168 14.3066 20.168 13.8672C20.168 13.418 19.8164 13.0762 19.377 13.0762H6.03711C5.58789 13.0762 5.24609 13.418 5.24609 13.8672C5.24609 14.3066 5.58789 14.6484 6.03711 14.6484Z" fill="#5F9B8C"/>
</svg>
