<svg width="19" height="21" viewBox="0 0 19 21" fill="none" xmlns="http://www.w3.org/2000/svg">
<path d="M15.3477 11.1904L8.8877 17.6504C7.20898 19.3379 4.9502 19.1709 3.50879 17.7119C2.05859 16.2705 1.8916 14.0293 3.57031 12.3418L12.3857 3.53516C13.3965 2.52441 14.8818 2.38379 15.8486 3.3418C16.8066 4.31738 16.666 5.79395 15.6641 6.80469L7.05078 15.418C6.62012 15.8662 6.09277 15.7344 5.79395 15.4355C5.49512 15.1279 5.37207 14.6182 5.80273 14.1699L11.8232 8.16699C12.0869 7.89453 12.1045 7.50781 11.8496 7.25293C11.5947 7.00684 11.208 7.02441 10.9443 7.28809L4.90625 13.3262C4.00977 14.2227 4.04492 15.5938 4.83594 16.3848C5.69727 17.2461 6.99805 17.2285 7.90332 16.3232L16.5518 7.6748C18.1953 6.03125 18.125 3.86914 16.6924 2.43652C15.2949 1.03906 13.0977 0.933594 11.4541 2.57715L2.59473 11.4453C0.423828 13.6162 0.59082 16.7188 2.55078 18.6787C4.51074 20.6299 7.61328 20.7969 9.78418 18.6348L16.2881 12.1309C16.543 11.876 16.543 11.4102 16.2793 11.1729C16.0244 10.9004 15.6113 10.9355 15.3477 11.1904Z" fill="#5F9B8C"/>
</svg>
