<svg width="7" height="9" viewBox="0 0 7 9" fill="none" xmlns="http://www.w3.org/2000/svg">
<path d="M4.51879 5.39533C4.46935 5.37916 4.15687 5.23831 4.35213 4.64474H4.34933C4.85833 4.12051 5.24731 3.27694 5.24731 2.44644C5.24731 1.16944 4.39815 0.5 3.41125 0.5C2.42372 0.5 1.57923 1.16913 1.57923 2.44644C1.57923 3.28036 1.96603 4.12735 2.47814 4.65034C2.67776 5.17395 2.32081 5.36828 2.24618 5.39533C1.21264 5.76938 0 6.45064 0 7.12319V7.37535C0 8.29167 1.77667 8.5 3.42089 8.5C5.06759 8.5 6.82187 8.29167 6.82187 7.37535V7.12319C6.82187 6.43043 5.60333 5.75446 4.51879 5.39533ZM2.80368 8.10325C2.80368 7.31068 3.30833 6.24076 3.30833 6.24076L2.95915 5.96683C2.95915 5.70502 3.41094 5.43109 3.41094 5.43109C3.41094 5.43109 3.86148 5.70937 3.86148 5.96683L3.51355 6.24076C3.51355 6.24076 4.01819 7.30664 4.01819 8.11195C4.01819 8.23819 2.80368 8.20897 2.80368 8.10325Z" fill="#A6A6A6"/>
</svg>
