<svg width="52" height="42" viewBox="0 0 52 42" fill="none" xmlns="http://www.w3.org/2000/svg">
<path d="M38.8393 0H12.9464L10.3571 15.5357H41.4286L38.8393 0ZM0 20.7143C0 20.7143 5.17857 23.3036 25.8929 23.3036C46.6071 23.3036 51.7857 20.7143 51.7857 20.7143L41.4286 15.5357H10.3571L0 20.7143ZM20.7143 31.0714H31.0714V33.6607H20.7143V31.0714Z" fill="#D9D9D9"/>
<path d="M15.5379 41.4283C19.8279 41.4283 23.3057 37.9505 23.3057 33.6604C23.3057 29.3704 19.8279 25.8926 15.5379 25.8926C11.2478 25.8926 7.77002 29.3704 7.77002 33.6604C7.77002 37.9505 11.2478 41.4283 15.5379 41.4283Z" fill="#D9D9D9"/>
<path d="M36.2498 41.4283C40.5399 41.4283 44.0176 37.9505 44.0176 33.6604C44.0176 29.3704 40.5399 25.8926 36.2498 25.8926C31.9597 25.8926 28.4819 29.3704 28.4819 33.6604C28.4819 37.9505 31.9597 41.4283 36.2498 41.4283Z" fill="#D9D9D9"/>
</svg>
