<svg width="26" height="11" viewBox="0 0 26 11" fill="none" xmlns="http://www.w3.org/2000/svg">
<path d="M6.78125 10.7344C9.4375 10.7344 11.5938 8.60938 11.6484 5.95312C11.9766 5.83594 12.3594 5.77344 12.7266 5.77344C13.0859 5.77344 13.4688 5.83594 13.7969 5.95312C13.8516 8.60938 16.0156 10.7344 18.6797 10.7344C21.1797 10.7344 23.25 8.83594 23.5234 6.39844H24.4688C24.8516 6.39844 25.0469 6.19531 25.0469 5.80469V5.48438C25.0469 5.09375 24.8516 4.89844 24.4688 4.89844H23.4531C23.0078 2.67188 21.0312 0.984375 18.6797 0.984375C16.4062 0.984375 14.5 2.53906 13.9531 4.63281C13.5547 4.49219 13.0938 4.4375 12.7266 4.4375C12.3594 4.4375 11.8906 4.49219 11.4922 4.63281C10.9531 2.53906 9.04688 0.984375 6.78125 0.984375C4.41406 0.984375 2.4375 2.67188 1.99219 4.89844H0.984375C0.601562 4.89844 0.398438 5.09375 0.398438 5.48438V5.80469C0.398438 6.19531 0.601562 6.39844 0.984375 6.39844H1.92969C2.19531 8.83594 4.26562 10.7344 6.78125 10.7344ZM6.78125 9.41406C4.8125 9.41406 3.21875 7.82812 3.21875 5.85938C3.21875 3.89844 4.8125 2.30469 6.78125 2.30469C8.73438 2.30469 10.3281 3.90625 10.3281 5.85938C10.3281 7.82031 8.73438 9.41406 6.78125 9.41406ZM18.6797 9.41406C16.7188 9.41406 15.1172 7.82031 15.1172 5.85938C15.1172 3.90625 16.7188 2.30469 18.6797 2.30469C20.6406 2.30469 22.2266 3.89844 22.2266 5.85938C22.2266 7.82812 20.6406 9.41406 18.6797 9.41406Z" fill="#5F9B8C"/>
</svg>
