<svg width="25" height="21" viewBox="0 0 25 21" fill="none" xmlns="http://www.w3.org/2000/svg">
<path d="M3.55664 18.9531H13.7227C13.4395 18.4648 13.2246 17.9375 13.0879 17.3809H3.41016C2.54102 17.3809 2.0625 16.9219 2.0625 16.0137V6.80469C2.0625 5.90625 2.54102 5.4375 3.41016 5.4375H17.0234C17.8926 5.4375 18.3809 5.90625 18.3809 6.80469V9.57812C18.6641 9.54883 18.918 9.5293 19.1816 9.5293C19.4355 9.5293 19.6992 9.54883 19.9531 9.57812V4.00195C19.9531 1.99023 18.9375 0.974609 16.8965 0.974609H3.55664C1.51562 0.974609 0.490234 1.98047 0.490234 4.00195V15.9258C0.490234 17.9473 1.51562 18.9531 3.55664 18.9531ZM8.3125 8.94336H8.88867C9.23047 8.94336 9.34766 8.8457 9.34766 8.50391V7.92773C9.34766 7.58594 9.23047 7.47852 8.88867 7.47852H8.3125C7.9707 7.47852 7.85352 7.58594 7.85352 7.92773V8.50391C7.85352 8.8457 7.9707 8.94336 8.3125 8.94336ZM11.5645 8.94336H12.1309C12.4727 8.94336 12.5898 8.8457 12.5898 8.50391V7.92773C12.5898 7.58594 12.4727 7.47852 12.1309 7.47852H11.5645C11.2129 7.47852 11.1055 7.58594 11.1055 7.92773V8.50391C11.1055 8.8457 11.2129 8.94336 11.5645 8.94336ZM14.8066 8.94336H15.3828C15.7246 8.94336 15.832 8.8457 15.832 8.50391V7.92773C15.832 7.58594 15.7246 7.47852 15.3828 7.47852H14.8066C14.4648 7.47852 14.3477 7.58594 14.3477 7.92773V8.50391C14.3477 8.8457 14.4648 8.94336 14.8066 8.94336ZM5.07031 12.1367H5.64648C5.98828 12.1367 6.0957 12.0391 6.0957 11.6973V11.1211C6.0957 10.7793 5.98828 10.6816 5.64648 10.6816H5.07031C4.72852 10.6816 4.61133 10.7793 4.61133 11.1211V11.6973C4.61133 12.0391 4.72852 12.1367 5.07031 12.1367ZM8.3125 12.1367H8.88867C9.23047 12.1367 9.34766 12.0391 9.34766 11.6973V11.1211C9.34766 10.7793 9.23047 10.6816 8.88867 10.6816H8.3125C7.9707 10.6816 7.85352 10.7793 7.85352 11.1211V11.6973C7.85352 12.0391 7.9707 12.1367 8.3125 12.1367ZM11.5645 12.1367H12.1309C12.4727 12.1367 12.5898 12.0391 12.5898 11.6973V11.1211C12.5898 10.7793 12.4727 10.6816 12.1309 10.6816H11.5645C11.2129 10.6816 11.1055 10.7793 11.1055 11.1211V11.6973C11.1055 12.0391 11.2129 12.1367 11.5645 12.1367ZM19.1816 20.7891C21.8672 20.7891 24.1426 18.543 24.1426 15.8281C24.1426 13.1035 21.8965 10.8672 19.1816 10.8672C16.457 10.8672 14.2207 13.1133 14.2207 15.8281C14.2207 18.5625 16.457 20.7891 19.1816 20.7891ZM19.1816 18.9336C18.8203 18.9336 18.5859 18.6992 18.5859 18.3379V16.4238H16.6719C16.3203 16.4238 16.0762 16.1895 16.0762 15.8281C16.0762 15.4668 16.3203 15.2324 16.6719 15.2324H18.5859V13.3184C18.5859 12.9668 18.8203 12.7227 19.1816 12.7227C19.543 12.7227 19.7773 12.9668 19.7773 13.3184V15.2324H21.6816C22.043 15.2324 22.2871 15.4668 22.2871 15.8281C22.2871 16.1895 22.043 16.4238 21.6816 16.4238H19.7773V18.3379C19.7773 18.6992 19.543 18.9336 19.1816 18.9336ZM5.07031 15.3398H5.64648C5.98828 15.3398 6.0957 15.2324 6.0957 14.8906V14.3145C6.0957 13.9727 5.98828 13.875 5.64648 13.875H5.07031C4.72852 13.875 4.61133 13.9727 4.61133 14.3145V14.8906C4.61133 15.2324 4.72852 15.3398 5.07031 15.3398ZM8.3125 15.3398H8.88867C9.23047 15.3398 9.34766 15.2324 9.34766 14.8906V14.3145C9.34766 13.9727 9.23047 13.875 8.88867 13.875H8.3125C7.9707 13.875 7.85352 13.9727 7.85352 14.3145V14.8906C7.85352 15.2324 7.9707 15.3398 8.3125 15.3398ZM11.5645 15.3398H12.1309C12.4727 15.3398 12.5898 15.2324 12.5898 14.8906V14.3145C12.5898 13.9727 12.4727 13.875 12.1309 13.875H11.5645C11.2129 13.875 11.1055 13.9727 11.1055 14.3145V14.8906C11.1055 15.2324 11.2129 15.3398 11.5645 15.3398Z" fill="#5F9B8C"/>
</svg>
