<svg width="21" height="21" viewBox="0 0 21 21" fill="none" xmlns="http://www.w3.org/2000/svg">
<path d="M10.709 20.9102C16.1582 20.9102 20.6699 16.3887 20.6699 10.9492C20.6699 5.5 16.1484 0.988281 10.6992 0.988281C5.25977 0.988281 0.748047 5.5 0.748047 10.9492C0.748047 16.3887 5.26953 20.9102 10.709 20.9102ZM10.709 19.25C6.09961 19.25 2.41797 15.5586 2.41797 10.9492C2.41797 6.33984 6.08984 2.64844 10.6992 2.64844C15.3086 2.64844 19 6.33984 19.0098 10.9492C19.0195 15.5586 15.3184 19.25 10.709 19.25ZM6.87109 11.7793H14.5371C15.084 11.7793 15.4551 11.4863 15.4551 10.9688C15.4551 10.4414 15.1035 10.1387 14.5371 10.1387H6.87109C6.30469 10.1387 5.94336 10.4414 5.94336 10.9688C5.94336 11.4863 6.32422 11.7793 6.87109 11.7793Z" fill="#5F9B8C"/>
</svg>
