<svg width="32" height="29" viewBox="0 0 32 29" fill="none" xmlns="http://www.w3.org/2000/svg">
<path d="M15.0096 2.60562C9.30998 3.89754 4.52229 4.98047 4.3703 5.05646C4.21831 5.11346 9.65196 5.17045 16.4535 5.17045L28.8407 5.18945L28.4608 3.51756C27.9478 1.21871 27.4538 0.57275 26.0289 0.382762C25.5919 0.306767 21.9252 1.04772 15.0096 2.60562Z" fill="#666666"/>
<path d="M1.40591 6.21488C1.08293 6.36687 0.645958 6.70885 0.417973 6.99383C0 7.52579 0 7.56379 0 17.1772V26.8096L0.493968 27.3985C0.759951 27.7215 1.29192 28.0635 1.67189 28.1775C2.64083 28.4434 29.2961 28.4434 30.2461 28.1775C30.683 28.0445 31.158 27.7215 31.443 27.3415C31.899 26.7336 31.9179 26.6006 31.9179 24.0357V21.3379H30.2081C28.3652 21.3379 27.4152 21.0719 26.6363 20.331C25.3254 19.115 24.9454 16.6642 25.8383 15.0873C26.1043 14.6313 26.6363 13.9854 27.0353 13.6624C27.7382 13.1114 27.8522 13.0734 29.8471 13.0164L31.9179 12.9404V10.2236C31.9179 7.73478 31.88 7.4688 31.5 6.99383C30.664 5.9299 31.025 5.94889 15.921 5.94889C4.6927 5.96789 1.88088 6.00589 1.40591 6.21488ZM17.9348 10.8886C18.9038 11.1926 19.4358 11.5155 20.2907 12.3135C21.8296 13.7384 22.4946 15.2013 22.4946 17.1582C22.5136 18.4121 22.4186 18.7731 21.8866 19.856C21.1646 21.3379 19.9677 22.5158 18.4668 23.1998C16.9469 23.8837 14.971 23.8837 13.4511 23.1998C8.70144 21.0149 7.97949 15.0113 12.1022 11.8575C13.0332 11.1356 14.7431 10.5276 15.883 10.5276C16.32 10.5086 17.2509 10.6796 17.9348 10.8886Z" fill="#666666"/>
<path d="M14.1532 11.781C13.6213 11.971 12.9183 12.3319 12.5573 12.5789C11.0564 13.6618 10.1065 15.8087 10.3345 17.6896C10.6954 20.7294 12.8993 22.7433 15.8441 22.7433C17.497 22.7623 18.352 22.4773 19.5489 21.5273C20.8978 20.4444 21.5627 19.0195 21.5437 17.1576C21.5437 15.5427 21.1448 14.4408 20.1568 13.3009C18.8079 11.762 16.1101 11.078 14.1532 11.781ZM16.4141 14.6118C16.4711 14.7828 16.5281 15.4097 16.5281 16.0177C16.5281 17.4806 16.2811 17.7276 14.8182 17.7276C13.4693 17.7276 13.1083 17.6136 13.1083 17.1576C13.1083 16.7396 13.4693 16.5877 14.5522 16.5877H15.3881V15.7517C15.3881 14.6688 15.5401 14.3078 15.9581 14.3078C16.1481 14.3078 16.3571 14.4408 16.4141 14.6118Z" fill="#666666"/>
<path d="M27.7004 14.2132C27.0164 14.5932 26.4275 15.6001 26.2945 16.664C26.1425 17.747 26.5605 18.9629 27.3774 19.7418C27.9284 20.2738 28.0424 20.2928 29.9423 20.3498L31.9181 20.4258V17.177V13.9282H30.0752C28.8213 13.9472 28.0424 14.0422 27.7004 14.2132Z" fill="#666666"/>
</svg>
