<svg width="48" height="48" viewBox="0 0 48 48" fill="none" xmlns="http://www.w3.org/2000/svg">
<g filter="url(#filter0_b_4790_204870)">
<circle opacity="0.6" cx="24" cy="24" r="24" fill="#E1555A"/>
<path d="M19.0898 29.8477C22.4766 33.2344 26.5898 35.8477 29.9531 35.8477C31.4648 35.8477 32.7891 35.3203 33.8555 34.1484C34.4766 33.457 34.8633 32.6484 34.8633 31.8516C34.8633 31.2656 34.6406 30.7031 34.0898 30.3047L30.4922 27.75C29.9414 27.375 29.4844 27.1875 29.0625 27.1875C28.5352 27.1875 28.0547 27.4922 27.5156 28.0195L26.6836 28.8398C26.5547 28.9688 26.3906 29.0273 26.2383 29.0273C26.0625 29.0273 25.8867 28.957 25.7695 28.8984C25.043 28.5117 23.8008 27.4453 22.6406 26.2969C21.4922 25.1484 20.4258 23.9062 20.0508 23.1797C19.9922 23.0508 19.9219 22.8867 19.9219 22.7109C19.9219 22.5586 19.9688 22.4062 20.0977 22.2773L20.9297 21.4219C21.4453 20.8828 21.7617 20.4141 21.7617 19.875C21.7617 19.4531 21.5625 18.9961 21.1758 18.4453L18.6562 14.8945C18.2461 14.332 17.6719 14.0859 17.0391 14.0859C16.2656 14.0859 15.4688 14.4375 14.7773 15.1055C13.6406 16.1953 13.1367 17.543 13.1367 19.0312C13.1367 22.3945 15.7031 26.4727 19.0898 29.8477Z" fill="white"/>
</g>
<defs>
<filter id="filter0_b_4790_204870" x="-4" y="-4" width="56" height="56" filterUnits="userSpaceOnUse" color-interpolation-filters="sRGB">
<feFlood flood-opacity="0" result="BackgroundImageFix"/>
<feGaussianBlur in="BackgroundImage" stdDeviation="2"/>
<feComposite in2="SourceAlpha" operator="in" result="effect1_backgroundBlur_4790_204870"/>
<feBlend mode="normal" in="SourceGraphic" in2="effect1_backgroundBlur_4790_204870" result="shape"/>
</filter>
</defs>
</svg>
