<svg width="20" height="14" viewBox="0 0 20 14" fill="none" xmlns="http://www.w3.org/2000/svg">
<path d="M2.77344 13.4934C1.20312 13.4934 0.265625 12.5872 0.265625 11.0168V3.27466C0.265625 1.71216 1.27344 0.805908 2.77344 0.805908H11.2422C12.8125 0.805908 13.6719 1.71216 13.6719 3.27466V11.0168C13.6719 12.5872 12.7344 13.4934 11.1641 13.4934H2.77344ZM14.7344 9.45435V4.83716L17.5781 2.38403C17.8438 2.14966 18.1562 2.00122 18.4375 2.00122C19.0469 2.00122 19.4453 2.44653 19.4453 3.08716V11.2122C19.4453 11.8528 19.0469 12.2981 18.4375 12.2981C18.1562 12.2981 17.8438 12.1497 17.5781 11.9153L14.7344 9.45435Z" fill="#5F9B8C"/>
</svg>
