<svg width="16" height="11" viewBox="0 0 16 11" fill="none" xmlns="http://www.w3.org/2000/svg">
<path d="M2.78516 10.6387H8.87305C10.1855 10.6387 10.9297 9.91211 10.9297 8.63477V2.9043C10.9297 1.62695 10.2266 0.894531 8.91406 0.894531H2.78516C1.51367 0.894531 0.728516 1.62695 0.728516 2.9043V8.69336C0.728516 9.9707 1.47266 10.6387 2.78516 10.6387ZM11.8262 7.74414L13.7539 9.40234C14.0234 9.63086 14.293 9.7832 14.5566 9.7832C15.0488 9.7832 15.3887 9.43164 15.3887 8.9043V2.68164C15.3887 2.1543 15.0488 1.80273 14.5566 1.80273C14.2871 1.80273 14.0234 1.95508 13.7539 2.17773L11.8262 3.83594V7.74414Z" fill="#5F9B8C"/>
</svg>
