<svg width="21" height="17" viewBox="0 0 21 17" fill="none" xmlns="http://www.w3.org/2000/svg">
<path d="M15.8438 16.573L0.40625 1.15112C0.179688 0.924561 0.179688 0.526123 0.40625 0.299561C0.640625 0.057373 1.03125 0.0651855 1.26562 0.299561L16.6953 15.7214C16.9297 15.9558 16.9219 16.3308 16.6953 16.573C16.4688 16.8074 16.0781 16.8074 15.8438 16.573ZM12.6172 1.98706C14.5234 1.98706 15.6641 3.09644 15.6641 4.99487V6.073L18.6172 3.573C18.9297 3.31519 19.2734 3.1355 19.5938 3.1355C20.2812 3.1355 20.7344 3.64331 20.7344 4.36987V12.448C20.7344 13.1746 20.2812 13.6824 19.5938 13.6824C19.2734 13.6824 18.9297 13.5027 18.6172 13.2449L15.6641 10.7449V11.9167C15.6641 12.3464 15.5781 12.7839 15.4297 13.1355L14.3359 12.0417C14.3828 11.8933 14.4062 11.7605 14.4062 11.573V5.18237C14.4062 3.823 13.6719 3.15894 12.3984 3.15894H5.45312L4.28125 1.98706H12.6172ZM4.45312 14.8308C2.54688 14.8308 1.40625 13.7214 1.40625 11.8152V3.52612L2.66406 4.79175V11.6355C2.66406 12.9871 3.39062 13.6511 4.67188 13.6511H11.5859L12.7578 14.8308H4.45312ZM19.2031 12.1824C19.2734 12.2292 19.3203 12.2683 19.3906 12.2683C19.4844 12.2683 19.5234 12.198 19.5234 12.0886V4.72925C19.5234 4.61987 19.4844 4.54175 19.3906 4.54175C19.3203 4.54175 19.2734 4.58081 19.2031 4.6355L15.6641 7.55737V9.2605L19.2031 12.1824Z" fill="#5F9B8C"/>
</svg>
