<svg width="36" height="36" viewBox="0 0 36 36" fill="none" xmlns="http://www.w3.org/2000/svg">
<g filter="url(#filter0_b_4790_204882)">
<circle opacity="0.6" cx="18" cy="18" r="18" fill="#5F9B8C"/>
<path d="M12 13.1641C11.7031 13.5 11.7422 13.9141 12.0547 14.1328C12.3594 14.3516 12.7266 14.2812 12.9844 13.9922C14.2031 12.6016 16 11.7188 18 11.7188C21.3984 11.7188 24.1719 14.2422 24.5781 17.5312H23.4141C22.8594 17.5312 22.7188 17.9062 23.0156 18.3359L24.7656 20.8281C25.0156 21.1875 25.3906 21.1953 25.6484 20.8281L27.3906 18.3438C27.7031 17.9062 27.5547 17.5312 26.9922 17.5312H25.9219C25.4922 13.5547 22.0703 10.3906 18 10.3906C15.6172 10.3906 13.4688 11.4688 12 13.1641ZM8.60156 18.3828C8.29688 18.8125 8.4375 19.1953 9 19.1953H10.0781C10.5 23.1719 13.9297 26.3281 18 26.3281C20.3828 26.3281 22.5391 25.2422 24.0078 23.5547C24.2969 23.2188 24.2578 22.7969 23.9531 22.5781C23.6484 22.3594 23.2734 22.4375 23.0234 22.7266C21.8125 24.125 20.0156 25 18 25C14.5938 25 11.8203 22.4766 11.4219 19.1953H12.5859C13.1406 19.1953 13.2812 18.8125 12.9844 18.3906L11.2344 15.8984C10.9844 15.5391 10.6094 15.5312 10.3516 15.8984L8.60156 18.3828Z" fill="white"/>
</g>
<defs>
<filter id="filter0_b_4790_204882" x="-4" y="-4" width="44" height="44" filterUnits="userSpaceOnUse" color-interpolation-filters="sRGB">
<feFlood flood-opacity="0" result="BackgroundImageFix"/>
<feGaussianBlur in="BackgroundImage" stdDeviation="2"/>
<feComposite in2="SourceAlpha" operator="in" result="effect1_backgroundBlur_4790_204882"/>
<feBlend mode="normal" in="SourceGraphic" in2="effect1_backgroundBlur_4790_204882" result="shape"/>
</filter>
</defs>
</svg>
