<svg width="14" height="14" viewBox="0 0 14 14" fill="none" xmlns="http://www.w3.org/2000/svg">
<path d="M0.744141 13.209C1.07617 13.5508 1.65234 13.541 1.98438 13.209L6.98438 8.19922L11.9941 13.209C12.3262 13.541 12.8926 13.5508 13.2246 13.209C13.5762 12.8672 13.5664 12.3008 13.2246 11.9688L8.22461 6.95898L13.2246 1.95898C13.5664 1.62695 13.5762 1.05078 13.2246 0.71875C12.8926 0.376953 12.3262 0.386719 11.9941 0.71875L6.98438 5.72852L1.98438 0.71875C1.65234 0.386719 1.07617 0.376953 0.744141 0.71875C0.402344 1.05078 0.412109 1.62695 0.744141 1.95898L5.75391 6.95898L0.744141 11.9688C0.412109 12.3008 0.402344 12.8672 0.744141 13.209Z" fill="#A6A6A6"/>
</svg>
