<svg width="29" height="26" viewBox="0 0 29 26" fill="none" xmlns="http://www.w3.org/2000/svg">
<path d="M6.58496 24.502C8.03516 24.502 11 23.041 13.1807 21.4834C20.668 21.6875 26.2861 17.3906 26.2861 11.7617C26.2861 6.3584 20.8721 1.99707 14.1045 1.99707C7.33691 1.99707 1.92285 6.3584 1.92285 11.7617C1.92285 15.2852 4.17871 18.4111 7.57324 19.9795C7.08984 20.9141 6.1875 22.1816 5.7041 22.8154C5.13477 23.5674 5.47852 24.502 6.58496 24.502ZM7.71289 22.7188C7.62695 22.751 7.59473 22.6865 7.64844 22.6113C8.25 21.8701 9.10938 20.7529 9.47461 20.0654C9.77539 19.5068 9.7002 19.0127 9.0127 18.6904C5.63965 17.1221 3.70605 14.6191 3.70605 11.7617C3.70605 7.35742 8.31445 3.76953 14.1045 3.76953C19.9053 3.76953 24.5137 7.35742 24.5137 11.7617C24.5137 16.1553 19.9053 19.7432 14.1045 19.7432C13.8896 19.7432 13.5566 19.7324 13.127 19.7217C12.6758 19.7217 12.332 19.8613 11.9238 20.1836C10.6025 21.1396 8.69043 22.3213 7.71289 22.7188Z" fill="#5F9B8C"/>
<path d="M16.8218 11.9854C17.96 11.9854 18.8564 11.0186 18.8564 9.79688C18.8564 8.61475 17.9424 7.63916 16.8218 7.63916C15.7056 7.63916 14.7871 8.61914 14.7915 9.79688C14.7959 11.0186 15.688 11.9854 16.8218 11.9854ZM11.6011 12.082C12.5986 12.082 13.3896 11.2251 13.3896 10.1484C13.3896 9.11133 12.5767 8.24561 11.6011 8.24561C10.6167 8.24561 9.80371 9.11572 9.80811 10.1528C9.8125 11.2339 10.6035 12.082 11.6011 12.082ZM16.8218 10.79C16.3691 10.79 15.9912 10.3726 15.9912 9.79248C15.9868 9.26514 16.3823 8.83447 16.8218 8.83447C17.27 8.83447 17.6567 9.26074 17.6567 9.79688C17.6567 10.3638 17.2832 10.79 16.8218 10.79ZM11.6011 10.9087C11.2671 10.9087 10.9858 10.5879 10.9858 10.1528C10.9771 9.75293 11.2759 9.42334 11.6011 9.42334C11.9219 9.42334 12.2163 9.75293 12.2163 10.1484C12.2163 10.5879 11.9395 10.9087 11.6011 10.9087ZM14.1763 16.1646H19.4717C20.3506 16.1646 20.7988 15.8438 20.7988 15.1802C20.7988 13.7432 19.0674 12.3589 16.8218 12.3589C14.5806 12.3589 12.8491 13.7432 12.8491 15.1802C12.8491 15.8438 13.2974 16.1646 14.1763 16.1646ZM9.28955 16.1689H12.5503C12.1855 15.936 12.0186 15.3911 12.0625 14.9912H9.52246C9.46533 14.9912 9.45654 14.9561 9.45654 14.9253C9.45654 14.2617 10.3838 13.5322 11.6011 13.5322C11.834 13.5322 12.3086 13.6157 12.502 13.6685C12.6777 13.2993 12.9546 12.9917 13.3765 12.7456C12.8667 12.5215 12.1152 12.3633 11.6011 12.3633C9.67627 12.3633 8.12061 13.6597 8.12061 15.1187C8.12061 15.791 8.50732 16.1689 9.28955 16.1689ZM14.3257 14.9692C14.2686 14.9692 14.2554 14.9341 14.2554 14.8989C14.2554 14.4419 15.2178 13.5542 16.8218 13.5542C18.4302 13.5542 19.3926 14.4419 19.3926 14.8989C19.3926 14.9341 19.3794 14.9692 19.3223 14.9692H14.3257Z" fill="#5F9B8C"/>
</svg>
