<svg width="17" height="12" viewBox="0 0 17 12" fill="none" xmlns="http://www.w3.org/2000/svg">
<path d="M11.8262 5.85156C13.2559 5.85156 14.4102 4.59766 14.4102 3.04492C14.4102 1.52734 13.2559 0.302734 11.8262 0.302734C10.4023 0.302734 9.23047 1.53906 9.23633 3.05664C9.24219 4.59766 10.3906 5.85156 11.8262 5.85156ZM5.00586 5.98047C6.25391 5.98047 7.26172 4.87891 7.26172 3.51367C7.26172 2.18945 6.25391 1.10547 5.00586 1.10547C3.76953 1.10547 2.74414 2.20117 2.75 3.52539C2.75 4.88477 3.76367 5.98047 5.00586 5.98047ZM11.8262 4.73828C11.0469 4.73828 10.3906 4.00586 10.3906 3.05078C10.3848 2.13086 11.0469 1.41602 11.8262 1.41602C12.6113 1.41602 13.2617 2.125 13.2617 3.04492C13.2617 3.99414 12.6113 4.73828 11.8262 4.73828ZM5.00586 4.89062C4.37305 4.89062 3.83984 4.28711 3.83984 3.52539C3.83984 2.79297 4.37305 2.20117 5.00586 2.20117C5.64453 2.20117 6.17188 2.78125 6.17188 3.51367C6.17188 4.28711 5.63867 4.89062 5.00586 4.89062ZM1.80078 11.377H6.31836C5.97266 11.1719 5.76172 10.7031 5.80273 10.2871H1.80078C1.69531 10.2871 1.6543 10.2402 1.6543 10.1523C1.6543 8.88086 3.17773 7.64453 5 7.64453C5.60352 7.64453 6.25391 7.79688 6.72266 8.04883C6.92773 7.73242 7.19141 7.46289 7.54883 7.23438C6.81641 6.80078 5.87891 6.56055 5 6.56055C2.50977 6.56055 0.494141 8.32422 0.494141 10.2695C0.494141 10.9961 0.927734 11.377 1.80078 11.377ZM8.1875 11.377H15.4531C16.4902 11.377 17 11.0371 17 10.3223C17 8.66406 14.9434 6.56055 11.8203 6.56055C8.70312 6.56055 6.64648 8.66406 6.64648 10.3223C6.64648 11.0371 7.15039 11.377 8.1875 11.377ZM8.05859 10.2695C7.93555 10.2695 7.88867 10.2227 7.88867 10.123C7.88867 9.27344 9.30664 7.67383 11.8203 7.67383C14.334 7.67383 15.7578 9.27344 15.7578 10.123C15.7578 10.2227 15.7109 10.2695 15.582 10.2695H8.05859Z" fill="#5F9B8C"/>
</svg>
