<svg width="15" height="15" viewBox="0 0 15 15" fill="none" xmlns="http://www.w3.org/2000/svg">
<path d="M0.42216 12.2007C0.4775 12.1287 0.471966 12.0402 0.494102 11.9572C0.720994 11.1879 1.23842 10.6982 1.96891 10.4077C2.00488 10.3938 2.04361 10.38 2.09619 10.3606C1.82779 10.1559 1.63133 9.9096 1.51512 9.60799C1.28546 8.99926 1.3159 8.38775 1.54556 7.78732C1.67284 7.45528 1.94124 7.25329 2.28711 7.16198C2.66342 7.06237 3.0425 7.0596 3.41881 7.16475C3.82832 7.27819 4.09395 7.54106 4.21846 7.9478C4.34021 8.34625 4.36511 8.75576 4.30701 9.16251C4.23783 9.65227 4.00817 10.0562 3.60143 10.3634C4.07458 10.5156 4.47026 10.7674 4.78016 11.1409C5.10113 11.5255 5.26715 11.971 5.27822 12.4718C5.29206 13.0142 4.97385 13.4292 4.42599 13.6063C3.88919 13.7806 3.33303 13.8027 2.7741 13.8C2.28434 13.7972 1.79735 13.7723 1.32696 13.6229C0.878713 13.4818 0.54114 13.2244 0.438762 12.7375C0.438762 12.7319 0.424927 12.7264 0.416626 12.7236C0.42216 12.5521 0.42216 12.375 0.42216 12.2007Z" fill="#5F9B8C"/>
<path d="M14.5834 12.7264C14.5751 12.7319 14.564 12.7347 14.5612 12.7402C14.4339 13.3407 13.9802 13.5786 13.4489 13.6865C12.5884 13.8609 11.7168 13.8553 10.8535 13.6865C10.4384 13.6063 10.0566 13.4403 9.84904 13.0335C9.66365 12.6711 9.69962 12.2892 9.81307 11.9157C10.04 11.1658 10.5574 10.6899 11.274 10.4077C11.3128 10.3938 11.3515 10.38 11.4013 10.3634C11.0582 10.1061 10.8341 9.77402 10.74 9.36728C10.621 8.85815 10.6459 8.35179 10.8203 7.85927C10.9503 7.49126 11.2215 7.26437 11.5978 7.16199C11.9796 7.05961 12.3642 7.05961 12.7433 7.17029C13.1556 7.28927 13.424 7.56597 13.5291 7.98378C13.6758 8.55655 13.7062 9.12932 13.4544 9.68548C13.3327 9.95388 13.1501 10.1752 12.9038 10.3634C13.222 10.4685 13.4987 10.6124 13.7477 10.8172C14.1877 11.1741 14.4616 11.6251 14.5529 12.1868C14.5557 12.2062 14.5585 12.2228 14.5806 12.2283C14.5834 12.3944 14.5834 12.5604 14.5834 12.7264Z" fill="#5F9B8C"/>
<path d="M6.75301 3.77246C6.50121 3.57877 6.32412 3.35464 6.19961 3.08901C6.00039 2.6629 6.00039 2.21464 6.05019 1.76363C6.06956 1.59761 6.10277 1.43712 6.16364 1.28217C6.36286 0.761977 6.77791 0.551686 7.30087 0.510181C7.5582 0.488045 7.81553 0.499113 8.06733 0.571055C8.4464 0.678967 8.7231 0.911394 8.84762 1.28494C9.01363 1.78299 9.04684 2.29489 8.91126 2.80955C8.81441 3.18032 8.61796 3.49299 8.31082 3.72819C8.29699 3.73925 8.28592 3.75309 8.26378 3.77799C8.60135 3.8859 8.89465 4.04639 9.15475 4.27051C9.65281 4.6994 9.92121 5.24173 9.93227 5.90027C9.94058 6.4343 9.63344 6.82998 9.10495 7.00983C8.55985 7.19799 7.99262 7.21182 7.42815 7.21182C6.9716 7.20905 6.51781 7.18415 6.07233 7.06517C5.18966 6.82444 4.92956 6.2074 5.14539 5.39391C5.35291 4.61362 5.87587 4.11833 6.61189 3.82503C6.64786 3.80566 6.68937 3.79459 6.75301 3.77246Z" fill="#5F9B8C"/>
<path d="M5.04032 4.06574C5.03755 4.17642 4.98775 4.22899 4.91304 4.26496C4.27387 4.56933 3.78411 5.04802 3.34416 5.59035C3.18921 5.78127 3.06469 5.9888 2.95678 6.20739C2.87654 6.37064 2.81566 6.39001 2.64688 6.31807C2.58877 6.29316 2.5279 6.26826 2.46979 6.24336C2.27057 6.15758 2.24566 6.08564 2.33698 5.89195C2.56664 5.40773 2.89867 4.99822 3.27498 4.61914C3.66236 4.22899 4.08571 3.88312 4.5893 3.64793C4.76916 3.56492 4.8411 3.58705 4.92134 3.77244C4.96561 3.88035 5.00435 3.98273 5.04032 4.06574Z" fill="#5F9B8C"/>
<path d="M12.2536 6.36245C12.154 6.35692 12.1014 6.31541 12.0655 6.24347C11.7583 5.60153 11.2769 5.10624 10.7345 4.66352C10.5492 4.51134 10.3444 4.38959 10.1286 4.28445C9.95702 4.20144 9.93765 4.1378 10.0096 3.96624C10.04 3.8943 10.0705 3.82236 10.1037 3.75042C10.1728 3.59823 10.2476 3.57333 10.3997 3.64527C10.7511 3.80576 11.0666 4.01882 11.3543 4.27061C11.8828 4.73547 12.3588 5.24459 12.6687 5.8893C12.7655 6.09406 12.7461 6.16046 12.5358 6.24901C12.4335 6.29051 12.3366 6.32925 12.2536 6.36245Z" fill="#5F9B8C"/>
<path d="M7.49447 14.5C6.94937 14.4973 6.41258 14.4419 5.89515 14.251C5.7319 14.1901 5.69316 14.121 5.75403 13.9577C5.7817 13.8802 5.81214 13.8027 5.84535 13.728C5.90622 13.5842 5.97539 13.551 6.12758 13.6008C6.93554 13.8664 7.75457 13.8609 8.57913 13.6921C8.68704 13.6699 8.78942 13.6257 8.89456 13.5952C9.03015 13.5565 9.10209 13.5897 9.15743 13.7197C9.19063 13.8 9.22107 13.8802 9.2515 13.9632C9.30961 14.1182 9.27364 14.1929 9.11869 14.251C8.59573 14.4419 8.05063 14.5 7.49447 14.5Z" fill="#5F9B8C"/>
</svg>
