<svg width="63" height="61" viewBox="0 0 63 61" fill="none" xmlns="http://www.w3.org/2000/svg">
<g clip-path="url(#clip0_8783_169338)">
<rect width="91.2307" height="15.1387" transform="matrix(0.70063 -0.713525 0.70063 0.713525 -11.918 49.8193)" fill="#E7777B"/>
<path d="M10.4572 32.8395C10.7982 32.4923 11.1649 32.2521 11.5572 32.1189C11.9449 31.9809 12.3396 31.9405 12.7413 31.9976C13.143 32.0452 13.5377 32.176 13.9253 32.39C14.3084 32.5993 14.6657 32.8728 14.9973 33.2106C15.4504 33.672 15.7844 34.1738 15.9992 34.7161C16.2094 35.2536 16.2701 35.7912 16.1814 36.3287C16.0926 36.8662 15.8194 37.3681 15.3616 37.8342L13.6521 39.5752C13.554 39.6751 13.4372 39.7274 13.3018 39.7322C13.1617 39.7322 13.0402 39.6799 12.9375 39.5752L8.74769 35.3083C8.64494 35.2037 8.59589 35.0824 8.60056 34.9444C8.60056 34.8017 8.64961 34.6804 8.74769 34.5805L10.4572 32.8395ZM14.619 37.2206C14.9506 36.8829 15.1374 36.5261 15.1795 36.1503C15.2215 35.7745 15.1561 35.4035 14.9833 35.0372C14.8105 34.6614 14.5629 34.3094 14.2406 33.9812C14.0024 33.7386 13.7502 33.5388 13.484 33.3818C13.2177 33.2153 12.9445 33.1083 12.6642 33.0607C12.384 33.0037 12.1084 33.0179 11.8375 33.1036C11.5666 33.1797 11.3073 33.3438 11.0598 33.5959L9.73558 34.9444L9.73558 34.816L13.4279 38.5763L13.3158 38.5477L14.619 37.2206ZM20.2144 33.0348C19.8268 33.4296 19.411 33.6913 18.9673 33.8197C18.5189 33.9434 18.0752 33.9434 17.6361 33.8197C17.1971 33.6865 16.7954 33.4344 16.431 33.0634C16.02 32.6448 15.7514 32.2048 15.6253 31.7433C15.4992 31.2724 15.4922 30.8229 15.6043 30.3948C15.7117 29.9619 15.9149 29.5932 16.2138 29.2888C16.4427 29.0557 16.7066 28.8821 17.0055 28.7679C17.2998 28.649 17.6081 28.5919 17.9304 28.5967C18.2527 28.5919 18.5703 28.6538 18.8832 28.7822C19.1915 28.9059 19.4764 29.0962 19.738 29.353C19.8268 29.4529 19.8665 29.5695 19.8571 29.7027C19.8478 29.8358 19.7964 29.95 19.703 30.0451L16.9775 32.8208L16.2138 32.3855L18.8482 29.7027L18.8412 29.9667L18.666 29.7883C18.4932 29.6313 18.297 29.5409 18.0775 29.5171C17.8533 29.4886 17.6361 29.5148 17.4259 29.5956C17.2111 29.6717 17.0242 29.7907 16.8654 29.9524C16.7253 30.0951 16.6132 30.2568 16.5291 30.4376C16.445 30.6088 16.4007 30.7967 16.396 31.0013C16.396 31.2011 16.4474 31.4151 16.5501 31.6434C16.6529 31.8623 16.8234 32.093 17.0616 32.3356C17.3185 32.5972 17.5964 32.7708 17.8953 32.8564C18.1943 32.9421 18.4885 32.9468 18.7781 32.8707C19.0631 32.7898 19.3153 32.6376 19.5348 32.4141C19.7076 32.238 19.8338 32.0763 19.9132 31.9289C19.9879 31.7766 20.0369 31.6363 20.0603 31.5079C20.0836 31.3794 20.1 31.2629 20.1093 31.1582C20.1374 31.0441 20.1864 30.9513 20.2565 30.88C20.3405 30.7943 20.441 30.7539 20.5577 30.7587C20.6698 30.7587 20.7656 30.7991 20.845 30.88C20.9478 30.9846 20.9898 31.1321 20.9711 31.3224C20.9664 31.5745 20.8987 31.8623 20.7679 32.1857C20.6418 32.5044 20.4573 32.7875 20.2144 33.0348ZM20.7471 24.7149C21.0928 24.3629 21.4454 24.1798 21.8051 24.1655C22.1601 24.1465 22.5127 24.2535 22.863 24.4866L22.7159 24.5651L22.6528 24.4009C22.5921 24.2154 22.5618 23.999 22.5618 23.7516C22.5618 23.4948 22.6085 23.2379 22.7019 22.981C22.7906 22.7194 22.9331 22.4887 23.1293 22.2889C23.4516 21.9607 23.7715 21.7776 24.0891 21.7395C24.4021 21.6967 24.7104 21.7585 25.014 21.925C25.3129 22.0867 25.6048 22.3127 25.8898 22.6029L27.7464 24.4937C27.8492 24.5984 27.9029 24.7197 27.9076 24.8576C27.9076 24.9908 27.8562 25.1097 27.7534 25.2144C27.6553 25.3143 27.5386 25.3666 27.4031 25.3713C27.2677 25.3666 27.1486 25.3119 27.0458 25.2072L25.1961 23.3235C25.0326 23.157 24.8598 23.0286 24.6777 22.9382C24.5002 22.8431 24.3157 22.8122 24.1242 22.8455C23.9327 22.8692 23.7412 22.9787 23.5496 23.1737C23.3675 23.3592 23.246 23.5685 23.1853 23.8016C23.1246 24.0252 23.1223 24.2463 23.1783 24.4652C23.2344 24.684 23.3441 24.8766 23.5076 25.0431L25.3573 26.9268C25.46 27.0315 25.5137 27.1528 25.5184 27.2907C25.5184 27.4239 25.467 27.5428 25.3643 27.6475C25.2615 27.7521 25.1447 27.8045 25.014 27.8045C24.8785 27.7997 24.7594 27.745 24.6566 27.6403L22.8 25.7495C22.6365 25.583 22.4637 25.4546 22.2815 25.3642C22.104 25.2691 21.9219 25.2358 21.735 25.2643C21.5482 25.2928 21.359 25.4046 21.1675 25.5997C20.9853 25.7852 20.8639 25.9897 20.8032 26.2133C20.7425 26.4369 20.7401 26.6581 20.7962 26.8769C20.8569 27.0909 20.969 27.2812 21.1325 27.4477L22.9891 29.3385C23.0919 29.4432 23.1433 29.5669 23.1433 29.7096C23.1433 29.8428 23.0942 29.9593 22.9962 30.0592C22.8934 30.1638 22.7766 30.2162 22.6458 30.2162C22.5104 30.2114 22.3913 30.1567 22.2885 30.0521L19.3178 27.0267C19.2151 26.9221 19.1637 26.8031 19.1637 26.67C19.159 26.532 19.2081 26.4107 19.3108 26.3061C19.4089 26.2062 19.5257 26.1586 19.6612 26.1634C19.7966 26.1586 19.9157 26.2085 20.0185 26.3132L20.4318 26.7342L20.3758 26.9482C20.3057 26.8103 20.2544 26.6485 20.2217 26.463C20.189 26.2775 20.1843 26.0825 20.2076 25.8779C20.2357 25.6686 20.2917 25.4641 20.3758 25.2643C20.4599 25.0645 20.5836 24.8814 20.7471 24.7149ZM30.9129 18.2436C31.2866 18.6242 31.5364 19.0451 31.6626 19.5066C31.784 19.9632 31.7863 20.4175 31.6696 20.8694C31.5528 21.3213 31.3193 21.7256 30.9689 22.0824C30.6186 22.4391 30.2216 22.677 29.7779 22.7959C29.3341 22.9148 28.8857 22.9148 28.4327 22.7959C27.9796 22.6675 27.5662 22.413 27.1925 22.0324C26.8142 21.6471 26.5643 21.2261 26.4429 20.7695C26.3214 20.3033 26.3191 19.8443 26.4359 19.3924C26.548 18.9357 26.7792 18.529 27.1295 18.1723C27.4798 17.8155 27.8792 17.58 28.3276 17.4659C28.7713 17.347 29.2197 17.3517 29.6728 17.4801C30.1212 17.6038 30.5345 17.8583 30.9129 18.2436ZM30.2123 18.9571C29.9554 18.6955 29.6821 18.5219 29.3925 18.4363C29.0983 18.3459 28.8087 18.3364 28.5237 18.4077C28.2388 18.4696 27.9889 18.6099 27.7741 18.8287C27.5592 19.0475 27.4191 19.3044 27.3537 19.5993C27.2836 19.8895 27.293 20.1844 27.3817 20.4841C27.4658 20.779 27.6363 21.0573 27.8932 21.3189C28.1407 21.571 28.4116 21.7423 28.7059 21.8326C29.0002 21.923 29.2898 21.9325 29.5747 21.8612C29.8596 21.7898 30.1095 21.6447 30.3244 21.4259C30.5392 21.2071 30.6793 20.955 30.7447 20.6696C30.8148 20.3794 30.8055 20.0845 30.7167 19.7848C30.628 19.4851 30.4598 19.2093 30.2123 18.9571Z" fill="white"/>
<path d="M37.4855 16.2631L38.1444 15.5921C38.2029 15.5325 38.2614 15.5043 38.3476 15.5043L39.2805 15.5012C40.0841 15.5043 40.4566 15.1186 40.4566 14.3034L40.4597 13.3533C40.4628 13.2624 40.4874 13.2059 40.549 13.1432L41.2079 12.4722C41.7714 11.8984 41.7714 11.3528 41.2048 10.7758L40.5459 10.1048C40.4874 10.0452 40.4628 9.98252 40.4628 9.89472L40.4597 8.94463C40.4628 8.12624 40.0841 7.74683 39.2836 7.74683L38.3507 7.7437C38.2583 7.7437 38.2029 7.71861 38.1444 7.65904L37.4855 6.98802C36.9189 6.41106 36.3863 6.40793 35.8198 6.98488L35.1609 7.6559C35.0993 7.71861 35.0408 7.74683 34.9546 7.74683L34.0186 7.74683C33.215 7.7437 32.8424 8.12938 32.8455 8.94777L32.8424 9.89786C32.8394 9.98252 32.8147 10.0452 32.7562 10.1048L32.0973 10.7758C31.5277 11.3559 31.5246 11.8921 32.0973 12.4753L32.7562 13.1463C32.8147 13.2059 32.8424 13.2655 32.8424 13.3533L32.8455 14.3034C32.8424 15.1218 33.2211 15.5012 34.0217 15.5012L34.9546 15.5043C35.0408 15.5043 35.0993 15.5325 35.1578 15.5921L35.8167 16.2631C36.3832 16.8401 36.9189 16.8401 37.4855 16.2631ZM37.8272 13.5195C37.7102 13.6386 37.5686 13.6825 37.3685 13.6606L35.6966 13.4944C35.5704 13.4787 35.4718 13.4348 35.3918 13.3533C35.2348 13.1934 35.2348 12.9363 35.3918 12.7763C35.4872 12.6791 35.595 12.6384 35.7767 12.6603L37.1222 12.8202L36.3586 9.4526C36.3186 9.27387 36.3493 9.12964 36.4448 9.03243C36.5987 8.87565 36.8481 8.84116 37.0113 9.00735C37.0821 9.07947 37.1222 9.19548 37.1468 9.30837L37.9473 13.0648C37.9873 13.2436 37.9442 13.4003 37.8272 13.5195Z" fill="white"/>
</g>
<defs>
<clipPath id="clip0_8783_169338">
<rect width="91.2307" height="15.1387" fill="white" transform="matrix(0.70063 -0.713525 0.70063 0.713525 -11.918 49.8193)"/>
</clipPath>
</defs>
</svg>
