<svg width="19" height="19" viewBox="0 0 19 19" fill="none" xmlns="http://www.w3.org/2000/svg">
<path d="M1.30553 0.0827484C0.8737 0.263514 0.401701 0.675257 0.200851 1.07696C0.0100425 1.45857 0 1.67951 0 7.2732V13.0778L0.230978 13.4494C0.502126 13.9013 1.0143 14.303 1.50638 14.4335C1.69719 14.4837 2.24953 14.5339 2.74161 14.5339H3.61531V16.1709C3.61531 17.9584 3.64544 18.0488 4.17769 18.0488C4.4388 18.0488 4.93088 17.7174 6.80883 16.2914L9.11861 14.544L12.8645 14.5139C16.9719 14.4837 16.8815 14.4938 17.5142 13.8611C18.0866 13.2987 18.0765 13.4192 18.0765 7.18281V1.42845L17.8456 1.02674C17.7251 0.815853 17.4238 0.494492 17.1928 0.323769L16.7509 0.0224934L9.15878 0.00240707C4.2982 -0.00763512 1.46621 0.0224934 1.30553 0.0827484ZM16.54 1.27781C16.7509 1.40836 16.8915 1.58913 16.9618 1.85023C17.1024 2.3624 17.1125 12.0334 16.9719 12.5455C16.9116 12.7464 16.7308 13.0276 16.5601 13.1682L16.2488 13.4293H12.4527H8.64662L6.70841 14.8955L4.7702 16.3617L4.71999 15.0059C4.68986 14.2528 4.6296 13.61 4.58943 13.5598C4.53922 13.5196 3.86637 13.4594 3.0931 13.4293L1.68714 13.3791L1.39591 13.0476L1.10468 12.7263V7.24307V1.75985L1.44612 1.4184L1.78757 1.07696H9.00815C15.9676 1.07696 16.2287 1.087 16.54 1.27781Z" fill="#666666"/>
<path d="M5 7.49804V9.99609H5.50808H6.01616V8.97994V7.96378H7.11699H8.21783V7.49804V7.0323H7.11699H6.01616V6.48188V5.93146H7.28635H8.55655V5.46572V4.99999H6.77828H5V7.49804Z" fill="#666666"/>
<path d="M9.14941 7.49861V9.99667H9.69983H10.2503V9.02285V8.04903H10.6991C11.1479 8.04903 11.7491 8.15912 11.8422 8.26073C11.8761 8.28614 11.9269 8.65026 11.9523 9.05672C11.9777 9.47165 12.0285 9.84424 12.0624 9.90352C12.1132 9.9882 13.2987 10.0475 13.2987 9.9628C13.2987 9.94586 13.2394 9.81884 13.1717 9.69182C13.0955 9.5394 13.0447 9.20915 13.0447 8.79421C13.0447 8.21839 13.0193 8.11678 12.816 7.87967C12.6043 7.62563 12.6043 7.60023 12.7398 7.52402C12.9431 7.40547 13.214 6.80424 13.214 6.44012C13.214 5.94897 12.8923 5.40702 12.4519 5.18686C12.1047 5.0175 11.9608 5.00056 10.6144 5.00056H9.14941V7.49861ZM11.893 6.1014C11.9693 6.16914 12.0455 6.35544 12.0793 6.49939C12.1217 6.71956 12.0878 6.81271 11.9184 6.98207C11.7152 7.1853 11.639 7.20223 10.97 7.20223H10.2503V6.55867V5.9151L11.0124 5.94897C11.5459 5.96591 11.8084 6.01672 11.893 6.1014Z" fill="#666666"/>
</svg>
