<svg width="23" height="22" viewBox="0 0 23 22" fill="none" xmlns="http://www.w3.org/2000/svg">
<path fill-rule="evenodd" clip-rule="evenodd" d="M14.8925 5.10501C14.8925 2.01484 12.7531 0 10.5006 0C8.24424 0 6.15269 1.99471 6.15269 5.10501H6.15143C6.16023 7.19028 8.11596 11.1407 10.5232 11.1407C12.9292 11.1407 14.8799 7.19028 14.8925 5.10501V5.10501Z" fill="#5F9B8C"/>
<path d="M18.0017 12.75L18.002 12L18.002 12.75C18.6075 12.75 19.1997 12.8794 19.7417 13.1228H19.0901H16.9525H16.2599C16.8025 12.8791 17.3955 12.7498 18.0017 12.75ZM19.8401 13.8728V13.1686C20.268 13.374 20.6623 13.6517 21.0044 13.9937C21.8009 14.79 22.2489 15.8702 22.25 16.997C22.25 17.6272 22.1102 18.243 21.8478 18.8028V18.0553V15.9569V15.2069H21.0978H19.8401V13.8728ZM21.0978 18.8053H21.8467C21.6396 19.2466 21.3562 19.6531 21.005 20.0045C20.208 20.802 19.127 21.25 18 21.25C16.873 21.25 15.792 20.802 14.995 20.0045C14.6438 19.6531 14.3604 19.2466 14.1533 18.8053H14.8656H16.2025V20.0418V20.7918H16.9525H19.0901H19.8401V20.0418V18.8053H21.0978ZM14.1156 18.0553V18.7227C13.8769 18.1846 13.7501 17.5976 13.75 16.9974C13.7508 16.399 13.8776 15.8138 14.1156 15.2773V15.9569V18.0553ZM14.8656 15.2069H14.1476C14.3557 14.7598 14.6419 14.3482 14.9974 13.9931C15.3504 13.6404 15.759 13.3563 16.2025 13.1491V13.8728V15.2069H14.8656Z" stroke="#5F9B8C" stroke-width="1.5"/>
<path fill-rule="evenodd" clip-rule="evenodd" d="M11.674 16.2747C11.674 14.7138 12.3594 13.314 13.4423 12.3645C14.0221 11.8538 13.9882 11.8991 13.4826 12.1444C12.0261 12.8512 10.0541 13.0575 10.0541 13.0575C10.0541 13.0575 6.39667 12.6965 5.31882 11.2476C0.155954 11.2476 0 18.7485 0 18.7485H12.294C11.8864 17.9877 11.6734 17.1378 11.674 16.2747V16.2747Z" fill="#5F9B8C"/>
</svg>
