<svg width="20" height="20" viewBox="0 0 20 20" fill="none" xmlns="http://www.w3.org/2000/svg">
<path d="M9.00901 20.0004C4.05405 20.0004 0 15.9464 0 10.9914C0 6.03648 4.05405 1.98242 9.00901 1.98242C13.964 1.98242 18.018 6.03648 18.018 10.9914C18.018 15.9464 13.964 20.0004 9.00901 20.0004ZM9.00901 3.48392C4.86486 3.48392 1.5015 6.84729 1.5015 10.9914C1.5015 15.1356 4.86486 18.4989 9.00901 18.4989C13.1532 18.4989 16.5165 15.1356 16.5165 10.9914C16.5165 6.84729 13.1532 3.48392 9.00901 3.48392Z" fill="#5F9B8C"/>
<path d="M9.00904 16.2468C6.12616 16.2468 3.75378 13.8745 3.75378 10.9916C3.75378 8.1087 6.12616 5.73633 9.00904 5.73633C11.8919 5.73633 14.2643 8.1087 14.2643 10.9916C14.2643 13.8745 11.8919 16.2468 9.00904 16.2468ZM9.00904 7.23783C6.93697 7.23783 5.25529 8.91951 5.25529 10.9916C5.25529 13.0637 6.93697 14.7453 9.00904 14.7453C11.0811 14.7453 12.7628 13.0637 12.7628 10.9916C12.7628 8.91951 11.0811 7.23783 9.00904 7.23783Z" fill="#5F9B8C"/>
<path d="M7.83789 10.2402L11.982 6.0961V4.83484L16.8169 0V3.18318H20.0001L15.1652 8.01802H13.904L9.75981 12.1622L7.83789 10.2402Z" fill="white"/>
<path d="M17.8078 4.08403H15.9159V2.16211L12.8829 5.19514V6.48643L9.12915 10.2402L9.75978 10.8708L13.5135 7.11706H14.8048L17.8078 4.08403Z" fill="#5F9B8C"/>
<path d="M9.00907 12.4932C9.83833 12.4932 10.5106 11.821 10.5106 10.9917C10.5106 10.1625 9.83833 9.49023 9.00907 9.49023C8.17981 9.49023 7.50757 10.1625 7.50757 10.9917C7.50757 11.821 8.17981 12.4932 9.00907 12.4932Z" fill="#5F9B8C"/>
</svg>
