<svg width="28" height="14" viewBox="0 0 28 14" fill="none" xmlns="http://www.w3.org/2000/svg">
<path d="M14 6.5918C15.627 6.5918 16.9531 5.14258 16.9531 3.37891C16.9531 1.63574 15.6475 0.254883 14 0.254883C12.3799 0.254883 11.0469 1.65625 11.0537 3.39258C11.0537 5.14941 12.3799 6.5918 14 6.5918ZM6.125 6.74219C7.5332 6.74219 8.68848 5.47754 8.68848 3.92578C8.68848 2.4082 7.54688 1.18457 6.125 1.18457C4.7168 1.18457 3.55469 2.42871 3.56152 3.93945C3.56152 5.48438 4.7168 6.74219 6.125 6.74219ZM21.875 6.74219C23.2832 6.74219 24.4385 5.48438 24.4385 3.93945C24.4453 2.42871 23.2832 1.18457 21.875 1.18457C20.4531 1.18457 19.3115 2.4082 19.3115 3.92578C19.3115 5.47754 20.4668 6.74219 21.875 6.74219ZM14 5.55957C13.002 5.55957 12.1543 4.60254 12.1543 3.39258C12.1475 2.20312 12.9883 1.28711 14 1.28711C15.0254 1.28711 15.8525 2.18945 15.8525 3.37891C15.8525 4.58887 15.0117 5.55957 14 5.55957ZM6.125 5.72363C5.28418 5.72363 4.58008 4.92383 4.58008 3.93945C4.58008 2.97559 5.27734 2.20312 6.125 2.20312C6.98633 2.20312 7.67676 2.96191 7.67676 3.92578C7.67676 4.92383 6.96582 5.72363 6.125 5.72363ZM21.875 5.72363C21.0342 5.72363 20.3232 4.92383 20.3232 3.92578C20.3232 2.96191 21.0137 2.20312 21.875 2.20312C22.7227 2.20312 23.4199 2.97559 23.4199 3.93945C23.4199 4.92383 22.709 5.72363 21.875 5.72363ZM2.31738 13.0107H7.68359C7.35547 12.8262 7.10938 12.416 7.15723 11.999H2.15332C2.00977 11.999 1.94824 11.9443 1.94824 11.8145C1.94824 10.1191 3.88281 8.5332 6.11816 8.5332C6.97266 8.5332 7.75195 8.73828 8.41504 9.12793C8.62695 8.85449 8.87988 8.61523 9.1875 8.40332C8.30566 7.82227 7.24609 7.52148 6.11816 7.52148C3.25391 7.52148 0.929688 9.59961 0.929688 11.876C0.929688 12.6348 1.39453 13.0107 2.31738 13.0107ZM25.6826 13.0107C26.6055 13.0107 27.0703 12.6348 27.0703 11.876C27.0703 9.59961 24.7461 7.52148 21.8818 7.52148C20.7539 7.52148 19.6943 7.82227 18.8125 8.40332C19.1201 8.61523 19.373 8.85449 19.585 9.12793C20.248 8.73828 21.0205 8.5332 21.8818 8.5332C24.1172 8.5332 26.0518 10.1191 26.0518 11.8145C26.0518 11.9443 25.9902 11.999 25.8467 11.999H20.8428C20.8906 12.416 20.6377 12.8262 20.3164 13.0107H25.6826ZM9.70703 13.0107H18.293C19.4277 13.0107 19.9746 12.6689 19.9746 11.917C19.9746 10.126 17.7119 7.53516 14 7.53516C10.2881 7.53516 8.02539 10.126 8.02539 11.917C8.02539 12.6689 8.56543 13.0107 9.70703 13.0107ZM9.37891 11.9785C9.20117 11.9785 9.12598 11.9307 9.12598 11.7871C9.12598 10.666 10.8623 8.56738 14 8.56738C17.1377 8.56738 18.874 10.666 18.874 11.7871C18.874 11.9307 18.7988 11.9785 18.6211 11.9785H9.37891Z" fill="#5F9B8C"/>
<path d="M11.0537 3.39258H11.3037L11.3037 3.39159L11.0537 3.39258ZM3.56152 3.93945H3.81153L3.81152 3.93832L3.56152 3.93945ZM24.4385 3.93945L24.1885 3.93832V3.93945H24.4385ZM12.1543 3.39258H12.4043L12.4043 3.39114L12.1543 3.39258ZM7.68359 13.0107V13.2607H8.63797L7.80616 12.7928L7.68359 13.0107ZM7.15723 11.999L7.4056 12.0275L7.43756 11.749H7.15723V11.999ZM8.41504 9.12793L8.28838 9.34347L8.47795 9.45487L8.61264 9.28107L8.41504 9.12793ZM9.1875 8.40332L9.32933 8.6092L9.63487 8.39871L9.32505 8.19456L9.1875 8.40332ZM18.8125 8.40332L18.6749 8.19456L18.3651 8.39871L18.6707 8.6092L18.8125 8.40332ZM19.585 9.12793L19.3874 9.28107L19.522 9.45487L19.7116 9.34347L19.585 9.12793ZM20.8428 11.999V11.749H20.5624L20.5944 12.0275L20.8428 11.999ZM20.3164 13.0107L20.1919 12.794L19.3793 13.2607H20.3164V13.0107ZM14 6.8418C15.7848 6.8418 17.2031 5.26005 17.2031 3.37891H16.7031C16.7031 5.0251 15.4691 6.3418 14 6.3418V6.8418ZM17.2031 3.37891C17.2031 1.51109 15.7986 0.00488281 14 0.00488281V0.504883C15.4963 0.504883 16.7031 1.7604 16.7031 3.37891H17.2031ZM14 0.00488281C12.2286 0.00488281 10.7964 1.53194 10.8037 3.39356L11.3037 3.39159C11.2974 1.78056 12.5311 0.504883 14 0.504883V0.00488281ZM10.8037 3.39258C10.8037 5.26758 12.2227 6.8418 14 6.8418V6.3418C12.5371 6.3418 11.3037 5.03125 11.3037 3.39258H10.8037ZM6.125 6.99219C7.69264 6.99219 8.93848 5.59323 8.93848 3.92578H8.43848C8.43848 5.36185 7.37377 6.49219 6.125 6.49219V6.99219ZM8.93848 3.92578C8.93848 2.28636 7.70063 0.93457 6.125 0.93457V1.43457C7.39312 1.43457 8.43848 2.53005 8.43848 3.92578H8.93848ZM6.125 0.93457C4.5629 0.93457 3.30414 2.30723 3.31153 3.94058L3.81152 3.93832C3.80524 2.55019 4.8707 1.43457 6.125 1.43457V0.93457ZM3.31152 3.93945C3.31152 5.6013 4.55849 6.99219 6.125 6.99219V6.49219C4.87511 6.49219 3.81152 5.36745 3.81152 3.93945H3.31152ZM21.875 6.99219C23.4415 6.99219 24.6885 5.6013 24.6885 3.93945H24.1885C24.1885 5.36745 23.1249 6.49219 21.875 6.49219V6.99219ZM24.6885 3.94058C24.6959 2.30723 23.4371 0.93457 21.875 0.93457V1.43457C23.1293 1.43457 24.1948 2.55019 24.1885 3.93832L24.6885 3.94058ZM21.875 0.93457C20.2994 0.93457 19.0615 2.28636 19.0615 3.92578H19.5615C19.5615 2.53005 20.6069 1.43457 21.875 1.43457V0.93457ZM19.0615 3.92578C19.0615 5.59323 20.3074 6.99219 21.875 6.99219V6.49219C20.6262 6.49219 19.5615 5.36185 19.5615 3.92578H19.0615ZM14 5.30957C13.1735 5.30957 12.4043 4.50056 12.4043 3.39258H11.9043C11.9043 4.70452 12.8304 5.80957 14 5.80957V5.30957ZM12.4043 3.39114C12.3981 2.31325 13.1525 1.53711 14 1.53711V1.03711C12.824 1.03711 11.8968 2.093 11.9043 3.39401L12.4043 3.39114ZM14 1.53711C14.862 1.53711 15.6025 2.30072 15.6025 3.37891H16.1025C16.1025 2.07819 15.1888 1.03711 14 1.03711V1.53711ZM15.6025 3.37891C15.6025 4.48906 14.8383 5.30957 14 5.30957V5.80957C15.1852 5.80957 16.1025 4.68867 16.1025 3.37891H15.6025ZM6.125 5.47363C5.45372 5.47363 4.83008 4.81948 4.83008 3.93945H4.33008C4.33008 5.02818 5.11464 5.97363 6.125 5.97363V5.47363ZM4.83008 3.93945C4.83008 3.08651 5.44109 2.45312 6.125 2.45312V1.95312C5.1136 1.95312 4.33008 2.86467 4.33008 3.93945H4.83008ZM6.125 2.45312C6.82501 2.45312 7.42676 3.07553 7.42676 3.92578H7.92676C7.92676 2.84829 7.14764 1.95312 6.125 1.95312V2.45312ZM7.42676 3.92578C7.42676 4.81928 6.79645 5.47363 6.125 5.47363V5.97363C7.13519 5.97363 7.92676 5.02837 7.92676 3.92578H7.42676ZM21.875 5.47363C21.2035 5.47363 20.5732 4.81928 20.5732 3.92578H20.0732C20.0732 5.02837 20.8648 5.97363 21.875 5.97363V5.47363ZM20.5732 3.92578C20.5732 3.07553 21.175 2.45312 21.875 2.45312V1.95312C20.8524 1.95312 20.0732 2.84829 20.0732 3.92578H20.5732ZM21.875 2.45312C22.5589 2.45312 23.1699 3.08651 23.1699 3.93945H23.6699C23.6699 2.86467 22.8864 1.95312 21.875 1.95312V2.45312ZM23.1699 3.93945C23.1699 4.81872 22.5401 5.47363 21.875 5.47363V5.97363C22.8779 5.97363 23.6699 5.02893 23.6699 3.93945H23.1699ZM2.31738 13.2607H7.68359V12.7607H2.31738V13.2607ZM7.80616 12.7928C7.55664 12.6525 7.37036 12.3346 7.4056 12.0275L6.90886 11.9705C6.84839 12.4975 7.1543 12.9999 7.56103 13.2286L7.80616 12.7928ZM7.15723 11.749H2.15332V12.249H7.15723V11.749ZM2.15332 11.749C2.13205 11.749 2.12504 11.7469 2.12717 11.7474C2.13053 11.7484 2.14619 11.7535 2.16393 11.7694C2.18252 11.7861 2.1924 11.8048 2.19661 11.8171C2.20006 11.8271 2.19824 11.8284 2.19824 11.8145H1.69824C1.69824 11.9144 1.72191 12.0445 1.82997 12.1415C1.93157 12.2327 2.0587 12.249 2.15332 12.249V11.749ZM2.19824 11.8145C2.19824 11.0639 2.62857 10.3094 3.3508 9.73356C4.07045 9.15977 5.05821 8.7832 6.11816 8.7832V8.2832C4.94276 8.2832 3.84556 8.6996 3.03909 9.34261C2.23519 9.98357 1.69824 10.8697 1.69824 11.8145H2.19824ZM6.11816 8.7832C6.93209 8.7832 7.66698 8.97832 8.28838 9.34347L8.5417 8.91239C7.83693 8.49825 7.01322 8.2832 6.11816 8.2832V8.7832ZM8.61264 9.28107C8.8082 9.02874 9.0421 8.80707 9.32933 8.6092L9.04567 8.19744C8.71767 8.4234 8.44571 8.68024 8.21744 8.97479L8.61264 9.28107ZM9.32505 8.19456C8.39887 7.58429 7.2906 7.27148 6.11816 7.27148V7.77148C7.20158 7.77148 8.21246 8.06024 9.04995 8.61208L9.32505 8.19456ZM6.11816 7.27148C3.15364 7.27148 0.679688 9.42654 0.679688 11.876H1.17969C1.17969 9.77267 3.35417 7.77148 6.11816 7.77148V7.27148ZM0.679688 11.876C0.679688 12.3088 0.814755 12.6732 1.11947 12.9216C1.41441 13.1622 1.82844 13.2607 2.31738 13.2607V12.7607C1.88348 12.7607 1.60366 12.6713 1.43546 12.5342C1.27704 12.405 1.17969 12.2019 1.17969 11.876H0.679688ZM25.6826 13.2607C26.1716 13.2607 26.5856 13.1622 26.8805 12.9216C27.1852 12.6732 27.3203 12.3088 27.3203 11.876H26.8203C26.8203 12.2019 26.723 12.405 26.5645 12.5342C26.3963 12.6713 26.1165 12.7607 25.6826 12.7607V13.2607ZM27.3203 11.876C27.3203 9.42654 24.8464 7.27148 21.8818 7.27148V7.77148C24.6458 7.77148 26.8203 9.77267 26.8203 11.876H27.3203ZM21.8818 7.27148C20.7094 7.27148 19.6011 7.58429 18.6749 8.19456L18.9501 8.61208C19.7875 8.06024 20.7984 7.77148 21.8818 7.77148V7.27148ZM18.6707 8.6092C18.9579 8.80707 19.1918 9.02874 19.3874 9.28107L19.7826 8.97479C19.5543 8.68024 19.2823 8.4234 18.9543 8.19744L18.6707 8.6092ZM19.7116 9.34347C20.3332 8.97822 21.0613 8.7832 21.8818 8.7832V8.2832C20.9798 8.2832 20.1629 8.49834 19.4583 8.91239L19.7116 9.34347ZM21.8818 8.7832C22.9418 8.7832 23.9295 9.15977 24.6492 9.73356C25.3714 10.3094 25.8018 11.0639 25.8018 11.8145H26.3018C26.3018 10.8697 25.7648 9.98357 24.9609 9.34261C24.1544 8.6996 23.0572 8.2832 21.8818 8.2832V8.7832ZM25.8018 11.8145C25.8018 11.8284 25.7999 11.8271 25.8034 11.8171C25.8076 11.8048 25.8175 11.7861 25.8361 11.7694C25.8538 11.7535 25.8695 11.7484 25.8728 11.7474C25.875 11.7469 25.868 11.749 25.8467 11.749V12.249C25.9413 12.249 26.0684 12.2327 26.17 12.1415C26.2781 12.0445 26.3018 11.9144 26.3018 11.8145H25.8018ZM25.8467 11.749H20.8428V12.249H25.8467V11.749ZM20.5944 12.0275C20.6294 12.3323 20.4386 12.6522 20.1919 12.794L20.4409 13.2275C20.8368 13.0001 21.1519 12.4997 21.0911 11.9705L20.5944 12.0275ZM20.3164 13.2607H25.6826V12.7607H20.3164V13.2607ZM9.70703 13.2607H18.293V12.7607H9.70703V13.2607ZM18.293 13.2607C18.8762 13.2607 19.3553 13.1746 19.6947 12.956C20.0555 12.7236 20.2246 12.3642 20.2246 11.917H19.7246C19.7246 12.2217 19.6203 12.4092 19.4239 12.5357C19.2062 12.6759 18.8445 12.7607 18.293 12.7607V13.2607ZM20.2246 11.917C20.2246 10.9256 19.6069 9.76605 18.5408 8.86363C17.4666 7.95435 15.9159 7.28516 14 7.28516V7.78516C15.796 7.78516 17.2326 8.41137 18.2178 9.24526C19.211 10.086 19.7246 11.1174 19.7246 11.917H20.2246ZM14 7.28516C12.0841 7.28516 10.5334 7.95435 9.45921 8.86363C8.39311 9.76605 7.77539 10.9256 7.77539 11.917H8.27539C8.27539 11.1174 8.78902 10.086 9.78225 9.24526C10.7674 8.41137 12.204 7.78516 14 7.78516V7.28516ZM7.77539 11.917C7.77539 12.3631 7.94194 12.7229 8.30243 12.9558C8.64123 13.1747 9.12067 13.2607 9.70703 13.2607V12.7607C9.15179 12.7607 8.79041 12.6758 8.57379 12.5359C8.37886 12.4099 8.27539 12.2228 8.27539 11.917H7.77539ZM9.37891 11.7285C9.34425 11.7285 9.32491 11.726 9.31578 11.7241C9.30695 11.7223 9.31688 11.7228 9.33308 11.7346C9.34147 11.7408 9.34996 11.7488 9.35748 11.7586C9.36494 11.7683 9.36979 11.7776 9.37276 11.7851C9.37825 11.7989 9.37598 11.8027 9.37598 11.7871H8.87598C8.87598 11.9016 8.90785 12.0434 9.0385 12.1386C9.14777 12.2183 9.28117 12.2285 9.37891 12.2285V11.7285ZM9.37598 11.7871C9.37598 11.333 9.74674 10.5923 10.5431 9.95162C11.3255 9.32209 12.4889 8.81738 14 8.81738V8.31738C12.3734 8.31738 11.0998 8.862 10.2296 9.56205C9.37337 10.251 8.87598 11.1202 8.87598 11.7871H9.37598ZM14 8.81738C15.5111 8.81738 16.6745 9.32209 17.4569 9.95162C18.2533 10.5923 18.624 11.333 18.624 11.7871H19.124C19.124 11.1202 18.6266 10.251 17.7704 9.56205C16.9002 8.862 15.6266 8.31738 14 8.31738V8.81738ZM18.624 11.7871C18.624 11.8027 18.6218 11.7989 18.6272 11.7851C18.6302 11.7776 18.6351 11.7683 18.6425 11.7586C18.65 11.7488 18.6585 11.7408 18.6669 11.7346C18.6831 11.7228 18.693 11.7223 18.6842 11.7241C18.6751 11.726 18.6558 11.7285 18.6211 11.7285V12.2285C18.7188 12.2285 18.8522 12.2183 18.9615 12.1386C19.0921 12.0434 19.124 11.9016 19.124 11.7871H18.624ZM18.6211 11.7285H9.37891V12.2285H18.6211V11.7285Z" fill="#5F9B8C"/>
</svg>
