<svg width="20" height="19" viewBox="0 0 20 19" fill="none" xmlns="http://www.w3.org/2000/svg">
<path d="M18.7694 9.80779L10.2132 0.300893C9.85293 -0.100298 9.16083 -0.100298 8.80051 0.300893L0.244312 9.80779C0.121156 9.9443 0.0403173 10.1137 0.0116251 10.2953C-0.0170671 10.4769 0.00762334 10.6629 0.0826945 10.8307C0.234805 11.1739 0.575152 11.3945 0.950674 11.3945H2.85205V18.0493C2.85205 18.3014 2.95221 18.5433 3.1305 18.7216C3.30879 18.8998 3.5506 19 3.80274 19H6.65481C6.90695 19 7.14876 18.8998 7.32705 18.7216C7.50534 18.5433 7.6055 18.3014 7.6055 18.0493V14.2466H11.4083V18.0493C11.4083 18.3014 11.5084 18.5433 11.6867 18.7216C11.865 18.8998 12.1068 19 12.3589 19H15.211C15.4632 19 15.705 18.8998 15.8833 18.7216C16.0615 18.5433 16.1617 18.3014 16.1617 18.0493V11.3945H18.0631C18.2472 11.3953 18.4276 11.3425 18.5822 11.2425C18.7368 11.1426 18.859 10.9998 18.9339 10.8316C19.0088 10.6634 19.0331 10.477 19.0039 10.2952C18.9747 10.1134 18.8932 9.94408 18.7694 9.80779V9.80779Z" fill="#5F9B8C"/>
</svg>
