<svg width="30" height="15" viewBox="0 0 30 15" fill="none" xmlns="http://www.w3.org/2000/svg">
<path d="M15 7.39062C16.8594 7.39062 18.375 5.73438 18.375 3.71875C18.375 1.72656 16.8828 0.148438 15 0.148438C13.1484 0.148438 11.625 1.75 11.6328 3.73438C11.6328 5.74219 13.1484 7.39062 15 7.39062ZM6 7.5625C7.60938 7.5625 8.92969 6.11719 8.92969 4.34375C8.92969 2.60938 7.625 1.21094 6 1.21094C4.39062 1.21094 3.0625 2.63281 3.07031 4.35938C3.07031 6.125 4.39062 7.5625 6 7.5625ZM24 7.5625C25.6094 7.5625 26.9297 6.125 26.9297 4.35938C26.9375 2.63281 25.6094 1.21094 24 1.21094C22.375 1.21094 21.0703 2.60938 21.0703 4.34375C21.0703 6.11719 22.3906 7.5625 24 7.5625ZM15 6.21094C13.8594 6.21094 12.8906 5.11719 12.8906 3.73438C12.8828 2.375 13.8438 1.32812 15 1.32812C16.1719 1.32812 17.1172 2.35938 17.1172 3.71875C17.1172 5.10156 16.1562 6.21094 15 6.21094ZM6 6.39844C5.03906 6.39844 4.23438 5.48438 4.23438 4.35938C4.23438 3.25781 5.03125 2.375 6 2.375C6.98438 2.375 7.77344 3.24219 7.77344 4.34375C7.77344 5.48438 6.96094 6.39844 6 6.39844ZM24 6.39844C23.0391 6.39844 22.2266 5.48438 22.2266 4.34375C22.2266 3.24219 23.0156 2.375 24 2.375C24.9688 2.375 25.7656 3.25781 25.7656 4.35938C25.7656 5.48438 24.9531 6.39844 24 6.39844ZM1.64844 14.7266H7.78125C7.40625 14.5156 7.125 14.0469 7.17969 13.5703H1.46094C1.29688 13.5703 1.22656 13.5078 1.22656 13.3594C1.22656 11.4219 3.4375 9.60938 5.99219 9.60938C6.96875 9.60938 7.85938 9.84375 8.61719 10.2891C8.85938 9.97656 9.14844 9.70312 9.5 9.46094C8.49219 8.79688 7.28125 8.45312 5.99219 8.45312C2.71875 8.45312 0.0625 10.8281 0.0625 13.4297C0.0625 14.2969 0.59375 14.7266 1.64844 14.7266ZM28.3516 14.7266C29.4062 14.7266 29.9375 14.2969 29.9375 13.4297C29.9375 10.8281 27.2812 8.45312 24.0078 8.45312C22.7188 8.45312 21.5078 8.79688 20.5 9.46094C20.8516 9.70312 21.1406 9.97656 21.3828 10.2891C22.1406 9.84375 23.0234 9.60938 24.0078 9.60938C26.5625 9.60938 28.7734 11.4219 28.7734 13.3594C28.7734 13.5078 28.7031 13.5703 28.5391 13.5703H22.8203C22.875 14.0469 22.5859 14.5156 22.2188 14.7266H28.3516ZM10.0938 14.7266H19.9062C21.2031 14.7266 21.8281 14.3359 21.8281 13.4766C21.8281 11.4297 19.2422 8.46875 15 8.46875C10.7578 8.46875 8.17188 11.4297 8.17188 13.4766C8.17188 14.3359 8.78906 14.7266 10.0938 14.7266ZM9.71875 13.5469C9.51562 13.5469 9.42969 13.4922 9.42969 13.3281C9.42969 12.0469 11.4141 9.64844 15 9.64844C18.5859 9.64844 20.5703 12.0469 20.5703 13.3281C20.5703 13.4922 20.4844 13.5469 20.2812 13.5469H9.71875Z" fill="#666666"/>
</svg>
