<svg width="33" height="27" viewBox="0 0 33 27" fill="none" xmlns="http://www.w3.org/2000/svg">
<path d="M22.0605 18.7754L24.002 20.9766H29.457C31.3574 20.9766 32.4102 19.9238 32.4102 18.0508V3.10742C32.4102 1.24805 31.3574 0.167969 29.457 0.167969H3.42578C1.58008 0.167969 0.486328 1.28906 0.486328 3.10742V18.0508C0.486328 19.9238 1.52539 20.9766 3.42578 20.9766H9.01758L10.959 18.7754H3.76758C3.125 18.7754 2.81055 18.4473 2.81055 17.8047V3.35352C2.81055 2.71094 3.125 2.36914 3.76758 2.36914H29.1152C29.7578 2.36914 30.0859 2.71094 30.0859 3.35352V17.8047C30.0859 18.4473 29.7578 18.7754 29.1152 18.7754H22.0605ZM24.7949 26.0762C25.4375 26.0762 25.6836 25.4199 25.2734 24.9551L17.0293 15.6172C16.7148 15.2617 16.168 15.2617 15.8535 15.6172L7.60938 24.9551C7.19922 25.4199 7.44531 26.0762 8.08789 26.0762H24.7949Z" fill="#B46868"/>
</svg>
