<svg width="11" height="14" viewBox="0 0 11 14" fill="none" xmlns="http://www.w3.org/2000/svg">
<path d="M5.375 8.81055C6.57617 8.81055 7.50781 7.9082 7.50781 6.57227V2.61133C7.50781 1.27539 6.57617 0.373047 5.375 0.373047C4.16797 0.373047 3.23633 1.27539 3.23633 2.61133V6.57227C3.23633 7.9082 4.16797 8.81055 5.375 8.81055ZM0.722656 6.73047C0.722656 9.23242 2.39844 10.9141 4.76562 11.1602V12.2383H2.63281C2.28125 12.2383 1.99414 12.5195 1.99414 12.8652C1.99414 13.2109 2.28125 13.498 2.63281 13.498H8.11719C8.46289 13.498 8.75586 13.2109 8.75586 12.8652C8.75586 12.5195 8.46289 12.2383 8.11719 12.2383H5.97852V11.1602C8.35156 10.9141 10.0215 9.23242 10.0215 6.73047V5.59375C10.0215 5.24805 9.74023 4.97852 9.38867 4.97852C9.03711 4.97852 8.75 5.24805 8.75 5.59375V6.68945C8.75 8.68164 7.36133 9.99414 5.375 9.99414C3.38281 9.99414 2 8.68164 2 6.68945V5.59375C2 5.24805 1.70703 4.97852 1.36133 4.97852C1.00977 4.97852 0.722656 5.24805 0.722656 5.59375V6.73047Z" fill="#5F9B8C"/>
</svg>
