<svg width="28" height="28" viewBox="0 0 28 28" fill="none" xmlns="http://www.w3.org/2000/svg">
<path fill-rule="evenodd" clip-rule="evenodd" d="M12.0364 0.81501L9.92729 2.92229C9.75698 3.09267 9.52611 3.18864 9.28521 3.1892H5.96656C4.4323 3.1892 3.1892 4.4323 3.1892 5.96656V9.28521C3.18873 9.52668 3.09278 9.75815 2.92229 9.92915L0.813143 12.0364C0.292487 12.5573 0 13.2636 0 14C0 14.7364 0.292487 15.4427 0.813143 15.9636L2.92229 18.0727C3.09267 18.243 3.18864 18.4739 3.1892 18.7148V22.0334C3.1892 23.5677 4.4323 24.8108 5.96656 24.8108H9.28521C9.52668 24.8113 9.75815 24.9072 9.92915 25.0777L12.0364 27.1869C12.5573 27.7075 13.2636 28 14 28C14.7364 28 15.4427 27.7075 15.9636 27.1869L18.0727 25.0777C18.243 24.9073 18.4739 24.8114 18.7148 24.8108H22.0334C23.5677 24.8108 24.8108 23.5677 24.8108 22.0334V18.7148C24.8113 18.4733 24.9072 18.2418 25.0777 18.0708L27.1869 15.9636C27.7075 15.4427 28 14.7364 28 14C28 13.2636 27.7075 12.5573 27.1869 12.0364L25.0777 9.92729C24.9073 9.75698 24.8114 9.52611 24.8108 9.28521V5.96656C24.8108 4.4323 23.5677 3.1892 22.0334 3.1892H18.7148C18.4732 3.18914 18.2416 3.09313 18.0708 2.92229L15.9636 0.813143C15.4427 0.292487 14.7364 0 14 0C13.2636 0 12.5573 0.292487 12.0364 0.813143V0.81501ZM8.67299 18.0055L18.0055 8.67299L19.327 9.99448L9.99448 19.327L8.67299 18.0055ZM9.33374 9.33374V11.2002H11.2002V9.33374H9.33374ZM16.7998 18.6663H18.6663V16.7998H16.7998V18.6663Z" fill="#5F9B8C"/>
</svg>
