<svg width="19" height="23" viewBox="0 0 19 23" fill="none" xmlns="http://www.w3.org/2000/svg">
<path d="M3.51758 21.0566H8.86914C8.36133 20.6172 7.92188 20.0801 7.59961 19.4844H3.60547C2.59961 19.4844 2.0625 18.9668 2.0625 17.9902V3.20508C2.0625 2.24805 2.58984 1.69141 3.60547 1.69141H13.8105C14.7871 1.69141 15.3438 2.23828 15.3438 3.20508V11.7305C15.9395 12.0527 16.4766 12.4824 16.916 13V3.18555C16.916 1.13477 15.9102 0.119141 13.8887 0.119141H3.51758C1.50586 0.119141 0.490234 1.14453 0.490234 3.18555V17.9902C0.490234 20.041 1.50586 21.0566 3.51758 21.0566ZM5.01172 5.67578H12.4141C12.7559 5.67578 13.0195 5.40234 13.0195 5.06055C13.0195 4.72852 12.7559 4.47461 12.4141 4.47461H5.01172C4.65039 4.47461 4.39648 4.72852 4.39648 5.06055C4.39648 5.40234 4.65039 5.67578 5.01172 5.67578ZM5.01172 9.07422H12.4141C12.7559 9.07422 13.0195 8.81055 13.0195 8.46875C13.0195 8.13672 12.7559 7.87305 12.4141 7.87305H5.01172C4.65039 7.87305 4.39648 8.13672 4.39648 8.46875C4.39648 8.81055 4.65039 9.07422 5.01172 9.07422ZM12.5312 21.0566C13.4102 21.0566 14.2402 20.793 14.9238 20.3438L17.1211 22.541C17.3555 22.7754 17.5703 22.8633 17.834 22.8633C18.2832 22.8633 18.625 22.5117 18.625 22.0137C18.625 21.7988 18.5176 21.584 18.3516 21.418L16.125 19.1816C16.623 18.4688 16.916 17.6094 16.916 16.6719C16.916 14.2305 14.9531 12.2676 12.5312 12.2676C10.1094 12.2676 8.12695 14.25 8.12695 16.6719C8.12695 19.0938 10.1094 21.0566 12.5312 21.0566ZM12.5312 19.6602C10.8711 19.6602 9.52344 18.3125 9.52344 16.6719C9.52344 15.0312 10.8711 13.6738 12.5312 13.6738C14.1621 13.6738 15.5098 15.0312 15.5098 16.6719C15.5098 18.3125 14.1719 19.6602 12.5312 19.6602Z" fill="#5F9B8C"/>
</svg>
