<svg width="20" height="16" viewBox="0 0 20 16" fill="none" xmlns="http://www.w3.org/2000/svg">
<path d="M3.14209 15.3359H16.6577C18.2983 15.3359 19.1108 14.5312 19.1108 12.9219V3.375C19.1108 1.76562 18.2983 0.953125 16.6577 0.953125H3.14209C1.50928 0.953125 0.688965 1.76562 0.688965 3.375V12.9219C0.688965 14.5312 1.50928 15.3359 3.14209 15.3359ZM3.15771 14.0781C2.37646 14.0781 1.94678 13.6641 1.94678 12.8516V3.44531C1.94678 2.63281 2.37646 2.21094 3.15771 2.21094H16.6421C17.4155 2.21094 17.853 2.63281 17.853 3.44531V12.8516C17.853 13.6641 17.4155 14.0781 16.6421 14.0781H15.1577C14.5015 12.1328 12.4233 10.7578 9.90771 10.7578C7.38428 10.7578 5.30615 12.1328 4.65771 14.0781H3.15771ZM9.90771 9.45312C11.3999 9.46875 12.5796 8.19531 12.5796 6.52344C12.5796 4.95312 11.3999 3.65625 9.90771 3.65625C8.41553 3.65625 7.22803 4.95312 7.23584 6.52344C7.24365 8.19531 8.41553 9.4375 9.90771 9.45312Z" fill="white"/>
</svg>
