<svg width="13" height="12" viewBox="0 0 13 12" fill="none" xmlns="http://www.w3.org/2000/svg">
<path d="M11.6191 1.46484L12.041 1.03125C12.2402 0.820312 12.2402 0.539062 12.041 0.345703L11.9062 0.205078C11.7246 0.0234375 11.4375 0.046875 11.2441 0.234375L10.8164 0.65625L11.6191 1.46484ZM4.57031 7.85742L5.71289 7.35938L11.1855 1.89258L10.3828 1.10156L4.91602 6.56836L4.38867 7.66992C4.3418 7.76953 4.45898 7.9043 4.57031 7.85742ZM2.4375 11.6543H9.31641C10.3711 11.6543 10.9805 11.0449 10.9805 9.83789V3.57422L10.0371 4.51758V9.79102C10.0371 10.4004 9.70898 10.7109 9.30469 10.7109H2.45508C1.86914 10.7109 1.54102 10.4004 1.54102 9.79102V3.14062C1.54102 2.53125 1.86914 2.21484 2.45508 2.21484H7.79297L8.73633 1.27148H2.4375C1.21875 1.27148 0.597656 1.88086 0.597656 3.08789V9.83789C0.597656 11.0508 1.21875 11.6543 2.4375 11.6543Z" fill="#5F9B8C"/>
</svg>
