<svg width="25" height="22" viewBox="0 0 25 22" fill="none" xmlns="http://www.w3.org/2000/svg">
<path d="M2.71815 18.4439C2.22965 18.2768 1.77972 18.1868 1.39407 17.9683C0.507064 17.4798 0.0057134 16.7085 0.0057134 15.6801C0.0057134 13.6618 -0.00714175 11.6564 0.0057134 9.63815C0.0185685 8.1598 1.12411 7.00284 2.60245 6.98999C6.459 6.96428 10.3155 6.96428 14.1721 6.98999C15.6376 7.00284 16.7431 8.09553 16.7688 9.56101C16.8074 11.6178 16.8074 13.6747 16.7688 15.7315C16.7431 17.2741 15.6376 18.3154 14.0821 18.3282C11.871 18.3539 9.67278 18.3411 7.4617 18.3282C7.02462 18.3282 6.70324 18.4439 6.39472 18.7782C5.52057 19.7166 4.62071 20.6421 3.72085 21.5549C3.55373 21.722 3.25806 21.7734 3.01382 21.8762C2.91098 21.6448 2.731 21.4006 2.731 21.1692C2.69244 20.2436 2.71815 19.3181 2.71815 18.4439ZM8.47725 8.75114C7.11461 8.85398 5.99621 9.651 5.90622 10.7308C5.88051 10.9879 6.09905 11.3993 6.33044 11.5279C6.66468 11.7335 6.9732 11.4893 7.14032 11.1293C7.26887 10.8594 7.35886 10.5637 7.52597 10.3323C7.89877 9.80526 8.77292 9.75384 9.23571 10.1909C9.67278 10.5894 9.63422 11.1422 9.13286 11.6435C8.85005 11.9264 8.47725 12.1578 8.25872 12.4791C8.00161 12.8519 7.77022 13.289 7.70594 13.7261C7.66738 13.9575 7.93734 14.3817 8.16873 14.4974C8.54153 14.6774 8.73436 14.3431 8.91433 13.996C9.14572 13.5333 9.4671 13.109 9.78848 12.6977C9.96845 12.4663 10.2384 12.2992 10.4441 12.0806C11.254 11.1808 11.0997 9.88239 10.0456 9.2782C9.55709 9.03395 8.99146 8.93111 8.47725 8.75114ZM8.33585 15.0373C7.87306 15.063 7.59025 15.2944 7.57739 15.7829C7.56454 16.2714 7.86021 16.5285 8.33585 16.5285C8.78578 16.5285 9.05573 16.2585 9.08144 15.8215C9.08144 15.3587 8.8372 15.0759 8.33585 15.0373Z" fill="#5F9B8C"/>
<path d="M21.075 13.0319C21.075 12.4534 21.0878 11.785 21.075 11.1036C21.0621 10.6023 21.255 10.4223 21.7563 10.3966C23.2732 10.3452 23.8003 9.76669 23.8003 8.23693C23.8003 6.46292 23.8003 4.68891 23.8003 2.90205C23.8003 1.59082 23.1318 0.909501 21.8463 0.909501C18.1697 0.909501 14.4803 0.909501 10.8037 0.909501C9.56964 0.909501 8.88831 1.57797 8.88831 2.79921C8.88831 3.72478 8.88831 4.63749 8.88831 5.56306C8.88831 5.91015 8.82404 6.25724 8.41267 6.25724C7.9756 6.25724 7.96274 5.88444 7.96274 5.55021C7.96274 4.58607 7.94989 3.62194 7.96274 2.6578C7.96274 1.08947 9.05543 0.00964136 10.6238 0.00964136C14.416 -0.00321379 18.2083 -0.00321379 21.9877 0.00964136C23.5946 0.00964136 24.6873 1.11518 24.7001 2.70922C24.713 4.54751 24.7001 6.38579 24.7001 8.23693C24.7001 10.1909 23.9931 11.0265 21.9877 11.3993C21.9877 12.2992 22.0134 13.2119 21.9749 14.1374C21.962 14.3945 21.7692 14.6516 21.6663 14.8959C21.4349 14.7802 21.1521 14.7159 20.9721 14.536C19.9437 13.5075 18.941 12.4534 17.9255 11.4122C17.6941 11.1808 17.4241 10.9237 17.7327 10.5894C18.0797 10.2295 18.3368 10.5251 18.5939 10.7694C19.4295 11.5278 20.2523 12.2863 21.075 13.0319Z" fill="#5F9B8C"/>
</svg>
