<svg width="60" height="33" viewBox="0 0 60 33" fill="none" xmlns="http://www.w3.org/2000/svg">
<g filter="url(#filter0_d_8481_15739)">
<circle cx="16" cy="14" r="11.5" fill="#F3FCF9" stroke="#9FC3BA"/>
<path d="M23 14C23 17.8659 19.8659 21 16 21C12.1344 21 9 17.8659 9 14C9 10.1344 12.1344 7 16 7C19.8659 7 23 10.1344 23 14Z" fill="#FFCC4D"/>
<path d="M15.7333 13.8492C15.6649 13.7935 15.5673 13.792 15.4961 13.8437C15.4914 13.8472 15.0061 14.1945 14.0564 14.1945C13.1071 14.1945 12.6214 13.8472 12.6175 13.8445C12.5464 13.7912 12.4484 13.7928 12.3799 13.848C12.3107 13.9032 12.2874 13.9981 12.3231 14.079C12.3465 14.1315 12.9065 15.3612 14.0564 15.3612C15.2068 15.3612 15.7664 14.1315 15.7897 14.079C15.8255 13.9985 15.8021 13.9044 15.7333 13.8492ZM19.6222 13.8492C19.5538 13.7935 19.4565 13.7916 19.385 13.8437C19.3803 13.8472 18.8946 14.1945 17.9453 14.1945C16.9964 14.1945 16.5103 13.8472 16.5064 13.8445C16.4353 13.7912 16.3376 13.7928 16.2688 13.848C16.1996 13.9032 16.1763 13.9981 16.212 14.079C16.2354 14.1315 16.7954 15.3612 17.9453 15.3612C19.0956 15.3612 19.6553 14.1315 19.6786 14.079C19.7144 13.9985 19.691 13.9044 19.6222 13.8492ZM17.5564 17.8889H14.4453C14.2306 17.8889 14.0564 17.7151 14.0564 17.5C14.0564 17.285 14.2306 17.1112 14.4453 17.1112H17.5564C17.7715 17.1112 17.9453 17.285 17.9453 17.5C17.9453 17.7151 17.7715 17.8889 17.5564 17.8889ZM11.3342 12.4445C11.1195 12.4445 10.9453 12.2703 10.9453 12.0556C10.9453 11.8413 11.1184 11.6675 11.3326 11.6667C11.3933 11.6659 12.7206 11.6333 13.7457 10.2667C13.8744 10.0956 14.1179 10.0598 14.2901 10.1889C14.462 10.3177 14.4966 10.5615 14.3679 10.7334C13.099 12.425 11.4058 12.4445 11.3342 12.4445ZM20.6675 12.4445C20.596 12.4445 18.9031 12.425 17.6342 10.7334C17.5051 10.5615 17.5401 10.3177 17.712 10.1889C17.8835 10.0594 18.1269 10.0948 18.256 10.2667C19.2831 11.636 20.6131 11.6663 20.6695 11.6667C20.8834 11.669 21.056 11.844 21.0549 12.0575C21.0541 12.2718 20.8814 12.4445 20.6675 12.4445Z" fill="#664500"/>
</g>
<g filter="url(#filter1_d_8481_15739)">
<circle cx="30" cy="14" r="11.5" fill="#F3FCF9" stroke="#9FC3BA"/>
<path d="M37 11.8622C37 9.72916 35.2708 8 33.1382 8C31.8434 8 30.701 8.63914 30 9.61605C29.299 8.63914 28.1566 8 26.8622 8C24.7292 8 23 9.72877 23 11.8622C23 12.1644 23.0384 12.4571 23.1041 12.7393C23.6403 16.0712 27.3448 19.5863 30 20.5515C32.6548 19.5863 36.3597 16.0712 36.8951 12.7397C36.9616 12.4575 37 12.1648 37 11.8622Z" fill="#DD2E44"/>
</g>
<g filter="url(#filter2_d_8481_15739)">
<circle cx="44" cy="15" r="11.5" fill="#F3FCF9" stroke="#9FC3BA"/>
<path d="M43.9097 14.427C43.9097 14.427 40.928 17.0345 40.083 17.8048C39.4289 18.3995 40.5181 19.5342 41.1386 19.0171C42.7864 17.6401 44.3487 16.6192 44.3487 16.6192L44.5302 16.8792C43.883 17.2698 42.2099 18.2923 41.3418 19.0734C40.6872 19.6618 41.721 20.83 42.3766 20.2427C43.2774 19.4348 45.3405 17.9857 45.3405 17.9857L45.5225 18.1756C44.9885 18.5113 44.152 19.1347 43.0578 20.1324C42.3993 20.7331 43.3639 21.361 43.93 20.8909C45.4705 19.6123 45.5279 18.7239 47.2232 17.9986C49.8104 16.8921 43.9097 14.427 43.9097 14.427Z" fill="#EF9645"/>
<path d="M50.3273 9.89644C50.7628 9.6799 51.1445 9.96764 51.3685 10.4171C51.59 10.8675 52.6203 12.8965 52.8285 13.3187C53.0386 13.7399 52.9229 14.3584 52.473 14.5809C52.0226 14.8049 51.3685 15.102 50.9443 15.8229C50.7144 16.2154 49.7597 17.2502 47.1725 18.3587C45.4781 19.0815 44.1245 20.3056 43.5826 20.7318C43.1446 21.0769 42.261 20.4169 42.9186 19.8172C44.0132 18.8185 44.8498 18.195 45.3832 17.8603L45.2013 17.6695C45.2013 17.6695 43.0353 19.1804 42.1172 19.9685C41.4937 20.5049 40.6646 19.4973 41.3197 18.9094C42.1884 18.1283 43.7433 16.9546 44.3905 16.564L44.2095 16.3024C44.2095 16.3024 42.5137 17.4055 40.8649 18.7844C40.3146 19.2442 39.4573 18.2113 40.1109 17.6156C40.9563 16.8468 42.6042 15.4684 43.6177 14.8969L43.5208 14.5958C43.5208 14.5958 41.9298 15.4882 40.5563 16.8176C40.0649 17.2927 39.086 16.4132 39.8024 15.6839C41.514 13.9427 43.7368 12.9108 44.3282 12.5133C45.1222 11.9794 45.5399 11.6461 45.1222 11.4588C44.4923 11.1755 43.4432 10.1822 43.0407 9.37732C42.5201 8.3361 43.2583 7.51341 44.0814 8.3361C44.6021 8.85671 45.6433 9.89743 46.6835 9.89743C48.0822 9.89743 48.2962 10.418 49.286 10.418C49.8071 10.4171 50.3273 9.89644 50.3273 9.89644Z" fill="#FFCC4D"/>
<path d="M47.8896 13.0265C47.7245 13.027 47.1782 12.9523 46.5627 12.668C46.0322 12.4238 45.6208 11.9808 45.2787 11.609C45.298 11.6886 45.2466 11.784 45.1388 11.8958C45.4755 12.2873 45.9906 12.7343 46.4509 12.9568C46.9859 13.2163 47.5955 13.3473 47.8704 13.336C48.1532 13.3241 48.0607 13.0285 47.8896 13.0265ZM48.961 17.2685C47.8417 16.7474 46.9527 16.3123 48.4795 16.9422C49.1108 17.2017 50.0586 15.9237 49.1296 15.5C47.2598 14.6466 41.4387 11.4607 41.4387 11.4607C41.4387 11.4607 38.2903 15.1376 38.6799 15.3734C39.07 15.6078 39.2326 17.2764 41.4807 18.7443C43.6056 20.1326 44.9291 20.7293 45.4265 20.978C46.4682 21.4986 47.1456 20.1484 46.3328 19.7855C44.9321 19.1596 44.9811 19.1215 47.0338 19.9743C47.7937 20.2908 48.4325 18.8619 47.6296 18.5005C46.4321 17.9621 46.3244 17.8969 48.2422 18.7611C48.9516 19.079 49.7615 17.6417 48.961 17.2685Z" fill="#EF9645"/>
<path d="M39.0107 10.1149C38.5944 9.86324 38.0417 9.98833 37.7821 10.419C37.5226 10.8496 36.384 12.7343 36.1412 13.1382C35.898 13.5416 35.9612 14.166 36.3914 14.4256C36.8215 14.6857 37.6012 15.1558 37.9913 15.3907C38.3814 15.6265 39.9743 17.6041 42.2738 18.9895C44.5718 20.3778 45.4212 20.6141 45.9383 20.8173C46.4575 21.02 47.1432 19.9852 46.3304 19.6228C44.9278 18.9959 43.9395 18.4174 43.4337 18.0382L43.5909 17.749C43.5909 17.749 44.9935 18.7971 47.0453 19.6515C47.8052 19.9679 48.4247 18.7843 47.6223 18.4219C46.4243 17.8835 44.9466 16.9911 44.334 16.5481L44.5051 16.2658C44.5051 16.2658 46.456 17.4988 48.3738 18.3631C49.0813 18.6819 49.675 17.48 48.8746 17.1063C47.7572 16.5852 46.1811 15.6453 45.219 14.9917L45.3861 14.7445C45.3861 14.7445 47.1734 16.0057 48.7011 16.6346C49.3324 16.8957 50.0755 15.7145 49.1455 15.2893C47.2772 14.4365 45.1587 12.9439 44.6029 12.4989C44.1491 12.1345 44.0191 11.3059 45.1231 10.9376C46.6844 10.417 47.205 9.37625 47.205 8.85565C47.205 8.11948 46.5247 7.79465 46.1648 8.33504C45.1231 9.89637 44.5995 9.36439 43.5627 9.89637C42.3198 10.5346 40.8603 11.2125 40.0134 10.7013C39.651 10.4832 39.0107 10.1149 39.0107 10.1149Z" fill="#FFDC5D"/>
<path d="M44.8747 11.3227L47.5573 9.98186C47.3215 9.93143 47.0431 9.89682 46.6857 9.89682C45.6454 9.89682 44.6042 8.8561 44.0836 8.33549C43.2604 7.5128 42.5223 8.33549 43.0429 9.37671C43.3964 10.0827 44.2458 10.9331 44.8747 11.3227Z" fill="#FFCC4D"/>
</g>
<defs>
<filter id="filter0_d_8481_15739" x="0" y="0" width="32" height="32" filterUnits="userSpaceOnUse" color-interpolation-filters="sRGB">
<feFlood flood-opacity="0" result="BackgroundImageFix"/>
<feColorMatrix in="SourceAlpha" type="matrix" values="0 0 0 0 0 0 0 0 0 0 0 0 0 0 0 0 0 0 127 0" result="hardAlpha"/>
<feOffset dy="2"/>
<feGaussianBlur stdDeviation="2"/>
<feComposite in2="hardAlpha" operator="out"/>
<feColorMatrix type="matrix" values="0 0 0 0 0 0 0 0 0 0 0 0 0 0 0 0 0 0 0.25 0"/>
<feBlend mode="normal" in2="BackgroundImageFix" result="effect1_dropShadow_8481_15739"/>
<feBlend mode="normal" in="SourceGraphic" in2="effect1_dropShadow_8481_15739" result="shape"/>
</filter>
<filter id="filter1_d_8481_15739" x="14" y="0" width="32" height="32" filterUnits="userSpaceOnUse" color-interpolation-filters="sRGB">
<feFlood flood-opacity="0" result="BackgroundImageFix"/>
<feColorMatrix in="SourceAlpha" type="matrix" values="0 0 0 0 0 0 0 0 0 0 0 0 0 0 0 0 0 0 127 0" result="hardAlpha"/>
<feOffset dy="2"/>
<feGaussianBlur stdDeviation="2"/>
<feComposite in2="hardAlpha" operator="out"/>
<feColorMatrix type="matrix" values="0 0 0 0 0 0 0 0 0 0 0 0 0 0 0 0 0 0 0.25 0"/>
<feBlend mode="normal" in2="BackgroundImageFix" result="effect1_dropShadow_8481_15739"/>
<feBlend mode="normal" in="SourceGraphic" in2="effect1_dropShadow_8481_15739" result="shape"/>
</filter>
<filter id="filter2_d_8481_15739" x="28" y="1" width="32" height="32" filterUnits="userSpaceOnUse" color-interpolation-filters="sRGB">
<feFlood flood-opacity="0" result="BackgroundImageFix"/>
<feColorMatrix in="SourceAlpha" type="matrix" values="0 0 0 0 0 0 0 0 0 0 0 0 0 0 0 0 0 0 127 0" result="hardAlpha"/>
<feOffset dy="2"/>
<feGaussianBlur stdDeviation="2"/>
<feComposite in2="hardAlpha" operator="out"/>
<feColorMatrix type="matrix" values="0 0 0 0 0 0 0 0 0 0 0 0 0 0 0 0 0 0 0.25 0"/>
<feBlend mode="normal" in2="BackgroundImageFix" result="effect1_dropShadow_8481_15739"/>
<feBlend mode="normal" in="SourceGraphic" in2="effect1_dropShadow_8481_15739" result="shape"/>
</filter>
</defs>
</svg>
