<svg width="14" height="9" viewBox="0 0 14 9" fill="none" xmlns="http://www.w3.org/2000/svg">
<path d="M11.0794 1.91724C11.4074 1.55218 11.7243 1.20009 12.0412 0.848008C12.119 0.760914 12.1968 0.673819 12.2765 0.586724C12.6212 0.208695 13.1697 0.177192 13.5533 0.514453C13.6293 0.581164 13.709 0.647875 13.7757 0.723852C14.0814 1.06667 14.074 1.57442 13.7571 1.92836C13.1734 2.57879 12.5897 3.22737 12.0041 3.87595C11.7132 4.20024 11.4223 4.52453 11.1295 4.84511C11.0906 4.88958 11.072 4.9322 11.072 4.9915C11.0739 5.79945 11.0739 6.60924 11.072 7.41719C11.0702 8.11209 10.6217 8.70693 9.96018 8.8978C9.81934 8.93857 9.67665 8.95525 9.53026 8.95525C6.86923 8.95525 4.20821 8.95525 1.54718 8.95525C0.691056 8.95525 0.00912159 8.28258 0.00726851 7.42645C0.00356234 5.44365 -0.0112623 3.45715 0.0165339 1.4725C0.0239463 0.864686 0.379738 0.419946 0.944928 0.166074C1.13024 0.0826851 1.32666 0.0456234 1.52865 0.0456234C4.20265 0.0456234 6.87665 0.0437703 9.54879 0.0456234C10.29 0.0456234 10.9108 0.579311 11.0479 1.30757C11.0869 1.50585 11.0591 1.70228 11.0794 1.91724ZM10.505 5.54187C10.1548 5.93102 9.8212 6.29793 9.49135 6.6704C9.38943 6.78343 9.26898 6.86312 9.13 6.91871C8.73158 7.07437 8.33317 7.23003 7.93476 7.38569C7.79763 7.43943 7.66606 7.43387 7.55302 7.3338C7.43628 7.23003 7.41775 7.10031 7.45851 6.95392C7.57526 6.53512 7.68644 6.11632 7.80134 5.69753C7.83654 5.56966 7.8977 5.45292 7.9885 5.351C8.80756 4.44299 9.62477 3.53313 10.4438 2.62697C10.4883 2.57694 10.5087 2.52875 10.5068 2.46204C10.5031 2.32677 10.5013 2.18964 10.5068 2.05437C10.5087 1.9858 10.4939 1.96171 10.4179 1.96171C7.16573 1.96356 3.91542 1.96356 0.66326 1.96171C0.592843 1.96171 0.572459 1.97839 0.572459 2.05066C0.574312 3.83518 0.574312 5.6197 0.574312 7.40422C0.574312 7.97126 0.998668 8.39006 1.56571 8.39006C4.20821 8.39006 6.85256 8.39006 9.49505 8.39006C10.088 8.39006 10.505 7.97682 10.505 7.38569C10.505 6.80752 10.505 6.23122 10.505 5.65305C10.505 5.62526 10.505 5.59561 10.505 5.54187ZM5.54057 1.39281C6.46341 1.39281 7.38624 1.39281 8.30908 1.39281C9.00769 1.39281 9.70445 1.39096 10.4031 1.39467C10.4772 1.39467 10.4883 1.37984 10.4679 1.30943C10.3512 0.903601 9.96944 0.612667 9.54509 0.612667C6.8785 0.612667 4.21006 0.612667 1.54347 0.612667C1.11912 0.612667 0.752208 0.881364 0.620639 1.28348C0.58543 1.39281 0.58543 1.39281 0.696615 1.39281C2.31065 1.39467 3.92654 1.39467 5.54057 1.39281ZM12.9585 1.96356C12.9399 1.94689 12.9251 1.93206 12.9103 1.91724C12.7324 1.75602 12.5508 1.59665 12.3747 1.43173C12.3266 1.3854 12.3043 1.40208 12.2691 1.44285C12.0931 1.64113 11.9152 1.83755 11.7373 2.03583C10.6847 3.20513 9.63218 4.37628 8.57778 5.54372C8.52589 5.60302 8.52033 5.63082 8.58334 5.68456C8.75382 5.82724 8.91689 5.97734 9.07996 6.1293C9.13555 6.18118 9.16335 6.18859 9.21894 6.12559C9.7026 5.58078 10.1918 5.04154 10.6792 4.50044C11.4223 3.67396 12.1653 2.84934 12.9084 2.02286C12.9233 2.00433 12.9381 1.9858 12.9585 1.96356ZM13.4329 1.32425C13.4329 1.25569 13.4199 1.19639 13.3865 1.14821C13.3068 1.03702 13.2068 0.942516 13.0863 0.879511C12.9733 0.822065 12.8603 0.842449 12.7546 0.914719C12.7064 0.948075 12.7046 0.970312 12.7509 1.01108C12.914 1.15191 13.0715 1.30016 13.2346 1.44285C13.2698 1.47435 13.3068 1.54291 13.3458 1.52624C13.4014 1.504 13.4162 1.42988 13.4291 1.37058C13.4329 1.35205 13.431 1.33352 13.4329 1.32425ZM8.11636 6.70375C8.30167 6.63148 8.46659 6.56662 8.64263 6.49991C8.51292 6.38317 8.39247 6.27569 8.26461 6.1608C8.21457 6.34055 8.16825 6.50918 8.11636 6.70375Z" fill="#5F9B8C"/>
</svg>
