<svg width="28" height="31" viewBox="0 0 28 31" fill="none" xmlns="http://www.w3.org/2000/svg">
<path d="M17.1438 31H3.79936C4.0445 30.1279 4.33559 29.2714 4.51944 28.3837C4.91779 26.3124 4.97907 24.3034 3.53891 22.4813C2.71158 21.4224 2.03746 20.2076 1.39399 19.0085C0.030429 16.4544 -0.168742 13.6668 0.107033 10.848C0.428772 7.57759 1.77701 4.8211 4.38156 2.74983C7.2006 0.538408 10.4793 -0.0845281 13.8958 0.00891236C17.3124 0.102353 20.3306 1.37937 22.6594 3.98013C24.8043 6.37844 26.1372 9.10378 25.2945 12.4832C25.0494 13.4488 25.3099 14.2119 25.9227 14.9127C26.3976 15.4577 26.8726 15.9872 27.3475 16.5323C28.3587 17.747 28.2055 18.6659 26.8113 19.3667C26.2291 19.6626 25.984 20.1609 26.1525 20.706C26.4589 21.7182 26.5202 22.5748 25.2639 23.0731C26.413 23.4157 26.6275 24.1166 25.9074 24.8329C25.3405 25.3936 25.1567 25.9854 25.3099 26.7796C25.4937 27.7763 24.8656 28.7263 23.885 28.9132C23.8084 28.9287 23.7318 28.9443 23.6552 28.9443C22.307 29.0533 20.9587 29.0845 19.6105 29.1C18.7679 29.1 18.1244 29.3959 17.7107 30.1435C17.4962 30.4238 17.3124 30.7041 17.1438 31ZM12.9612 3.68424C12.7008 3.69981 12.2718 3.69981 11.8428 3.7621C8.82461 4.08915 6.2507 6.31614 5.72979 9.05706C5.48466 10.3029 5.99025 11.2841 7.03207 11.6111C8.07389 11.9381 8.97782 11.3931 9.45277 10.1628C9.6979 9.50869 9.97367 8.87018 10.2954 8.24725C11.0461 6.86121 12.3178 6.68991 13.6813 6.84564C14.8151 6.9858 15.6424 7.62431 16.0101 8.73002C16.4391 10.0226 15.8569 10.9882 14.953 11.8447C14.049 12.7012 13.1604 13.4643 12.3024 14.3209C11.1381 15.4889 10.6478 16.9216 10.801 18.5724C10.9236 19.8339 11.996 20.5035 13.1757 20.1453C13.9265 19.9117 14.2176 19.3044 14.3095 18.6191C14.478 17.3577 15.1368 16.4233 16.0561 15.6135C16.9294 14.8192 17.818 14.0406 18.63 13.1684C20.7289 10.9414 20.6523 7.79562 18.4768 5.66206C16.9906 4.19816 15.1521 3.69981 12.9612 3.68424ZM10.5252 23.7584C10.5099 25.0354 11.4292 25.9542 12.7008 25.9542C13.9724 25.9542 14.8917 25.0354 14.8917 23.7584C14.9223 22.5592 13.9877 21.5625 12.808 21.5469C12.7774 21.5469 12.7468 21.5469 12.7161 21.5469C11.5211 21.5314 10.5405 22.4969 10.5252 23.6961C10.5252 23.7116 10.5252 23.7272 10.5252 23.7584Z" fill="#B46868"/>
</svg>
