<svg width="17" height="20" viewBox="0 0 17 20" fill="none" xmlns="http://www.w3.org/2000/svg">
<path d="M8.67969 19.8125C8.83594 19.8125 9.08008 19.7539 9.32422 19.627C14.8809 16.7168 16.668 15.2617 16.668 11.7559V4.39258C16.668 3.38672 16.2383 3.06445 15.418 2.72266C14.2754 2.25391 10.623 0.925781 9.49023 0.535156C9.22656 0.447266 8.95312 0.398438 8.67969 0.398438C8.40625 0.398438 8.13281 0.457031 7.87891 0.535156C6.73633 0.90625 3.08398 2.26367 1.94141 2.72266C1.13086 3.05469 0.691406 3.38672 0.691406 4.39258V11.7559C0.691406 15.2617 2.57617 16.5508 8.03516 19.627C8.28906 19.7637 8.52344 19.8125 8.67969 19.8125ZM7.58594 14.5098C7.25391 14.5098 6.98047 14.3828 6.72656 14.041L4.27539 11.0332C4.12891 10.8379 4.04102 10.6133 4.04102 10.3984C4.04102 9.94922 4.38281 9.58789 4.83203 9.58789C5.10547 9.58789 5.32031 9.68555 5.56445 10.0078L7.54688 12.5664L11.7168 5.86719C11.9023 5.56445 12.1562 5.41797 12.4199 5.41797C12.8398 5.41797 13.2402 5.71094 13.2402 6.16016C13.2402 6.38477 13.123 6.60938 12.9961 6.80469L8.40625 14.041C8.20117 14.3535 7.91797 14.5098 7.58594 14.5098Z" fill="url(#paint0_linear_1559_166312)"/>
<defs>
<linearGradient id="paint0_linear_1559_166312" x1="21" y1="10" x2="-3" y2="10" gradientUnits="userSpaceOnUse">
<stop offset="0.291667" stop-color="#5F9B8C"/>
<stop offset="0.630208" stop-color="#E1555A"/>
</linearGradient>
</defs>
</svg>
