<svg width="36" height="36" viewBox="0 0 36 36" fill="none" xmlns="http://www.w3.org/2000/svg">
<path d="M6.45453 0.569436C5.14943 1.04346 4.06594 1.75142 3.08711 2.76103C1.81279 4.0846 1.00018 5.64211 0.587716 7.59361C0.396876 8.48009 0.347626 10.2962 0.489218 11.0164C0.809338 12.6109 1.64657 14.2423 2.80393 15.5166C3.34567 16.1199 3.77045 16.2122 4.16444 15.8121C4.31219 15.6643 4.34297 15.5843 4.34297 15.3319C4.34297 15.0364 4.3245 14.9995 3.8751 14.4823C3.27796 13.7867 3.01324 13.3989 2.6685 12.7032C1.40648 10.1915 1.58501 7.31658 3.13636 4.97724C4.09057 3.54901 5.45723 2.50247 7.16249 1.89917C7.83351 1.65908 8.03666 1.47439 8.03666 1.09271C8.03666 0.353971 7.51954 0.187755 6.45453 0.569436Z" fill="#B46868"/>
<path d="M28.1305 0.470022C27.9396 0.623926 27.8596 0.808611 27.8596 1.09795C27.8596 1.46116 28.0751 1.652 28.7092 1.86131C31.344 2.74164 33.2955 4.93323 33.8988 7.68503C34.065 8.4484 34.0958 9.76581 33.9604 10.5169C33.7018 11.9636 33.0739 13.2502 32.0212 14.4814C31.5779 14.9924 31.5533 15.0416 31.5533 15.3187C31.5533 15.688 31.7626 15.9712 32.0766 16.0328C32.446 16.1005 32.7784 15.8912 33.314 15.2509C34.4344 13.9027 35.13 12.4499 35.3947 10.8924C35.5117 10.2152 35.524 8.67617 35.4255 7.94975C34.9638 4.53308 32.5875 1.63354 29.3679 0.543896C28.7461 0.334587 28.3275 0.309962 28.1305 0.470022Z" fill="#B46868"/>
<path d="M17.1474 3.7474C17.1474 4.14139 17.1351 4.17833 17.012 4.20295C16.9319 4.21527 16.6364 4.28298 16.3471 4.3507C13.5768 4.99094 11.496 7.17022 10.9605 9.97127C10.8866 10.3776 10.8681 11.0363 10.8681 13.5603C10.8681 15.2594 10.8373 16.9585 10.8004 17.3463C10.6465 19.027 10.0124 20.3013 9.08899 20.7938C8.79349 20.9477 8.08553 21.1632 7.83929 21.1693C7.80851 21.1693 7.79004 21.3909 7.79004 21.6618V22.1543H17.9477H28.1053V21.6618V21.1755L27.8776 21.1385C26.634 20.9477 25.9076 20.3075 25.4397 18.9716C25.0888 17.9989 25.0765 17.8081 25.0273 13.7819L24.9903 10.0575L24.8241 9.45415C24.4486 8.06286 23.5806 6.69004 22.5156 5.82202C21.5921 5.06482 20.6564 4.60926 19.419 4.31992L18.748 4.16602V3.74124V3.31647H17.9477H17.1474V3.7474Z" fill="#B46868"/>
<path d="M6.74355 3.94861C4.94595 4.56423 3.65316 6.22023 3.2961 8.36258C3.06217 9.75387 3.60391 11.5207 4.57658 12.5611C5.02598 13.0413 5.32148 13.1459 5.697 12.9489C5.94325 12.8196 6.06637 12.6226 6.06637 12.3456C6.06637 12.0624 5.99865 11.927 5.67853 11.5638C5.33995 11.1759 5.03829 10.6404 4.85977 10.0925C4.47193 8.95357 4.80436 7.41453 5.6416 6.4357C5.99865 6.02324 6.66967 5.56768 7.26067 5.3399C7.90706 5.09366 8.03634 4.97669 8.03634 4.62579C8.03634 4.29336 7.90091 3.96093 7.74085 3.87474C7.54385 3.77009 7.18064 3.79471 6.74355 3.94861Z" fill="#B46868"/>
<path d="M28.0441 3.98526C27.8348 4.18842 27.767 4.40388 27.8224 4.68706C27.8779 4.97025 28.0564 5.118 28.6043 5.3273C29.8478 5.80748 30.7959 6.87866 31.0975 8.14682C31.1714 8.46079 31.1899 8.74397 31.1652 9.19337C31.116 10.0675 30.8451 10.7755 30.3095 11.4342C29.9032 11.9329 29.8294 12.0683 29.8294 12.3022C29.8294 12.807 30.2972 13.1395 30.7712 12.9856C31.1468 12.8563 31.7562 12.1114 32.1379 11.2988C32.8643 9.7782 32.8151 7.84517 32.0148 6.4231C31.3561 5.24727 30.2972 4.33616 29.0968 3.9237C28.592 3.74517 28.2595 3.7698 28.0441 3.98526Z" fill="#B46868"/>
<path d="M15.1348 23.0553C15.2272 23.6155 15.6827 24.2373 16.3045 24.6436C17.271 25.2777 18.5946 25.29 19.555 24.6682C20.0044 24.3789 20.503 23.8125 20.6508 23.4124C20.8908 22.766 21.1863 22.8275 17.942 22.8275H15.0979L15.1348 23.0553Z" fill="#B46868"/>
<path d="M16.3663 27.81C15.726 28.0316 15.3628 28.4872 15.2459 29.2321C15.1597 29.7492 15.1597 33.9415 15.2397 34.4586C15.3628 35.1974 15.7445 35.7083 16.3416 35.9115C16.6864 36.0285 17.6406 36.0285 17.9669 35.9176C18.5025 35.7206 18.8534 35.3451 19.0196 34.7603C19.1119 34.4586 19.1181 34.0646 19.1058 31.7191C19.0873 29.0228 19.0873 29.0166 18.9395 28.6903C18.7549 28.284 18.3609 27.9331 17.9422 27.7977C17.5236 27.6622 16.7787 27.6622 16.3663 27.81ZM17.5852 29.1028L17.7637 29.2813V31.8484C17.7637 33.566 17.7391 34.4525 17.696 34.5387C17.6098 34.7049 17.2404 34.8526 17.025 34.8034C16.9326 34.7849 16.791 34.6987 16.711 34.6125L16.5633 34.4525L16.5448 32.0454C16.5325 30.7157 16.5448 29.5399 16.5633 29.4229C16.6556 28.9243 17.2281 28.7457 17.5852 29.1028Z" fill="#B46868"/>
<path d="M10.376 31.8495V35.9434H10.9608H11.5456L11.5518 33.1238V30.3105L12.2536 32.8961C12.6414 34.3181 12.9862 35.5863 13.0231 35.7094L13.0908 35.9434H13.7619H14.439V31.8495V27.7557H13.8542H13.2694L13.2571 30.0458L13.2386 32.342L12.623 30.0519L12.0074 27.7557H11.1947H10.376V31.8495Z" fill="#B46868"/>
<path d="M19.61 27.7965C19.6038 27.8273 19.807 29.668 20.0532 31.8904L20.5026 35.9411H21.4014H22.3002L22.3372 35.6764C22.3556 35.5348 22.448 34.6729 22.5403 33.768C22.6388 32.8569 22.7373 32.1612 22.7558 32.2289C22.7804 32.2905 22.8728 33.06 22.9651 33.9404C23.0513 34.8207 23.1436 35.6333 23.1621 35.7441L23.1929 35.9473L24.0609 35.9288L24.9351 35.9103L25.3783 31.9396C25.6184 29.7542 25.8216 27.9196 25.8216 27.8581C25.8277 27.7657 25.76 27.7534 25.2429 27.7534C24.9228 27.7534 24.658 27.7596 24.658 27.7657C24.6519 27.9381 24.0424 33.6818 24.0301 33.7003C24.0178 33.7126 23.8885 32.4937 23.7408 30.9977C23.593 29.5018 23.4638 28.1597 23.4453 28.012L23.4083 27.7534H22.7804H22.1463L22.1094 28.0428C22.0909 28.209 21.9617 29.5264 21.8262 30.9854C21.6908 32.4383 21.5677 33.688 21.5615 33.7557C21.5553 33.8234 21.4138 32.6045 21.2475 31.047C21.0813 29.4895 20.9336 28.1105 20.9151 27.9812L20.8843 27.7534H20.2502C19.8993 27.7534 19.61 27.7719 19.61 27.7965Z" fill="#B46868"/>
</svg>
