<svg width="19" height="19" viewBox="0 0 19 19" fill="none" xmlns="http://www.w3.org/2000/svg">
<path d="M1.30553 0.131577C0.8737 0.312342 0.401701 0.724085 0.200851 1.12579C0.0100425 1.5074 0 1.72834 0 7.32203V13.1266L0.230978 13.4982C0.502126 13.9501 1.0143 14.3518 1.50638 14.4823C1.69719 14.5326 2.24953 14.5828 2.74161 14.5828H3.61531V16.2197C3.61531 18.0073 3.64544 18.0977 4.17769 18.0977C4.4388 18.0977 4.93088 17.7663 6.80883 16.3402L9.11861 14.5928L12.8645 14.5627C16.9719 14.5326 16.8815 14.5426 17.5142 13.9099C18.0866 13.3475 18.0765 13.4681 18.0765 7.23164V1.47727L17.8456 1.07557C17.7251 0.864681 17.4238 0.54332 17.1928 0.372597L16.7509 0.0713215L9.15878 0.0512352C4.2982 0.041193 1.46621 0.0713215 1.30553 0.131577ZM16.54 1.32664C16.7509 1.45719 16.8915 1.63795 16.9618 1.89906C17.1024 2.41123 17.1125 12.0822 16.9719 12.5944C16.9116 12.7952 16.7308 13.0764 16.5601 13.217L16.2488 13.4781H12.4527H8.64662L6.70841 14.9443L4.7702 16.4105L4.71999 15.0548C4.68986 14.3016 4.6296 13.6589 4.58943 13.6086C4.53922 13.5685 3.86637 13.5082 3.0931 13.4781L1.68714 13.4279L1.39591 13.0965L1.10468 12.7751V7.2919V1.80868L1.44612 1.46723L1.78757 1.12579H9.00815C15.9676 1.12579 16.2287 1.13583 16.54 1.32664Z" fill="#666666"/>
<path d="M11.5062 3.0224C11.4412 3.04869 11.3594 3.13948 11.3281 3.22072C11.3088 3.26611 11.3016 3.90645 11.3016 5.21101V7.13201H10.8875H10.471L10.4685 6.70671C10.4637 6.05204 10.3771 5.65064 10.1435 5.19667C9.9509 4.81916 9.68124 4.53722 9.3514 4.3628C8.9108 4.12865 7.99108 3.99724 7.56974 4.10715C7.23749 4.19316 6.9895 4.37236 6.86912 4.61607C6.78726 4.78093 6.78485 5.11066 6.86671 5.27313C6.93653 5.41171 7.12433 5.60046 7.26397 5.66975C7.55048 5.81072 8.03442 5.83461 8.32574 5.71993C8.62188 5.60524 8.87709 5.26118 8.8795 4.97924C8.88191 4.9004 8.88431 4.83827 8.88913 4.83827C8.89395 4.83827 8.93006 4.855 8.9734 4.8765C9.29121 5.03898 9.52715 5.41649 9.64031 5.94452C9.69569 6.19779 9.72699 6.73538 9.70291 6.96953L9.68365 7.12962L7.56252 7.13679C5.62437 7.14395 5.42694 7.14873 5.29452 7.18696C4.92856 7.29209 4.68298 7.47368 4.56501 7.72455C4.50722 7.84641 4.5 7.88942 4.5 8.12596C4.5 8.38161 4.50241 8.39356 4.58908 8.56798C4.63724 8.66355 4.71669 8.79018 4.76484 8.84753C5.02246 9.1438 5.63159 9.42335 6.25758 9.53326C6.59946 9.59299 7.34824 9.60733 7.73346 9.55954C8.9758 9.40662 9.72458 8.93832 10.182 8.028L10.3024 7.78907L10.8032 7.7819L11.3016 7.77712V8.99566C11.3016 10.3122 11.3016 10.3098 11.4316 10.4269C11.5231 10.5129 11.7253 10.5248 11.8433 10.4531C12.0118 10.3504 11.9998 10.6371 11.9998 6.74972C11.9998 2.87188 12.0118 3.14904 11.8481 3.04869C11.7614 2.99612 11.5977 2.98418 11.5062 3.0224ZM9.4477 7.82013C9.4477 7.88225 9.2262 8.19525 9.0673 8.35772C8.69893 8.73284 8.26796 8.90009 7.5553 8.94549C6.60669 9.00761 5.63159 8.78063 5.36675 8.43657C5.20785 8.2287 5.26081 7.95871 5.48473 7.82252C5.55695 7.77951 5.64122 7.77712 7.50474 7.77712C9.36825 7.77712 9.4477 7.77951 9.4477 7.82013Z" fill="#666666"/>
</svg>
