<svg width="17" height="18" viewBox="0 0 17 18" fill="none" xmlns="http://www.w3.org/2000/svg">
<path d="M0.149902 12.0234C0.149902 14.6484 1.85303 16.8438 3.92334 16.8438H6.50928C7.53271 17.3828 8.78271 17.7109 10.1812 17.7109H11.2593C12.2358 17.7109 13.0796 17.6484 13.6343 17.5156C14.7202 17.25 15.3921 16.5 15.3921 15.5391C15.3921 15.3438 15.3608 15.1562 15.2983 14.9766C15.8374 14.5781 16.1421 13.9844 16.1421 13.3359C16.1421 13.0156 16.0874 12.7031 15.9624 12.4453C16.3296 12.0781 16.5405 11.5391 16.5405 10.9688C16.5405 10.6016 16.4468 10.2109 16.2827 9.92969C16.5093 9.60938 16.6421 9.17969 16.6421 8.70312C16.6421 7.53906 15.728 6.61719 14.5718 6.61719H11.6108C11.4233 6.61719 11.2983 6.53125 11.2983 6.375C11.2983 5.52344 12.6343 3.54688 12.6343 1.96094C12.6343 0.882812 11.8765 0.101562 10.8374 0.101562C10.0718 0.101562 9.56396 0.5 9.05615 1.46875C8.10303 3.28906 6.97021 4.91406 5.11865 7.17969H3.62646C1.70459 7.17969 0.149902 9.35938 0.149902 12.0234ZM4.68896 11.9844C4.68896 10.2969 5.07178 9.21875 6.13428 7.79688C7.30615 6.22656 8.93115 4.34375 10.1108 2.00781C10.3999 1.41406 10.603 1.28125 10.8843 1.28125C11.2202 1.28125 11.4546 1.52344 11.4546 1.96094C11.4546 3.22656 10.1187 5.14844 10.1187 6.375C10.1187 7.25781 10.853 7.79688 11.7827 7.79688H14.5718C15.0796 7.79688 15.4624 8.1875 15.4624 8.70312C15.4624 9.07812 15.3452 9.32031 15.0327 9.61719C14.8921 9.75 14.8765 9.90625 14.9937 10.0547C15.2515 10.4297 15.3608 10.6641 15.3608 10.9688C15.3608 11.3438 15.189 11.6562 14.8296 11.9297C14.6343 12.0703 14.5562 12.2734 14.6733 12.5156C14.8687 12.8828 14.9624 13.0547 14.9624 13.3359C14.9624 13.7578 14.6968 14.0781 14.1343 14.3672C13.9546 14.4688 13.9155 14.6172 13.9858 14.7891C14.1812 15.2656 14.2124 15.3438 14.2124 15.5391C14.2124 15.9219 13.9312 16.2266 13.353 16.3672C12.8921 16.4844 12.1577 16.5391 11.2671 16.5312L10.189 16.5156C6.91553 16.4844 4.68896 14.6406 4.68896 11.9844ZM1.32959 12.0234C1.32959 10.0078 2.42334 8.35938 3.62646 8.35938H4.35303C3.76709 9.45312 3.50928 10.5938 3.50928 11.9609C3.50928 13.4297 4.04053 14.6953 4.98584 15.6641H3.92334C2.54053 15.6641 1.32959 14 1.32959 12.0234Z" fill="white"/>
</svg>
