<svg width="24" height="20" viewBox="0 0 24 20" fill="none" xmlns="http://www.w3.org/2000/svg">
<path d="M15.9004 13.9824L17.2871 15.5547H21.1836C22.541 15.5547 23.293 14.8027 23.293 13.4648V2.79102C23.293 1.46289 22.541 0.691406 21.1836 0.691406H2.58984C1.27148 0.691406 0.490234 1.49219 0.490234 2.79102V13.4648C0.490234 14.8027 1.23242 15.5547 2.58984 15.5547H6.58398L7.9707 13.9824H2.83398C2.375 13.9824 2.15039 13.748 2.15039 13.2891V2.9668C2.15039 2.50781 2.375 2.26367 2.83398 2.26367H20.9395C21.3984 2.26367 21.6328 2.50781 21.6328 2.9668V13.2891C21.6328 13.748 21.3984 13.9824 20.9395 13.9824H15.9004ZM17.8535 19.1973C18.3125 19.1973 18.4883 18.7285 18.1953 18.3965L12.3066 11.7266C12.082 11.4727 11.6914 11.4727 11.4668 11.7266L5.57812 18.3965C5.28516 18.7285 5.46094 19.1973 5.91992 19.1973H17.8535Z" fill="#5F9B8C"/>
</svg>
