<svg width="11" height="12" viewBox="0 0 11 12" fill="none" xmlns="http://www.w3.org/2000/svg">
<path d="M5.50781 11.6875C5.60156 11.6875 5.74805 11.6523 5.89453 11.5762C9.22852 9.83008 10.3008 8.95703 10.3008 6.85352V2.43555C10.3008 1.83203 10.043 1.63867 9.55078 1.43359C8.86523 1.15234 6.67383 0.355469 5.99414 0.121094C5.83594 0.0683594 5.67188 0.0390625 5.50781 0.0390625C5.34375 0.0390625 5.17969 0.0742188 5.02734 0.121094C4.3418 0.34375 2.15039 1.1582 1.46484 1.43359C0.978516 1.63281 0.714844 1.83203 0.714844 2.43555V6.85352C0.714844 8.95703 1.8457 9.73047 5.12109 11.5762C5.27344 11.6582 5.41406 11.6875 5.50781 11.6875ZM4.85156 8.50586C4.65234 8.50586 4.48828 8.42969 4.33594 8.22461L2.86523 6.41992C2.77734 6.30273 2.72461 6.16797 2.72461 6.03906C2.72461 5.76953 2.92969 5.55273 3.19922 5.55273C3.36328 5.55273 3.49219 5.61133 3.63867 5.80469L4.82812 7.33984L7.33008 3.32031C7.44141 3.13867 7.59375 3.05078 7.75195 3.05078C8.00391 3.05078 8.24414 3.22656 8.24414 3.49609C8.24414 3.63086 8.17383 3.76562 8.09766 3.88281L5.34375 8.22461C5.2207 8.41211 5.05078 8.50586 4.85156 8.50586Z" fill="url(#paint0_linear_8707_186336)"/>
<defs>
<linearGradient id="paint0_linear_8707_186336" x1="13.5" y1="6" x2="-1.5" y2="6" gradientUnits="userSpaceOnUse">
<stop offset="0.291667" stop-color="#5F9B8C"/>
<stop offset="0.630208" stop-color="#E1555A"/>
</linearGradient>
</defs>
</svg>
