<svg width="8" height="8" viewBox="0 0 8 8" fill="none" xmlns="http://www.w3.org/2000/svg">
<path d="M8 4C8 1.79093 6.20907 0 4 0C1.84813 0 0.0937333 1.69947 0.00413332 3.82933C0.00306665 3.85547 0.00279999 3.882 0.00226666 3.90827C0.00159999 3.93893 0 3.96933 0 4V4.01347C0 6.2152 1.79093 8 4 8C6.20907 8 8 6.2152 8 4.01347L7.99973 4.00693L8 4ZM4.79867 7.6468C4.72867 7.6088 4.66147 7.54653 4.63413 7.46173C4.58467 7.30813 4.62293 7.18893 4.67973 7.05027C4.72507 6.9392 4.66413 6.81093 4.69427 6.69467C4.75307 6.4684 4.824 6.2232 4.80213 5.98013C4.78853 5.83093 4.75547 5.82413 4.64507 5.738C4.52867 5.64667 4.52867 5.51747 4.4508 5.402C4.38027 5.29707 4.57013 4.8984 4.5172 4.87413C4.45787 4.8468 4.32293 4.88253 4.28027 4.82587C4.2344 4.7648 4.2024 4.69267 4.13933 4.64533C4.09867 4.6148 3.9188 4.51267 3.8708 4.51987C3.62907 4.556 3.3672 4.32027 3.21293 4.16653C3.10667 4.06107 3.0624 3.9428 2.98453 3.8208C2.91867 3.71747 2.81893 3.70853 2.77 3.5804C2.71867 3.44653 2.7492 3.27507 2.7336 3.13427C2.71667 2.98293 2.64147 2.93467 2.54747 2.81893C2.3464 2.57053 2.2724 2.19987 1.89093 2.19987C1.686 2.19987 1.70053 2.64627 1.53547 2.5864C1.3488 2.5188 1.06 2.83853 1.06413 2.79547C1.086 2.57227 1.3152 2.46373 1.3376 2.3972C1.4108 2.1788 1.01053 2.23107 1.06187 2.04893C1.08693 1.95933 1.3416 1.89413 1.28893 1.84067C1.27307 1.8244 1.07827 1.68773 1.08787 1.68093C1.124 1.6556 1.28107 1.73587 1.24693 1.6316C1.23547 1.59693 1.21693 1.56507 1.19933 1.53293C1.28029 1.441 1.36572 1.35312 1.45533 1.2696C1.59053 1.25853 1.7308 1.26693 1.7816 1.2768C2.10373 1.34027 2.21573 1.50333 2.53787 1.38267C2.6928 1.3248 3.26387 1.4252 3.34573 1.5876C3.39027 1.6764 3.55613 1.53387 3.6208 1.52427C3.69013 1.51387 3.8468 1.62067 3.89453 1.5552C4.02027 1.38307 3.814 1.3116 4.0576 1.44413C4.22093 1.53307 4.54013 1.142 4.43907 1.6016C4.36613 1.93293 4.09813 1.94027 3.9016 2.15613C3.70813 2.36867 4.2844 2.42653 4.2992 2.61853C4.34187 3.17133 4.63667 2.57347 4.55773 2.37693C4.40507 1.99627 4.73147 2.1008 4.86293 2.34267C4.93587 2.47693 4.99133 2.36387 5.08067 2.31707C5.15307 2.27933 5.1724 2.48373 5.188 2.51933C5.23933 2.6376 5.408 2.67293 5.37947 2.8252C5.34773 2.99307 5.2284 2.94267 5.11173 2.97107C4.98147 3.00267 5.1328 3.11227 5.11387 3.15227C5.09333 3.196 4.93627 3.21413 4.8944 3.23893C4.7712 3.31147 4.84653 3.45293 4.75013 3.52893C4.684 3.5812 4.61733 3.5472 4.60453 3.64507C4.58947 3.7604 4.37693 3.79747 4.40453 3.90773C4.41213 3.938 4.47333 4.16413 4.4348 4.17613C4.41707 4.18187 4.27693 3.97947 4.23867 3.9592C4.16293 3.91907 3.81867 3.95187 3.7744 4.17973C3.74573 4.32707 3.9828 4.55973 4.0432 4.3568C4.118 4.10707 4.1536 4.50227 4.1356 4.51773C4.17133 4.54893 4.3804 4.4664 4.3184 4.61107C4.29213 4.67227 4.34413 4.83187 4.43693 4.78267C4.47573 4.76213 4.57573 4.824 4.5932 4.7908C4.61831 4.75256 4.65224 4.72091 4.69213 4.69853C4.7856 4.64387 4.92547 4.6952 5.02787 4.7012C5.0904 4.7048 5.60293 4.9844 5.60573 5.04053C5.61693 5.25053 6.0044 5.2232 6.06387 5.29827C6.22373 5.50173 6.17453 5.3984 6.05787 5.65907C5.99907 5.79027 6.05027 5.9512 5.90787 6.04627C5.83933 6.09187 5.75573 6.06907 5.6948 6.1336C5.63987 6.19187 5.66147 6.26147 5.62813 6.3288C5.588 6.40893 5.04867 6.8936 5.01307 7.0108C4.99533 7.0696 4.8344 7.1208 4.97013 7.1772C5.04907 7.2004 4.79533 7.44027 4.91733 7.5396C4.94707 7.56373 4.96653 7.58413 4.9812 7.6024C4.92027 7.61867 4.85987 7.63347 4.79867 7.6468ZM4.4792 0.298267C4.474 0.3176 4.48187 0.3404 4.51533 0.362667C4.5908 0.412667 4.49373 0.523733 4.3896 0.452133C4.28573 0.380533 4.05213 0.484267 4.06827 0.538C4.08413 0.591733 4.15627 0.613067 4.26773 0.570267C4.37893 0.527333 4.4248 0.576667 4.44347 0.6276C4.45627 0.662133 4.44347 0.681333 4.43987 0.727867C4.43653 0.7744 4.30707 0.742133 4.19947 0.749467C4.0916 0.756667 3.9768 0.727867 3.98013 0.666933C3.98373 0.606133 3.86533 0.495067 3.79467 0.448667C3.72413 0.402267 3.8256 0.302 3.9192 0.377067C4.0124 0.452267 4.01613 0.3628 4.12387 0.334267C4.18507 0.318 4.16053 0.2936 4.13973 0.2704C4.2544 0.2744 4.36747 0.284 4.4792 0.298267ZM4.94813 1.4808C5.0288 1.50267 5.16893 1.60467 5.16893 1.65293C5.16893 1.70133 5.10533 1.76187 5.0772 1.75493C4.87413 1.70547 4.70293 1.50507 4.60867 1.39533C4.44413 1.204 4.45453 1.368 4.19387 1.2852C4.1272 1.26387 4.02147 1.05707 4.09147 0.955067C4.16147 0.853067 4.24227 0.836933 4.3068 0.864C4.37133 0.890667 4.55987 0.778 4.6032 0.912267C4.64613 1.04653 4.76467 1.21787 4.87253 1.26373C4.98053 1.30933 4.8672 1.45893 4.94813 1.4808ZM5.0128 2.10387C5.04507 2.16827 4.8188 2.02867 4.76493 1.96427C4.71133 1.9 4.63027 1.7548 4.6952 1.6904C4.75973 1.62613 4.90453 1.8244 4.98067 1.86773C5.1312 1.95373 4.98053 2.0396 5.0128 2.10387ZM3.86693 1.12853C3.88253 1.10707 3.9156 1.1608 3.94507 1.21453C3.97453 1.26827 3.93387 1.344 3.86693 1.33253C3.8 1.32133 3.82947 1.18107 3.86693 1.12853ZM3.86693 0.588267C3.86693 0.588267 3.93 0.742133 3.86693 0.717067C3.80387 0.692 3.8008 0.6276 3.86693 0.588267ZM3.87973 1.07493C3.86173 1.03213 3.8576 0.856267 3.90133 0.802933C3.96587 0.724267 4.07013 0.878133 4 0.938933C3.93 0.999867 3.8976 1.118 3.87973 1.07493ZM3.06947 1.2636C2.95227 1.2552 2.94973 1.15387 2.93347 1.10013C2.9172 1.0464 2.82013 1.20213 2.722 1.10013C2.62387 0.998133 2.74493 0.864 2.72333 0.783333C2.70173 0.7028 2.9548 0.783333 2.99267 0.783333C3.03053 0.783333 3.1328 0.949733 3.1596 0.946933C3.18667 0.944267 3.332 1.07853 3.332 1.0248C3.332 0.9712 3.35413 0.879733 3.456 0.869067C3.61227 0.852933 3.47213 1.04093 3.46667 1.11413C3.46147 1.18733 3.58547 1.31467 3.63093 1.3684C3.6768 1.42213 3.51533 1.45987 3.48827 1.42747C3.46147 1.3952 3.39133 1.42747 3.332 1.4704C3.27293 1.51333 3.1112 1.41133 3.03587 1.37907C2.9604 1.34693 3.18667 1.27187 3.06947 1.2636ZM3.48827 0.4164C3.5924 0.452267 3.6516 0.4844 3.7028 0.4164C3.75227 0.3508 3.79 0.559467 3.75413 0.616667C3.71813 0.674133 3.65 0.659867 3.63907 0.616667C3.6284 0.574 3.38413 0.380533 3.48827 0.4164ZM3.63907 1.06427C3.60333 1.0176 3.59973 0.964 3.63907 0.924667C3.67867 0.885333 3.66587 0.8388 3.73627 0.824533C3.77093 0.817333 3.7756 0.870933 3.7756 0.921067C3.7756 0.9712 3.8188 1.0356 3.7756 1.11413C3.73253 1.19267 3.67507 1.11067 3.63907 1.06427ZM3.93307 0.2684C3.93147 0.278267 3.92493 0.284133 3.90853 0.282533C3.89726 0.280621 3.88652 0.276301 3.87707 0.269867C3.89587 0.2692 3.91427 0.268667 3.93307 0.2684ZM3.11853 0.42C3.20107 0.42 3.1904 0.475733 3.25867 0.515867C3.32693 0.555867 3.29093 0.308933 3.3376 0.402C3.38427 0.494933 3.5228 0.623867 3.45613 0.6488C3.3988 0.670533 3.15827 0.763333 3.13667 0.747333C3.11507 0.731333 3.0864 0.663333 3.0288 0.6488C2.9712 0.634533 2.91027 0.498533 2.87067 0.502133C2.8556 0.503467 2.85427 0.4776 2.86413 0.4432C2.93338 0.420905 3.00328 0.400674 3.07373 0.382533C3.08147 0.4036 3.0932 0.42 3.11853 0.42ZM4.92107 4.42333C4.83507 4.51213 4.68693 4.36147 4.58467 4.3668C4.4824 4.37213 4.43107 4.2648 4.34227 4.2756C4.2532 4.28613 4.36653 4.16267 4.4904 4.22733C4.614 4.29173 4.9912 4.35067 4.92107 4.42333ZM6.64507 1.36547C6.62 1.39747 6.59147 1.41987 6.56413 1.44347C6.48347 1.51333 6.33267 1.508 6.31107 1.55627C6.28947 1.60453 6.2356 1.7548 6.04707 1.75547C5.85853 1.756 5.9124 2.0396 5.89627 2.12053C5.88013 2.20147 5.8372 2.2972 5.7832 2.22733C5.72933 2.1576 5.70773 2.18427 5.54107 1.98027C5.3744 1.77627 5.4384 1.6636 5.4924 1.60453C5.54627 1.5456 5.56787 1.40587 5.4924 1.42733C5.41693 1.4488 5.37387 1.4004 5.39 1.3336C5.40613 1.2668 5.48693 1.218 5.39 1.14667C5.29307 1.07547 5.3468 0.820667 5.27147 0.588133C5.196 0.355467 5.0936 0.520133 4.92667 0.529067C4.75973 0.538 4.73267 0.412667 4.80813 0.355333C5.50449 0.509325 6.14203 0.859911 6.64507 1.36547Z" fill="white"/>
</svg>
