<svg width="8" height="11" viewBox="0 0 8 11" fill="none" xmlns="http://www.w3.org/2000/svg">
<path d="M7.37109 3.07812L5.35937 1.10547C5.28906 1.03906 5.1875 0.996094 5.10156 0.996094C4.89453 0.996094 4.75391 1.13672 4.75391 1.33984C4.75391 1.44141 4.78906 1.51953 4.85547 1.58594L5.69531 2.39844L6.42187 3.02734L5.51953 2.98828L0.5 2.98828C0.292969 2.98828 0.148437 3.13281 0.148437 3.33984C0.148437 3.54297 0.292969 3.6875 0.5 3.6875L5.51953 3.6875L6.42187 3.65234L5.69531 4.27734L4.85547 5.09375C4.78906 5.16016 4.75391 5.23437 4.75391 5.33594C4.75391 5.53906 4.89453 5.67969 5.10156 5.67969C5.1875 5.67969 5.28906 5.64062 5.35937 5.57031L7.37109 3.60156C7.52344 3.45703 7.53125 3.22656 7.37109 3.07812ZM0.261718 8.05859L2.28125 10.0273C2.34766 10.0977 2.44922 10.1367 2.53906 10.1367C2.74609 10.1367 2.88281 9.99609 2.88281 9.79297C2.88281 9.69141 2.85156 9.61719 2.78516 9.55078L1.94531 8.73828L1.21484 8.10937L2.11719 8.14453L7.13672 8.14453C7.33984 8.14453 7.48828 8 7.48828 7.79687C7.48828 7.58984 7.33984 7.44531 7.13672 7.44531L2.11719 7.44531L1.21484 7.48437L1.94531 6.85547L2.78516 6.04297C2.85156 5.97656 2.88281 5.89844 2.88281 5.80078C2.88281 5.59766 2.74609 5.45312 2.53906 5.45312C2.44922 5.45312 2.34766 5.49609 2.28125 5.56641L0.261718 7.53516C0.109375 7.67969 0.105468 7.90625 0.261718 8.05859Z" fill="#5F9B8C"/>
</svg>
